<svg xmlns="http://www.w3.org/2000/svg" width="1000" height="1000" viewBox="0 0 1014.62 1014.62" xmlns:xlink="http://www.w3.org/1999/xlink" shape-rendering="geometricPrecision" text-rendering="geometricPrecision" image-rendering="optimizeQuality" fill-rule="evenodd" clip-rule="evenodd">
    <defs>
        <linearGradient id="id0" gradientUnits="userSpaceOnUse" x1="150.36" y1="450.17" x2="172.87" y2="450.17">
            <stop offset="0" stop-color="#9b531e"/>
            <stop offset="1" stop-color="#ef7f1a"/>
        </linearGradient>
        <linearGradient id="id1" gradientUnits="userSpaceOnUse" xlink:href="#id0" x1="845.76" y1="450.17" x2="823.25" y2="450.17"/>
        <linearGradient id="id2" gradientUnits="userSpaceOnUse" x1="194.78" y1="282.62" x2="205.64" y2="282.62">
            <stop offset="0" stop-color="#c5c6c6"/>
            <stop offset=".502" stop-color="#fefefe"/>
            <stop offset="1" stop-color="#c3c4c4"/>
        </linearGradient>
        <linearGradient id="id3" gradientUnits="userSpaceOnUse" xlink:href="#id2" x1="167.44" y1="290.1" x2="178.29" y2="290.1"/>
        <linearGradient id="id4" gradientUnits="userSpaceOnUse" xlink:href="#id2" x1="819.42" y1="290.1" x2="830.27" y2="290.1"/>
        <linearGradient id="id5" gradientUnits="userSpaceOnUse" xlink:href="#id2" x1="167.44" y1="620.24" x2="178.29" y2="620.24"/>
        <linearGradient id="id6" gradientUnits="userSpaceOnUse" xlink:href="#id2" x1="819.42" y1="620.24" x2="830.27" y2="620.24"/>
        <linearGradient id="id7" gradientUnits="userSpaceOnUse" xlink:href="#id2" x1="792.07" y1="282.2" x2="802.93" y2="282.2"/>
        <linearGradient id="id8" gradientUnits="userSpaceOnUse" xlink:href="#id2" x1="549.42" y1="413.52" x2="549.42" y2="402.67"/>
        <linearGradient id="id9" gradientUnits="userSpaceOnUse" xlink:href="#id2" x1="792.07" y1="574.88" x2="802.93" y2="574.88"/>
        <linearGradient id="id10" gradientUnits="userSpaceOnUse" xlink:href="#id2" x1="194.78" y1="574.88" x2="205.64" y2="574.88"/>
        <linearGradient id="id11" gradientUnits="userSpaceOnUse" xlink:href="#id2" x1="549.42" y1="495.31" x2="549.42" y2="484.45"/>
        <style>.str0{stroke:#2b2a29;stroke-width:1.56;stroke-miterlimit:22.9256}.fil1{fill:none}.fil19{fill:#d9dada}.fil9{fill:#5b5b5b}.fil25{fill:#434242}.fil0{fill:#2b2a29}.fil4{fill:#ef7f1a}.fil23{fill:#db751d}.fil24{fill:#c3671d}.fil31{fill:#a3591e}.fil27{fill:#9b531e}.fil32{fill:#75441d}.fil2,.fil20,.fil28{fill:#fefefe;fill-rule:nonzero}.fil2,.fil28{fill:#2b2a29}.fil28{fill:#9b531e}</style>
    </defs>
    <g id="Layer_x0020_2">
        <path class="fil0 str0" d="M709.8 767.38h-6.78v34.48h6.78zM709.8 814.27h-6.78v34.49h6.78zM308.94 767.38h-6.77v34.48h6.77zM308.94 814.27h-6.77v34.49h6.77z"/>
        <path class="fil1" d="M0 0h1014.62v1014.62H0z"/>
        <path class="fil0" d="M828.53 803.86h12.84v-54.4h-12.84V165.09h-657.2v584.37H158.5v54.4h12.83v27.43l7.79 7.78h641.63l7.78-7.78v-27.43zm-97.69-566.3l12.62 12.62v499.63H256.41V250.18l12.66-12.62h461.77z"/>
        <path class="fil2" d="M325.55 461.55h447.73v2.64H325.55zM325.55 441.2h447.73v2.64H325.55z"/>
        <path fill="url(#id11)" d="M325.55 495.31v-10.86h447.73v10.86z"/>
        <path class="fil4" d="M257.83 525.44l63.53-.07 4.12 7.15-.05 1.96-3.16 7.08-64.44-.03-3.21-3.53v-9.04zM154.47 195.49h87.16v-30.4h-87.16zM756.07 195.49h87.17v-30.4h-87.17zM74.18 432.26v-13.03l21.28-21.28H218.3v13.73h-27.79l-4.47 7.74v82.97h-35.68v-11.1h-21.62V475.5l13.98-24.21-15.28-26.47H98.2l-4.35 7.53z"/>
        <path class="fil0" d="M79.07 432.29v52.96l4.67 4.66h45V475.5l13.98-24.21-15.28-26.47H98.2l-4.35 7.53z"/>
        <path class="fil1" d="M225.6 349.74h82.35v80.99H225.6z"/>
        <path class="fil0" d="M307.95 383.47h9.02l8.58 8.58v116.33H214.71v-63.49h10.81V349.74h78.54l3.89 3.9z"/>
        <path d="M112.53 437.76c7.77 0 14.07 6.29 14.07 14.06 0 7.77-6.3 14.07-14.07 14.07-7.77 0-14.07-6.3-14.07-14.07 0-7.77 6.3-14.06 14.07-14.06z" fill="#727271"/>
        <path class="fil0" d="M112.53 447.36c2.46 0 4.46 2 4.46 4.46 0 2.47-2 4.46-4.46 4.46-2.47 0-4.46-1.99-4.46-4.46 0-2.46 1.99-4.46 4.46-4.46z"/>
        <path fill="url(#id3)" d="M167.44 182.24h10.85v215.71h-10.85z"/>
        <path fill="url(#id2)" d="M194.78 177.09h10.86v211.06h-10.86z"/>
        <path fill="url(#id8)" d="M325.55 413.52v-10.85h447.73v10.85z"/>
        <path class="fil9" d="M178.29 387.3h45.36v10.65h-45.36zM774.06 387.3h45.36v10.65h-45.36z"/>
        <path fill="url(#id5)" d="M167.44 738.08h10.85V502.39h-10.85z"/>
        <path fill="url(#id10)" d="M194.78 738.08h10.86v-326.4h-10.86z"/>
        <path class="fil4" d="M249.9 749.46h-95.43v-11.38h95.43z"/>
        <path class="fil9" d="M261.44 728.46H739.1v8.23H261.44z"/>
        <path class="fil4" d="M845.76 502.39h-72.48V397.95h72.48z"/>
        <path fill="url(#id6)" d="M830.27 738.08h-10.85V502.39h10.85z"/>
        <path fill="url(#id9)" d="M802.93 738.08h-10.86v-326.4h10.86z"/>
        <path fill="url(#id4)" d="M830.27 182.24h-10.85v215.71h10.85z"/>
        <path fill="url(#id7)" d="M802.93 177.09h-10.86V387.3h10.86z"/>
        <path class="fil4" d="M846.52 749.46h-95.43v-11.38h95.43z"/>
        <path d="M279.1 188.53h6.58c3.89 0 7.45.86 7.45 5.77 0 4.92-3.56 5.78-7.45 5.78h-6.58v-11.55zm-8.48 31.95h8.48v-13.82h8.9c9.67 0 13.34-6.09 13.34-12.36 0-6.26-3.67-12.36-13.34-12.36h-17.38v38.54zm44.48-31.95h9.29c3.83 0 5.83 1.62 5.83 5.34 0 3.89-2 5.51-5.83 5.51h-9.29v-10.85zm-8.47 31.95h8.47v-15.06h8.48c4.26 0 5.83 1.79 6.42 5.84.43 3.07.38 6.8 1.35 9.22h8.48c-1.57-2.1-1.46-6.69-1.62-9.12-.27-3.94-1.46-7.88-5.62-9.01v-.11c4.32-1.73 6.1-5.13 6.1-9.66 0-5.83-4.37-10.64-11.28-10.64h-20.78v38.54zm71.69-38.54h-8.48v23.97c0 5.78-1.94 8.37-7.99 8.37-6.85 0-7.94-4.16-7.94-8.37v-23.97h-8.47v23.97c0 10.53 5.99 15.49 16.41 15.49 10.31 0 16.47-5.07 16.47-15.49v-23.97zm4.85 25.75c-.16 9.5 7.89 13.71 16.41 13.71 10.53 0 16.04-5.29 16.04-12.36 0-8.69-8.59-10.58-11.45-11.23-9.66-2.43-11.5-2.86-11.5-5.83 0-3.24 3.13-4.37 5.83-4.37 4.11 0 7.35 1.24 7.62 5.83h8.2c0-8.91-7.39-12.42-15.44-12.42-6.96 0-14.41 3.73-14.41 11.66 0 7.13 5.78 9.56 11.5 10.96 5.61 1.57 11.44 2.16 11.44 6.37 0 3.94-4.53 4.81-7.5 4.81-4.54 0-8.53-2-8.53-7.13h-8.21zm52.2-16.25h.11l4.86 14.15h-9.99l5.02-14.15zm-18.84 29.04h8.59l3.02-8.58h14.41l2.92 8.58h8.8l-14.42-38.54h-8.69l-14.63 38.54z" fill="#434242" fill-rule="nonzero"/>
        <path fill="url(#id0)" d="M150.36 502.39h22.51V397.95h-22.51z"/>
        <path fill="url(#id1)" d="M845.76 502.39h-22.51V397.95h22.51z"/>
        <path class="fil19" d="M270.32 387.38a5.04 5.04 0 010 7.13 5.04 5.04 0 01-7.13 0 5.04 5.04 0 010-7.13 5.04 5.04 0 017.13 0zm-30.65-31.67c2.25 2.25 2.25 5.9 0 8.16a5.764 5.764 0 01-8.15 0c-2.25-2.26-2.25-5.91 0-8.16a5.764 5.764 0 018.15 0zm-8.15 70.47a5.764 5.764 0 010-8.15 5.746 5.746 0 018.15 0 5.764 5.764 0 01-8.15 8.15zm62.31 0a5.764 5.764 0 010-8.15 5.758 5.758 0 018.16 0 5.764 5.764 0 010 8.15c-2.26 2.25-5.91 2.25-8.16 0zm8.16-70.47c2.25 2.25 2.25 5.9 0 8.16-2.26 2.25-5.91 2.25-8.16 0-2.25-2.26-2.25-5.91 0-8.16s5.9-2.25 8.16 0zm-28.83 28.83a9.053 9.053 0 010 12.81 9.053 9.053 0 01-12.81 0 9.053 9.053 0 010-12.81 9.053 9.053 0 0112.81 0zm-2.39 2.38a5.68 5.68 0 010 8.05 5.685 5.685 0 01-8.04 0 5.698 5.698 0 010-8.05 5.685 5.685 0 018.04 0z"/>
        <path class="fil20" d="M250.21 366.48h2.55c.21 0 .41.03.58.1.17.07.31.17.43.29.13.11.22.25.28.41.07.16.1.33.1.51 0 .27-.06.52-.18.72-.11.2-.31.36-.57.46v.02c.13.03.23.09.32.16.08.07.15.16.2.26.06.1.09.21.12.33.02.12.04.23.05.35 0 .08.01.17.01.27.01.1.01.2.03.31.01.11.02.21.05.3.02.1.06.18.11.24h-1.04c-.06-.15-.1-.32-.11-.53-.01-.21-.03-.41-.06-.6-.03-.25-.11-.43-.22-.54-.12-.12-.31-.18-.57-.18h-1.04v1.85h-1.04v-4.73zm4.77 0h3.54v.88h-2.5v1.01h2.3v.81h-2.3v1.16h2.56v.87h-3.6v-4.73zm6.84 3.14a.836.836 0 00-.32-.2c-.13-.06-.28-.1-.45-.14-.17-.04-.34-.09-.51-.13-.18-.05-.35-.1-.52-.17-.16-.06-.31-.14-.45-.25-.13-.1-.24-.22-.32-.38-.08-.15-.12-.33-.12-.55 0-.24.05-.45.15-.63.11-.18.24-.33.41-.45.17-.12.36-.21.57-.27.21-.05.43-.08.64-.08.25 0 .48.03.71.08.23.06.43.15.61.27.18.12.32.28.42.47.1.2.16.43.16.7h-1.01a.855.855 0 00-.09-.35.703.703 0 00-.2-.22.919.919 0 00-.29-.11c-.11-.02-.23-.03-.36-.03-.08 0-.17 0-.25.02-.08.02-.16.05-.23.1-.07.04-.12.09-.17.16-.04.07-.06.15-.06.25s.01.17.05.23c.03.06.1.11.21.16.1.05.25.1.43.14.18.05.42.11.72.19.09.02.21.05.37.1.15.04.31.12.46.22.16.1.29.24.41.41.11.17.16.38.16.65 0 .22-.04.42-.12.6-.09.19-.21.35-.38.48-.16.14-.37.24-.61.32-.25.07-.53.11-.86.11-.26 0-.51-.03-.75-.1-.25-.06-.47-.16-.65-.3-.19-.13-.34-.31-.45-.52-.11-.21-.17-.47-.16-.76h1.01c0 .16.03.3.08.41.06.11.14.2.23.27.1.06.21.12.34.15.13.03.26.05.4.05.09 0 .19-.01.29-.02.11-.02.21-.05.3-.09a.71.71 0 00.23-.19c.07-.07.1-.17.1-.29 0-.13-.04-.23-.13-.31zm1.74-3.14h3.54v.88h-2.5v1.01h2.29v.81h-2.29v1.16h2.55v.87h-3.59v-4.73zm5.57 0h1.07l1.77 4.73h-1.08l-.36-1.05h-1.77l-.37 1.05h-1.05l1.79-4.73zm3.24 0h2.55c.22 0 .41.03.58.1.17.07.31.17.43.29.13.11.22.25.28.41.07.16.1.33.1.51 0 .27-.06.52-.18.72-.11.2-.3.36-.57.46v.02c.13.03.23.09.32.16.08.07.15.16.2.26.06.1.1.21.12.33.02.12.04.23.05.35 0 .08.01.17.01.27.01.1.01.2.03.31.01.11.02.21.05.3.02.1.06.18.11.24h-1.04c-.06-.15-.1-.32-.11-.53-.01-.21-.03-.41-.06-.6-.03-.25-.11-.43-.22-.54-.12-.12-.31-.18-.57-.18h-1.04v1.85h-1.04v-4.73zm4.73 1.4c.1-.3.26-.56.46-.79.19-.22.44-.4.73-.53s.61-.19.98-.19c.26 0 .5.04.74.11.23.08.44.19.62.33s.33.32.45.53c.12.21.2.46.23.73h-1.01a.933.933 0 00-.12-.33c-.06-.1-.14-.18-.23-.26-.09-.07-.2-.13-.32-.17a.857.857 0 00-.36-.07c-.24 0-.44.05-.6.14-.16.09-.3.21-.4.36-.1.16-.17.33-.22.52-.05.2-.07.4-.07.61 0 .2.02.39.07.58.05.19.12.35.22.5.1.16.24.28.4.37.16.09.36.13.6.13.32 0 .56-.09.74-.29.18-.19.29-.45.33-.77h1.01c-.03.3-.1.56-.21.8-.11.24-.25.45-.43.61-.19.17-.4.3-.64.39-.24.09-.51.13-.8.13-.37 0-.69-.06-.98-.19-.29-.12-.54-.3-.73-.52-.2-.22-.36-.48-.46-.78-.11-.3-.16-.62-.16-.96 0-.36.05-.68.16-.99zm4.94-1.4h1.05v1.82H285v-1.82h1.04v4.73H285v-2.04h-1.91v2.04h-1.05v-4.73zm-33.91 7.09h39.98v-9.53h-39.98v9.53z"/>
        <path class="fil20" d="M250.01 356.08h1.44c.21 0 .41.02.61.05.2.03.37.09.52.18.15.09.27.22.36.39.09.16.13.38.13.64 0 .27-.04.49-.13.65-.09.17-.21.29-.36.39-.15.09-.32.15-.52.18s-.4.04-.61.04h-1.44v-2.52zm35.61 20.81l.47-1.42.46 1.42h-.93zm.05-2.24l-1.29 3.61h.79l.25-.75h1.33l.23.75h.82l-1.28-3.61h-.85zm-1.88 1.81c-.14-.1-.35-.19-.62-.26l-.64-.15c-.24-.05-.4-.1-.48-.15a.31.31 0 01-.17-.28c0-.14.06-.25.18-.33a.84.84 0 01.47-.12c.18 0 .33.03.45.09.18.09.28.25.29.46h.73c-.02-.38-.16-.67-.43-.87-.27-.21-.6-.31-.98-.31-.46 0-.81.11-1.05.33-.24.21-.36.48-.36.8 0 .35.12.61.37.78.14.1.4.19.79.28l.39.08c.23.05.39.11.5.17.1.07.16.16.16.28 0 .2-.11.34-.33.42-.11.04-.26.05-.44.05-.3 0-.52-.07-.64-.22-.07-.08-.11-.2-.14-.37h-.72c0 .38.14.67.41.89.27.21.65.32 1.12.32.47 0 .83-.11 1.08-.33.25-.22.38-.49.38-.82 0-.32-.1-.57-.32-.74zm-3.98.4c0 .25-.03.43-.09.55-.09.2-.29.3-.59.3-.31 0-.5-.1-.59-.3-.06-.12-.09-.3-.09-.55v-2.21h-.77v2.22c0 .38.06.68.18.89.22.39.65.59 1.27.59s1.04-.2 1.27-.59c.12-.21.17-.51.18-.89l-.01-2.22h-.76v2.21zm-3.82-.67c-.08.03-.2.05-.36.06l-.81-.01v-.96h.83c.15 0 .27.02.35.06.13.07.2.22.2.44 0 .2-.07.34-.21.41zm.89 1.77a2.22 2.22 0 01-.02-.34v-.24c0-.25-.04-.44-.11-.56-.06-.13-.18-.22-.35-.29.2-.07.34-.18.43-.35.09-.16.13-.33.13-.5a.92.92 0 00-.07-.38c-.04-.11-.1-.21-.18-.31a.862.862 0 00-.34-.25c-.13-.05-.32-.08-.57-.09h-1.72v3.61h.74v-1.42h.73c.21 0 .36.04.43.12.08.07.12.23.12.46l.01.33c0 .11.01.21.03.31.01.05.02.11.05.2h.83v-.1a.298.298 0 01-.14-.2zm-4.31-1.75c-.1.08-.23.13-.4.13h-.68v-1.06h.68c.17 0 .3.04.4.12.09.07.14.21.14.4 0 .18-.05.32-.14.41zm.57-1.28c-.21-.19-.5-.28-.85-.28h-1.55v3.61h.75v-1.3h.75c.39 0 .69-.09.9-.27.21-.17.32-.47.32-.9 0-.39-.11-.68-.32-.86zm-6.87 3.33h.75v-1.52h1.6v-.62h-1.6v-.83h1.82v-.64h-2.57v3.61zm-2.58-1.58h1.75v-.63h-1.75v-.76h1.9v-.64h-2.64v3.61h2.73v-.65h-2l.01-.93zm-1.61-.22c-.14-.1-.35-.19-.63-.26l-.63-.15c-.24-.05-.4-.1-.48-.14a.316.316 0 01-.17-.29c0-.15.06-.25.17-.33.12-.08.28-.12.48-.12.18 0 .33.03.45.09.18.09.28.25.29.46h.72c-.01-.38-.15-.67-.42-.87-.28-.2-.6-.31-.99-.31-.46 0-.81.11-1.04.33-.24.21-.36.48-.36.8 0 .35.12.61.36.78.15.1.41.19.79.28l.39.08c.23.05.4.11.5.17.11.07.16.16.16.28 0 .2-.1.34-.32.42-.11.03-.26.05-.44.05-.31 0-.52-.07-.64-.22a.668.668 0 01-.14-.37h-.72c0 .38.13.67.41.89.27.21.64.32 1.12.32.46 0 .82-.11 1.08-.33.25-.22.38-.49.38-.82 0-.32-.11-.57-.32-.74zm-4.09.93c-.17.22-.41.33-.71.33s-.53-.11-.71-.33c-.18-.22-.27-.54-.27-.94 0-.41.09-.72.27-.94.18-.22.41-.33.71-.33s.54.11.71.33c.18.22.27.53.27.94 0 .4-.09.72-.27.94zm-.71-2.85c-.51 0-.91.14-1.18.42-.36.33-.55.83-.55 1.49 0 .64.19 1.14.55 1.49.27.28.67.42 1.18.41.52.01.91-.13 1.18-.42.37-.34.55-.84.55-1.48 0-.66-.18-1.16-.54-1.49-.28-.28-.67-.42-1.19-.42zm-3.14 2.63c0 .18-.02.3-.05.37-.05.13-.16.19-.33.19s-.28-.06-.33-.17c-.05-.12-.08-.31-.09-.59v-.08h-.71v.08c0 .42.08.76.24 1 .15.25.46.37.92.37.45 0 .77-.15.94-.45.11-.18.16-.42.16-.73v-2.51h-.75v2.52zm-3.41.63l-.38-1.27h-.5l.63 1.8c.01.01 0 .05-.03.11-.02.05-.04.09-.07.11-.03.02-.06.03-.1.03-.04.01-.08.01-.13.01h-.06v.36H250.3c.2 0 .33-.04.4-.11.07-.08.16-.29.27-.61l.59-1.7h-.48l-.35 1.27zm-1.59-.01c-.06.09-.15.14-.27.14-.13 0-.24-.05-.3-.15a.589.589 0 01-.1-.36c0-.13.01-.23.05-.31.06-.15.17-.22.34-.22.16 0 .27.07.33.22.03.08.05.18.05.31 0 .15-.03.27-.1.37zm-.16-1.3c-.12 0-.23.03-.31.08a.64.64 0 00-.19.18v-.83l-.45.01v2.33h.44l.01-.22c.06.08.11.14.17.18.08.05.2.08.34.08.23 0 .41-.09.53-.26.13-.18.19-.4.19-.67 0-.26-.06-.47-.19-.63-.13-.17-.31-.25-.54-.25zm20.69-8.84h-.02l-.61 1.73h1.22l-.59-1.73zm5.42.81c.12-.1.18-.28.18-.51 0-.23-.06-.4-.18-.5-.12-.11-.3-.16-.54-.16h-1.14v1.33h1.14c.24 0 .42-.05.54-.16zm-22.16 0c.12-.1.18-.28.18-.51 0-.23-.06-.4-.18-.51-.12-.1-.3-.15-.54-.15h-1.14v1.33h1.14c.24 0 .42-.05.54-.16zm31.11-11.74h.03l1.06 3.09h-2.18l1.09-3.09zm-1.58 4.47h3.15l.64 1.87h1.92l-3.15-8.42h-1.9l-3.18 8.42h1.86l.66-1.87zm-5.08.43c-.16.08-.34.13-.53.16s-.36.04-.53.04c-.24 0-.48-.03-.71-.09-.22-.05-.42-.14-.59-.27-.17-.12-.31-.28-.41-.47-.1-.2-.15-.44-.15-.72h-1.79c-.01.52.08.96.28 1.34.2.38.46.69.8.93.33.25.71.42 1.15.54.44.11.89.17 1.35.17.57 0 1.08-.07 1.52-.2.43-.13.8-.32 1.09-.56.3-.24.52-.53.67-.86.15-.33.22-.68.22-1.07 0-.47-.1-.86-.3-1.16-.2-.3-.44-.54-.71-.72-.28-.18-.55-.32-.83-.4-.28-.08-.5-.14-.66-.17-.52-.13-.95-.24-1.28-.33-.32-.09-.58-.17-.76-.26-.19-.09-.31-.18-.37-.28a.72.72 0 01-.1-.4c0-.18.04-.33.12-.45.08-.12.18-.22.3-.3.12-.08.26-.13.41-.16.15-.03.29-.05.44-.05.23 0 .44.02.64.06.19.04.36.11.51.2.15.1.27.22.36.39.09.17.14.37.16.62l1.79.01c0-.49-.09-.91-.28-1.25-.18-.34-.43-.62-.75-.84-.31-.22-.67-.38-1.08-.48-.4-.1-.82-.15-1.26-.15-.38 0-.76.05-1.13.16-.38.1-.72.26-1.02.47-.3.21-.54.48-.72.79-.19.32-.28.7-.28 1.13 0 .38.07.71.22.98.14.28.33.5.57.68.24.18.5.33.8.44.3.12.61.21.92.29.31.09.61.17.91.24.3.07.56.15.8.25.24.09.43.21.57.35.15.14.22.33.22.55 0 .22-.06.39-.16.53-.12.14-.25.24-.42.32zm-9.35 1.63c1.13 0 2.01-.28 2.65-.83.63-.56.95-1.4.95-2.54v-5.24h-1.85v5.24c0 .63-.13 1.09-.38 1.38-.25.3-.71.44-1.37.45-.37-.01-.67-.06-.9-.16-.22-.11-.4-.25-.52-.42-.13-.17-.21-.36-.25-.58a3.71 3.71 0 01-.06-.67v-5.24h-1.85v5.24c0 1.14.31 1.99.94 2.54.62.55 1.5.83 2.64.83zm-10.18-7.17h2.03c.42 0 .74.09.95.28.21.18.32.48.32.89 0 .42-.11.73-.32.92-.21.19-.53.28-.95.28h-2.03v-2.37zm0 3.69h1.85c.46 0 .8.1 1 .31.21.2.34.52.4.97.05.33.08.69.11 1.06.02.37.09.68.19.95h1.85c-.09-.12-.15-.26-.2-.43-.04-.17-.07-.35-.09-.54-.02-.18-.03-.37-.04-.55-.01-.18-.02-.34-.03-.47-.01-.21-.04-.43-.08-.64-.05-.21-.12-.41-.21-.58-.1-.18-.22-.33-.37-.46s-.33-.23-.56-.29v-.02c.47-.19.81-.47 1.02-.83.2-.36.31-.79.31-1.28 0-.33-.06-.63-.17-.91-.11-.27-.28-.52-.5-.73a2.28 2.28 0 00-.77-.5 2.61 2.61 0 00-1.02-.19H256v8.42h1.85v-3.29zm-7.84.27h1.94c.53 0 .98-.07 1.35-.23.37-.15.67-.35.9-.6.23-.26.4-.54.51-.87.1-.33.16-.66.16-1 0-.34-.06-.68-.16-1-.11-.32-.28-.61-.51-.86-.23-.25-.53-.45-.9-.61-.37-.15-.82-.23-1.35-.23h-3.79v8.42h1.85v-3.02z"/>
        <path class="fil0" d="M307.95 383.47h9.02l8.58 8.58v116.33H252.56v-61.42h-28.5v-10.57h83.89z"/>
        <path class="fil19" d="M316.09 529.49c2.21 0 4 1.79 4 3.99 0 2.21-1.79 4-4 4a3.995 3.995 0 010-7.99z"/>
        <path fill="#e0bd3d" d="M284.39 541.53h9.26l-4.63 4.63z"/>
        <path d="M265.98 535.84l-.44-4.52v-2.08h1.84v2.08l-.43 4.52h-.97zm-.36 2.28v-1.7h1.7v1.7h-1.7zm7.29 0v-8.88h1.8v3.5h3.5v-3.5h1.8v8.88h-1.8v-3.88h-3.5v3.88h-1.8zm8.59-4.39c0-.9.13-1.66.4-2.28.2-.45.48-.86.83-1.22s.73-.62 1.15-.8c.55-.23 1.19-.35 1.91-.35 1.31 0 2.36.41 3.15 1.22.78.81 1.17 1.94 1.17 3.39 0 1.44-.39 2.56-1.17 3.37-.77.81-1.82 1.22-3.12 1.22-1.32 0-2.37-.4-3.15-1.21-.78-.81-1.17-1.92-1.17-3.34zm1.84-.06c0 1.01.24 1.77.7 2.29.47.52 1.06.78 1.77.78.72 0 1.31-.26 1.77-.77.46-.52.69-1.29.69-2.32 0-1.02-.23-1.78-.67-2.28-.45-.5-1.04-.75-1.79-.75-.74 0-1.33.25-1.79.76-.45.5-.68 1.27-.68 2.29zm10.17 4.45v-7.38h-2.63v-1.5h7.04v1.5h-2.61v7.38h-1.8zm9.67-2.28l-.44-4.52v-2.08h1.83v2.08l-.43 4.52h-.96zm-.37 2.28v-1.7h1.7v1.7h-1.7z" fill="#a3591e" fill-rule="nonzero"/>
        <path class="fil23" d="M340.3 742.7h-27.47l-3.89 3.89v106.68l3.89 3.89h27.47l3.9-3.89V746.59z"/>
        <path class="fil24" d="M312.83 742.7l-3.89 3.89v106.68l3.89 3.89z"/>
        <path class="fil25" d="M326.57 787.26c11.3 0 20.45 9.15 20.45 20.45 0 11.3-9.15 20.45-20.45 20.45-11.3 0-20.45-9.15-20.45-20.45 0-11.3 9.15-20.45 20.45-20.45z"/>
        <path class="fil0" d="M326.57 788.2l8.45 4.88 8.45 4.87V817.46l-8.45 4.88-8.45 4.88-8.45-4.88-8.45-4.88V797.95l8.45-4.87 8.45-4.88zm0 10.48c4.98 0 9.03 4.04 9.03 9.03 0 4.98-4.05 9.03-9.03 9.03-4.98 0-9.03-4.05-9.03-9.03 0-4.99 4.05-9.03 9.03-9.03z"/>
        <path class="fil23" d="M699.13 742.7h-27.47l-3.89 3.89v106.68l3.89 3.89h27.47l3.89-3.89V746.59z"/>
        <path class="fil25" d="M685.4 787.26c11.29 0 20.45 9.15 20.45 20.45 0 11.3-9.16 20.45-20.45 20.45-11.3 0-20.46-9.15-20.46-20.45 0-11.3 9.16-20.45 20.46-20.45z"/>
        <path class="fil0" d="M685.4 788.2l8.45 4.88 8.44 4.87V817.46l-8.44 4.88-8.45 4.88-8.45-4.88-8.45-4.88V797.95l8.45-4.87 8.45-4.88zm0 10.48c4.98 0 9.02 4.04 9.02 9.03 0 4.98-4.04 9.03-9.02 9.03-4.99 0-9.03-4.05-9.03-9.03 0-4.99 4.04-9.03 9.03-9.03z"/>
        <path class="fil4" d="M344.2 748.21v101.3l4.41 7.65h314.72l4.44-7.7V749.45l-6.75-6.75H349.65z"/>
        <path d="M625.56 758.75c11.24 0 20.36 9.11 20.36 20.35 0 11.24-9.12 20.35-20.36 20.35s-20.35-9.11-20.35-20.35c0-11.24 9.11-20.35 20.35-20.35z" fill="#c0621e"/>
        <path class="fil27" d="M625.56 769.22c5.46 0 9.88 4.42 9.88 9.88 0 1.53-.34 2.97-.96 4.26l14.67 14.67-4.66 4.65-14.67-14.66c-1.29.62-2.73.96-4.26.96-5.46 0-9.88-4.42-9.88-9.88 0-5.46 4.42-9.88 9.88-9.88zM349.65 742.7v96.73l2.79 4.83h309.77l5.81-5.82-.25 11.02-4.44 7.7H348.61l-4.41-7.65v-101.3z"/>
        <path class="fil28" d="M380.25 831.03c0-2.57 1.09-5.04 3.99-5.04 2.9 0 3.99 2.47 3.99 5.04 0 2.44-1.09 4.91-3.99 4.91-2.9 0-3.99-2.47-3.99-4.91zm-3.23 0c0 4.23 2.69 7.63 7.22 7.63 4.52 0 7.22-3.4 7.22-7.63 0-4.36-2.7-7.75-7.22-7.75-4.53 0-7.22 3.39-7.22 7.75zm19.87-4.9h3.53c1.46 0 2.22.62 2.22 2.04 0 1.48-.76 2.1-2.22 2.1h-3.53v-4.14zm-3.23 12.18h3.23v-5.74h3.22c1.63 0 2.22.68 2.45 2.22.17 1.17.14 2.59.51 3.52h3.23c-.59-.81-.55-2.55-.61-3.48-.11-1.5-.56-3-2.14-3.43v-.04c1.64-.66 2.32-1.96 2.32-3.68 0-2.23-1.66-4.05-4.3-4.05h-7.91v14.68zm14.84 0h3.23v-14.68h-3.23v14.68zm17.01 0h2.06v-7.94h-6.17v2.41h3.25c-.19 2.05-1.38 3.16-3.5 3.16-2.9 0-3.99-2.47-3.99-4.91 0-2.57 1.09-5.04 3.99-5.04 1.54 0 2.71.82 3.1 2.47h3.09c-.33-3.35-3.19-5.18-6.19-5.18-4.52 0-7.22 3.39-7.22 7.75 0 4.23 2.7 7.63 7.22 7.63 1.42 0 2.88-.54 4.03-2.02l.33 1.67zm4.67 0h3.23v-14.68h-3.23v14.68zm6.06 0h3.03v-9.83h.04l6.1 9.83h3.23v-14.68h-3.02v9.84h-.04l-6.13-9.84h-3.21v14.68zm20.85-11.07h.04l1.86 5.39h-3.81l1.91-5.39zm-7.17 11.07h3.27l1.15-3.27h5.49l1.11 3.27h3.35l-5.49-14.68h-3.31l-5.57 14.68zm15.65 0h10.38v-2.72h-7.16v-11.96h-3.22v14.68zM487.12 821.97h3.37c1.98 0 3.81.44 3.81 2.95 0 2.52-1.83 2.96-3.81 2.96h-3.37v-5.91zm-4.33 16.34h4.33v-7.07h4.55c4.94 0 6.82-3.11 6.82-6.32 0-3.2-1.88-6.31-6.82-6.31h-8.88v19.7zm22.74-16.34h4.74c1.96 0 2.98.83 2.98 2.73 0 1.99-1.02 2.82-2.98 2.82h-4.74v-5.55zm-4.34 16.34h4.34v-7.7h4.33c2.18 0 2.98.91 3.28 2.98.22 1.57.19 3.48.69 4.72h4.33c-.8-1.08-.74-3.42-.82-4.67-.14-2.01-.75-4.03-2.87-4.6v-.06c2.2-.88 3.11-2.62 3.11-4.94 0-2.98-2.23-5.43-5.76-5.43h-10.63v19.7zm36.65-19.7h-4.34v12.25c0 2.95-.99 4.27-4.08 4.27-3.5 0-4.06-2.12-4.06-4.27v-12.25h-4.33v12.25c0 5.38 3.07 7.92 8.39 7.92 5.27 0 8.42-2.6 8.42-7.92v-12.25zm2.48 13.16c-.08 4.85 4.03 7.01 8.39 7.01 5.38 0 8.19-2.71 8.19-6.32 0-4.44-4.38-5.41-5.85-5.74-4.94-1.24-5.87-1.46-5.87-2.98 0-1.66 1.6-2.24 2.98-2.24 2.09 0 3.75.64 3.89 2.98h4.19c0-4.55-3.78-6.34-7.89-6.34-3.56 0-7.37 1.9-7.37 5.96 0 3.64 2.95 4.88 5.88 5.6 2.87.8 5.85 1.1 5.85 3.25 0 2.02-2.32 2.46-3.84 2.46-2.31 0-4.36-1.02-4.36-3.64h-4.19zm26.68-8.31h.06l2.48 7.23h-5.1l2.56-7.23zm-9.63 14.85h4.39l1.54-4.39h7.37l1.49 4.39h4.5l-7.37-19.7h-4.44l-7.48 19.7z"/>
        <path class="fil24" d="M671.66 742.7l-3.89 3.89v106.68l3.89 3.89z"/>
        <path fill="#0a84c5" d="M392.4 763.12h176.65v48.17H392.4z"/>
        <path d="M395.53 766.14h7.48v9.95h-7.48v-9.95zm162.91 32.18h7.48v9.96h-7.48v-9.96zm0-10.73h7.48v9.96h-7.48v-9.96zm0-10.72h7.48v9.95h-7.48v-9.95zm0-10.73h7.48v9.95h-7.48v-9.95zm-8.57 32.18h7.48v9.96h-7.48v-9.96zm0-10.73h7.48v9.96h-7.48v-9.96zm0-10.72h7.48v9.95h-7.48v-9.95zm0-10.73h7.48v9.95h-7.48v-9.95zm-8.58 32.18h7.48v9.96h-7.48v-9.96zm0-10.73h7.48v9.96h-7.48v-9.96zm0-10.72h7.48v9.95h-7.48v-9.95zm0-10.73h7.48v9.95h-7.48v-9.95zm-8.57 32.18h7.48v9.96h-7.48v-9.96zm0-10.73h7.48v9.96h-7.48v-9.96zm0-10.72h7.48v9.95h-7.48v-9.95zm0-10.73h7.48v9.95h-7.48v-9.95zm-8.58 32.18h7.48v9.96h-7.48v-9.96zm0-10.73h7.48v9.96h-7.48v-9.96zm0-10.72h7.48v9.95h-7.48v-9.95zm0-10.73h7.48v9.95h-7.48v-9.95zm-8.57 32.18h7.48v9.96h-7.48v-9.96zm0-10.73h7.48v9.96h-7.48v-9.96zm0-10.72h7.48v9.95h-7.48v-9.95zm0-10.73h7.48v9.95h-7.48v-9.95zM507 798.32h7.48v9.96H507v-9.96zm0-10.73h7.48v9.96H507v-9.96zm0-10.72h7.48v9.95H507v-9.95zm0-10.73h7.48v9.95H507v-9.95zm-8.58 32.18h7.48v9.96h-7.48v-9.96zm0-10.73h7.48v9.96h-7.48v-9.96zm0-10.72h7.48v9.95h-7.48v-9.95zm0-10.73h7.48v9.95h-7.48v-9.95zm-8.57 32.18h7.48v9.96h-7.48v-9.96zm0-10.73h7.48v9.96h-7.48v-9.96zm0-10.72h7.48v9.95h-7.48v-9.95zm0-10.73h7.48v9.95h-7.48v-9.95zm-8.58 32.18h7.48v9.96h-7.48v-9.96zm0-10.73h7.48v9.96h-7.48v-9.96zm0-10.72h7.48v9.95h-7.48v-9.95zm0-10.73h7.48v9.95h-7.48v-9.95zm-8.57 32.18h7.48v9.96h-7.48v-9.96zm0-10.73h7.48v9.96h-7.48v-9.96zm0-10.72h7.48v9.95h-7.48v-9.95zm0-10.73h7.48v9.95h-7.48v-9.95zm-8.58 32.18h7.48v9.96h-7.48v-9.96zm0-10.73h7.48v9.96h-7.48v-9.96zm0-10.72h7.48v9.95h-7.48v-9.95zm0-10.73h7.48v9.95h-7.48v-9.95zm-8.57 32.18h7.48v9.96h-7.48v-9.96zm0-10.73h7.48v9.96h-7.48v-9.96zm0-10.72h7.48v9.95h-7.48v-9.95zm0-10.73h7.48v9.95h-7.48v-9.95zm-8.58 32.18h7.49v9.96h-7.49v-9.96zm0-10.73h7.49v9.96h-7.49v-9.96zm0-10.72h7.49v9.95h-7.49v-9.95zm0-10.73h7.49v9.95h-7.49v-9.95zm-8.57 32.18h7.48v9.96h-7.48v-9.96zm0-10.73h7.48v9.96h-7.48v-9.96zm0-10.72h7.48v9.95h-7.48v-9.95zm0-10.73h7.48v9.95h-7.48v-9.95zm-8.57 32.18h7.48v9.96h-7.48v-9.96zm0-10.73h7.48v9.96h-7.48v-9.96zm0-10.72h7.48v9.95h-7.48v-9.95zm0-10.73h7.48v9.95h-7.48v-9.95zm-8.58 32.18h7.48v9.96h-7.48v-9.96zm0-10.73h7.48v9.96h-7.48v-9.96zm0-10.72h7.48v9.95h-7.48v-9.95zm0-10.73h7.48v9.95h-7.48v-9.95zm-8.57 32.18h7.48v9.96h-7.48v-9.96zm0-10.73h7.48v9.96h-7.48v-9.96zm0-10.72h7.48v9.95h-7.48v-9.95zm0-10.73h7.48v9.95h-7.48v-9.95zm-8.58 32.18h7.48v9.96h-7.48v-9.96zm0-10.73h7.48v9.96h-7.48v-9.96zm0-10.72h7.48v9.95h-7.48v-9.95zm0-10.73h7.48v9.95h-7.48v-9.95zm-8.57 32.18h7.48v9.96h-7.48v-9.96zm0-10.73h7.48v9.96h-7.48v-9.96zm0-10.72h7.48v9.95h-7.48v-9.95z" fill="#0d7dbf"/>
        <path class="fil20" d="M406.14 786.05v-.98h.98v.98h-.98zm1.21 0v-.98h.98v.98h-.98zm1.22 0v-.98h.98v.98h-.98zm-3.65-1.22v-.98h.98v.98h-.98zm4.87 0v-.98h.97v.98h-.97zm-4.87-1.21v-.98h.98v.98h-.98zm4.87 0v-.98h.97v.98h-.97zm-4.87-1.22v-.98h.98v.98h-.98zm4.87 0v-.98h.97v.98h-.97zm-4.87-1.22v-.97h.98v.97h-.98zm4.87 0v-.97h.97v.97h-.97zm-4.87-1.21v-.98h.98v.98h-.98zm4.87 0v-.98h.97v.98h-.97zm-3.65-1.22v-.98h.98v.98h-.98zm1.21 0v-.98h.98v.98h-.98zm1.22 0v-.98h.98v.98h-.98zm4.93 7.3v-.98h.98v.98h-.98zm0-1.22v-.98h.98v.98h-.98zm0-1.21v-.98h.98v.98h-.98zm0-1.22v-.98h.98v.98h-.98zm4.86 0v-.98h.98v.98h-.98zm-4.86-1.22v-.97h.98v.97h-.98zm1.22 0v-.97h.97v.97h-.97zm1.21 0v-.97h.98v.97h-.98zm1.22 0v-.97h.98v.97h-.98zm6.14 4.87v-.98h.98v.98h-.98zm1.22 0v-.98h.98v.98h-.98zm1.21 0v-.98h.98v.98h-.98zm-1.21-1.22v-.98h.98v.98h-.98zm0-1.21v-.98h.98v.98h-.98zm-1.22-1.22v-.98h.98v.98h-.98zm1.22 0v-.98h.98v.98h-.98zm0-2.43v-.98h.98v.98h-.98zm6.15 6.08v-.98h.97v.98h-.97zm1.21 0v-.98h.98v.98h-.98zm1.22 0v-.98h.98v.98h-.98zm1.21 0v-.98h.98v.98h-.98zm1.22-1.22v-.98h.98v.98h-.98zm-3.65-1.21v-.98h.98v.98h-.98zm1.22 0v-.98h.98v.98h-.98zm1.21 0v-.98h.98v.98h-.98zm1.22 0v-.98h.98v.98h-.98zm-4.86-1.22v-.98h.97v.98h-.97zm4.86 0v-.98h.98v.98h-.98zm-3.65-1.22v-.97h.98v.97h-.98zm1.22 0v-.97h.98v.97h-.98zm1.21 0v-.97h.98v.97h-.98zm6.15 4.87v-.98h.98v.98h-.98zm1.21 0v-.98h.98v.98h-.98zm1.22 0v-.98h.98v.98h-.98zm-1.22-1.22v-.98h.98v.98h-.98zm0-1.21v-.98h.98v.98h-.98zm-1.21-1.22v-.98h.98v.98h-.98zm1.21 0v-.98h.98v.98h-.98zm0-2.43v-.98h.98v.98h-.98zm6.15 6.08v-.98h.98v.98h-.98zm4.86 0v-.98h.98v.98h-.98zm-4.86-1.22v-.98h.98v.98h-.98zm4.86 0v-.98h.98v.98h-.98zm-4.86-1.21v-.98h.98v.98h-.98zm4.86 0v-.98h.98v.98h-.98zm-4.86-1.22v-.98h.98v.98h-.98zm4.86 0v-.98h.98v.98h-.98zm-4.86-1.22v-.97h.98v.97h-.98zm1.22 0v-.97h.98v.97h-.98zm1.21 0v-.97h.98v.97h-.98zm1.22 0v-.97h.98v.97h-.98zm6.14 4.87v-.98h.98v.98h-.98zm1.22 0v-.98h.98v.98h-.98zm1.22 0v-.98h.98v.98h-.98zm1.21 0v-.98h.98v.98h-.98zm-4.86-1.22v-.98h.98v.98h-.98zm4.86 0v-.98h.98v.98h-.98zm-3.65-1.21v-.98h.98v.98h-.98zm1.22 0v-.98h.98v.98h-.98zm1.22 0v-.98h.98v.98h-.98zm1.21 0v-.98h.98v.98h-.98zm0-1.22v-.98h.98v.98h-.98zm-3.65-1.22v-.97h.98v.97h-.98zm1.22 0v-.97h.98v.97h-.98zm1.22 0v-.97h.98v.97h-.98zm6.14 4.87v-.98h.98v.98h-.98zm1.22 0v-.98h.98v.98h-.98zm-2.43-1.22v-.98h.98v.98h-.98zm0-1.21v-.98h.98v.98h-.98zm0-1.22v-.98h.98v.98h-.98zm0-1.22v-.97h.98v.97h-.98zm0-1.21v-.98h.98v.98h-.98zm0-1.22v-.98h.98v.98h-.98zm17.15 7.3v-.98h.98v.98h-.98zm0-1.22v-.98h.98v.98h-.98zm0-1.21v-.98h.98v.98h-.98zm0-1.22v-.98h.98v.98h-.98zm1.22 0v-.98h.98v.98h-.98zm1.21 0v-.98h.98v.98h-.98zm1.22 0v-.98h.98v.98h-.98zm-3.65-1.22v-.97h.98v.97h-.98zm4.87 0v-.97h.97v.97h-.97zm-4.87-1.21v-.98h.98v.98h-.98zm4.87 0v-.98h.97v.98h-.97zm-4.87-1.22v-.98h.98v.98h-.98zm1.22 0v-.98h.98v.98h-.98zm1.21 0v-.98h.98v.98h-.98zm1.22 0v-.98h.98v.98h-.98zm4.93 7.3v-.98h.98v.98h-.98zm0-1.22v-.98h.98v.98h-.98zm0-1.21v-.98h.98v.98h-.98zm0-1.22v-.98h.98v.98h-.98zm4.86 0v-.98h.98v.98h-.98zm-4.86-1.22v-.97h.98v.97h-.98zm1.21 0v-.97h.98v.97h-.98zm1.22 0v-.97h.98v.97h-.98zm1.22 0v-.97h.98v.97h-.98zm6.14 4.87v-.98h.98v.98h-.98zm1.22 0v-.98h.98v.98h-.98zm1.21 0v-.98h.98v.98h-.98zm1.22 0v-.98h.98v.98h-.98zm-4.86-1.22v-.98h.98v.98h-.98zm4.86 0v-.98h.98v.98h-.98zm-4.86-1.21v-.98h.98v.98h-.98zm4.86 0v-.98h.98v.98h-.98zm-4.86-1.22v-.98h.98v.98h-.98zm4.86 0v-.98h.98v.98h-.98zm-4.86-1.22v-.97h.98v.97h-.98zm4.86 0v-.97h.98v.97h-.98zm3.71 4.87v-.98h.98v.98h-.98zm1.22 0v-.98h.98v.98h-.98zm1.22 0v-.98h.98v.98h-.98zm1.21 0v-.98h.98v.98h-.98zm1.22-1.22v-.98h.98v.98h-.98zm-3.65-1.21v-.98h.98v.98h-.98zm1.22 0v-.98h.98v.98h-.98zm1.21 0v-.98h.98v.98h-.98zm-3.65-1.22v-.98h.98v.98h-.98zm1.22-1.22v-.97h.98v.97h-.98zm1.22 0v-.97h.98v.97h-.98zm1.21 0v-.97h.98v.97h-.98zm1.22 0v-.97h.98v.97h-.98zm4.93 4.87v-.98h.98v.98h-.98zm1.21 0v-.98h.98v.98h-.98zm1.22 0v-.98h.98v.98h-.98zm1.22 0v-.98h.98v.98h-.98zm-4.87-1.22v-.98h.98v.98h-.98zm4.87 0v-.98h.98v.98h-.98zm-3.65-1.21v-.98h.98v.98h-.98zm1.21 0v-.98h.98v.98h-.98zm1.22 0v-.98h.98v.98h-.98zm1.22 0v-.98h.98v.98h-.98zm0-1.22v-.98h.98v.98h-.98zm-3.65-1.22v-.97h.98v.97h-.98zm1.21 0v-.97h.98v.97h-.98zm1.22 0v-.97h.98v.97h-.98zm14.72 4.87v-.98h.98v.98h-.98zm1.22 0v-.98h.98v.98h-.98zm1.22 0v-.98h.97v.98h-.97zm-1.22-1.22v-.98h.98v.98h-.98zm0-1.21v-.98h.98v.98h-.98zm-1.22-1.22v-.98h.98v.98h-.98zm1.22 0v-.98h.98v.98h-.98zm0-2.43v-.98h.98v.98h-.98zm7.36 6.08v-.98h.98v.98h-.98zm1.22 0v-.98h.98v.98h-.98zm1.21 0v-.98h.98v.98h-.98zm-3.64-1.22v-.98h.97v.98h-.97zm4.86 0v-.98h.98v.98h-.98zm0-1.21v-.98h.98v.98h-.98zm-2.43-1.22v-.98h.98v.98h-.98zm1.21 0v-.98h.98v.98h-.98zm1.22-1.22v-.97h.98v.97h-.98zm-4.86-1.21v-.98h.97v.98h-.97zm4.86 0v-.98h.98v.98h-.98zm-3.65-1.22v-.98h.98v.98h-.98zm1.22 0v-.98h.98v.98h-.98zm1.21 0v-.98h.98v.98h-.98zM422.06 796.73v-.97h.98v.97h-.98zm0-1.21v-.98h.98v.98h-.98zm0-1.22v-.98h.98v.98h-.98zm0-1.21v-.98h.98v.98h-.98zm1.22 0v-.98h.98v.98h-.98zm1.21 0v-.98h.98v.98h-.98zm1.22 0v-.98h.98v.98h-.98zm-3.65-1.22v-.98h.98v.98h-.98zm4.87 0v-.98h.97v.98h-.97zm-4.87-1.21v-.98h.98v.98h-.98zm4.87 0v-.98h.97v.98h-.97zm-4.87-1.22v-.98h.98v.98h-.98zm1.22 0v-.98h.98v.98h-.98zm1.21 0v-.98h.98v.98h-.98zm1.22 0v-.98h.98v.98h-.98zm4.93 7.29v-.97h.98v.97h-.98zm0-1.21v-.98h.98v.98h-.98zm0-1.22v-.98h.98v.98h-.98zm0-1.21v-.98h.98v.98h-.98zm4.86 0v-.98h.98v.98h-.98zm-4.86-1.22v-.98h.98v.98h-.98zm1.22 0v-.98h.97v.98h-.97zm1.21 0v-.98h.98v.98h-.98zm1.22 0v-.98h.98v.98h-.98zm6.14 4.86v-.97h.98v.97h-.98zm1.22 0v-.97h.98v.97h-.98zm1.21 0v-.97h.98v.97h-.98zm1.22 0v-.97h.98v.97h-.98zm-4.86-1.21v-.98h.98v.98h-.98zm4.86 0v-.98h.98v.98h-.98zm-4.86-1.22v-.98h.98v.98h-.98zm4.86 0v-.98h.98v.98h-.98zm-4.86-1.21v-.98h.98v.98h-.98zm4.86 0v-.98h.98v.98h-.98zm-4.86-1.22v-.98h.98v.98h-.98zm4.86 0v-.98h.98v.98h-.98zm3.72 4.86v-.97h.97v.97h-.97zm1.21 0v-.97h.98v.97h-.98zm1.22 0v-.97h.98v.97h-.98zm1.21 0v-.97h.98v.97h-.98zm1.22-1.21v-.98h.98v.98h-.98zm-3.65-1.22v-.98h.98v.98h-.98zm1.22 0v-.98h.98v.98h-.98zm1.21 0v-.98h.98v.98h-.98zm-3.64-1.21v-.98h.97v.98h-.97zm1.21-1.22v-.98h.98v.98h-.98zm1.22 0v-.98h.98v.98h-.98zm1.21 0v-.98h.98v.98h-.98zm1.22 0v-.98h.98v.98h-.98zm4.93 4.86v-.97h.98v.97h-.98zm1.21 0v-.97h.98v.97h-.98zm1.22 0v-.97h.98v.97h-.98zm1.22 0v-.97h.98v.97h-.98zm-4.87-1.21v-.98h.98v.98h-.98zm4.87 0v-.98h.98v.98h-.98zm-3.65-1.22v-.98h.98v.98h-.98zm1.21 0v-.98h.98v.98h-.98zm1.22 0v-.98h.98v.98h-.98zm1.22 0v-.98h.98v.98h-.98zm0-1.21v-.98h.98v.98h-.98zm-3.65-1.22v-.98h.98v.98h-.98zm1.21 0v-.98h.98v.98h-.98zm1.22 0v-.98h.98v.98h-.98zm13.51 4.86v-.97h.98v.97h-.98zm4.86 0v-.97h.98v.97h-.98zm-4.86-1.21v-.98h.98v.98h-.98zm4.86 0v-.98h.98v.98h-.98zm-4.86-1.22v-.98h.98v.98h-.98zm4.86 0v-.98h.98v.98h-.98zm-4.86-1.21v-.98h.98v.98h-.98zm1.21 0v-.98h.98v.98h-.98zm1.22 0v-.98h.98v.98h-.98zm1.22 0v-.98h.98v.98h-.98zm-3.65-1.22v-.98h.98v.98h-.98zm4.86 0v-.98h.98v.98h-.98zm-4.86-1.21v-.98h.98v.98h-.98zm4.86 0v-.98h.98v.98h-.98zm-4.86-1.22v-.98h.98v.98h-.98zm1.21 0v-.98h.98v.98h-.98zm1.22 0v-.98h.98v.98h-.98zm1.22 0v-.98h.98v.98h-.98zm6.14 7.29v-.97h.98v.97h-.98zm1.22 0v-.97h.98v.97h-.98zm1.21 0v-.97h.98v.97h-.98zm-3.64-1.21v-.98h.97v.98h-.97zm0-1.22v-.98h.97v.98h-.97zm1.21 0v-.98h.98v.98h-.98zm1.22 0v-.98h.98v.98h-.98zm1.21 0v-.98h.98v.98h-.98zm1.22 0v-.98h.98v.98h-.98zm-4.86-1.21v-.98h.97v.98h-.97zm4.86 0v-.98h.98v.98h-.98zm-3.65-1.22v-.98h.98v.98h-.98zm1.22 0v-.98h.98v.98h-.98zm1.21 0v-.98h.98v.98h-.98zm4.93 4.86v-.97h.98v.97h-.98zm1.22 0v-.97h.98v.97h-.98zm1.22 0v-.97h.97v.97h-.97zm1.21 0v-.97h.98v.97h-.98zm1.22-1.21v-.98h.98v.98h-.98zm-3.65-1.22v-.98h.98v.98h-.98zm1.22 0v-.98h.97v.98h-.97zm1.21 0v-.98h.98v.98h-.98zm-3.65-1.21v-.98h.98v.98h-.98zm1.22-1.22v-.98h.98v.98h-.98zm1.22 0v-.98h.97v.98h-.97zm1.21 0v-.98h.98v.98h-.98zm1.22 0v-.98h.98v.98h-.98zm4.93 4.86v-.97h.98v.97h-.98zm1.21 0v-.97h.98v.97h-.98zm1.22 0v-.97h.98v.97h-.98zm-3.65-1.21v-.98h.98v.98h-.98zm0-1.22v-.98h.98v.98h-.98zm1.22 0v-.98h.98v.98h-.98zm1.21 0v-.98h.98v.98h-.98zm1.22 0v-.98h.98v.98h-.98zm1.22 0v-.98h.97v.98h-.97zm-4.87-1.21v-.98h.98v.98h-.98zm4.87 0v-.98h.97v.98h-.97zm-3.65-1.22v-.98h.98v.98h-.98zm1.21 0v-.98h.98v.98h-.98zm1.22 0v-.98h.98v.98h-.98zm6.14 4.86v-.97h.98v.97h-.98zm1.22 0v-.97h.98v.97h-.98zm1.22 0v-.97h.98v.97h-.98zm1.21 0v-.97h.98v.97h-.98zm-4.86-1.21v-.98h.98v.98h-.98zm4.86 0v-.98h.98v.98h-.98zm-3.65-1.22v-.98h.98v.98h-.98zm1.22 0v-.98h.98v.98h-.98zm1.22 0v-.98h.98v.98h-.98zm1.21 0v-.98h.98v.98h-.98zm0-1.21v-.98h.98v.98h-.98zm-3.65-1.22v-.98h.98v.98h-.98zm1.22 0v-.98h.98v.98h-.98zm1.22 0v-.98h.98v.98h-.98zm4.93 4.86v-.97h.98v.97h-.98zm0-1.21v-.98h.98v.98h-.98zm0-1.22v-.98h.98v.98h-.98zm0-1.21v-.98h.98v.98h-.98zm4.86 0v-.98h.98v.98h-.98zm-4.86-1.22v-.98h.98v.98h-.98zm1.21 0v-.98h.98v.98h-.98zm1.22 0v-.98h.98v.98h-.98zm1.21 0v-.98h.98v.98h-.98zm6.15 4.86v-.97h.98v.97h-.98zm1.22 0v-.97h.98v.97h-.98zm1.21 0v-.97h.98v.97h-.98zm-3.65-1.21v-.98h.98v.98h-.98zm0-1.22v-.98h.98v.98h-.98zm0-1.21v-.98h.98v.98h-.98zm4.87 0v-.98h.98v.98h-.98zm-3.65-1.22v-.98h.98v.98h-.98zm1.22 0v-.98h.98v.98h-.98zm1.21 0v-.98h.98v.98h-.98zm4.93 4.86v-.97h.98v.97h-.98zm4.87 0v-.97h.97v.97h-.97zm-4.87-1.21v-.98h.98v.98h-.98zm4.87 0v-.98h.97v.98h-.97zm-4.87-1.22v-.98h.98v.98h-.98zm4.87 0v-.98h.97v.98h-.97zm-4.87-1.21v-.98h.98v.98h-.98zm1.22 0v-.98h.98v.98h-.98zm1.21 0v-.98h.98v.98H536zm1.22 0v-.98h.98v.98h-.98zm-3.65-1.22v-.98h.98v.98h-.98zm0-1.21v-.98h.98v.98h-.98zm0-1.22v-.98h.98v.98h-.98z"/>
        <path class="fil31" d="M312.83 857.16h27.47l3.9-3.89h-31.37zM671.66 857.16h27.47l3.89-3.89h-31.36z"/>
        <path class="fil32" d="M308.94 853.27h3.89v3.89zM667.77 853.27h3.89v3.89z"/>
        <path class="fil0" d="M233.04 508.38h92.39v33.15h-92.39zM261.44 725.94H739.1v-2.4H261.44z"/>
        <g id="_2033266721488">
            <path class="fil25" d="M171.39 802.28h61.23v-37.99h-61.23z"/>
            <path class="fil0" d="M168.58 749.46h66.86v18.43h-2.82v-3.6h-61.23v3.6h-2.81v-18.43zm0 67.65h66.86v-18.42h-2.82v3.59h-61.23v-3.59h-2.81v18.42z"/>
            <path class="fil25" d="M245.51 817.11h-10.07v-18.42h10.07v18.42zm0-67.65h-10.07v18.43h10.07v-18.43z"/>
            <path class="fil25" d="M245.51 749.46h-10.07v18.43h10.07v-18.43zm0 67.65h-10.07v-18.42h10.07v18.42zm-87.01 0h10.08v-18.42H158.5v18.42zm0-67.65h10.08v18.43H158.5v-18.43z"/>
            <path class="fil9" d="M171.39 767.89H158.5v30.8h12.89v-30.8zm61.23 0h12.89v30.8h-12.89v-30.8z"/>
        </g>
        <g id="_2033266723536">
            <path class="fil25" d="M767.25 802.28h61.23v-37.99h-61.23z"/>
            <path class="fil0" d="M764.43 749.46h66.86v18.43h-2.81v-3.6h-61.23v3.6h-2.82v-18.43zm0 67.65h66.86v-18.42h-2.81v3.59h-61.23v-3.59h-2.82v18.42z"/>
            <path class="fil25" d="M841.37 817.11h-10.08v-18.42h10.08v18.42zm0-67.65h-10.08v18.43h10.08v-18.43z"/>
            <path class="fil25" d="M841.37 749.46h-10.08v18.43h10.08v-18.43zm0 67.65h-10.08v-18.42h10.08v18.42zm-87.01 0h10.07v-18.42h-10.07v18.42zm0-67.65h10.07v18.43h-10.07v-18.43z"/>
            <path class="fil9" d="M767.25 767.89h-12.89v30.8h12.89v-30.8zm61.23 0h12.89v30.8h-12.89v-30.8z"/>
        </g>
        <circle class="fil25" cx="89.19" cy="479.8" r="5.77"/>
        <path class="fil25" d="M259.57 481.43c0-16.13 20.89-29.19 46.67-29.19s46.67 13.06 46.67 29.19v14.82h-93.34v-14.82z"/>
        <path class="fil9" d="M306.24 525.44h-46.67v-29.19c0-16.12 20.9-29.19 46.67-29.19 25.77 0 46.67 13.07 46.67 29.19 0 5.15-2.14 9.98-5.88 14.18 2.62 1.17 4.33 3.09 4.33 5.25 0 3.56-4.61 6.44-10.29 6.44-3.04 0-5.78-.83-7.66-2.14-7.65 3.44-17.03 5.46-27.17 5.46z"/>
        <path class="fil0" d="M306.24 477.58c16.49 0 29.85 8.36 29.85 18.67 0 10.31-13.36 18.67-29.85 18.67-16.49 0-29.85-8.36-29.85-18.67 0-10.31 13.36-18.67 29.85-18.67zm0 4.72c12.32 0 22.3 6.24 22.3 13.95 0 7.7-9.98 13.95-22.3 13.95s-22.3-6.25-22.3-13.95c0-7.71 9.98-13.95 22.3-13.95z"/>
    </g>
</svg>
