<?xml version="1.0" encoding="UTF-8"?>
<!DOCTYPE svg PUBLIC "-//W3C//DTD SVG 1.1//EN" "http://www.w3.org/Graphics/SVG/1.1/DTD/svg11.dtd">
<!-- Creator: CorelDRAW 2017 -->
<svg xmlns="http://www.w3.org/2000/svg" xml:space="preserve" width="205.951mm" height="104.723mm" version="1.1" style="shape-rendering:geometricPrecision; text-rendering:geometricPrecision; image-rendering:optimizeQuality; fill-rule:evenodd; clip-rule:evenodd"
viewBox="0 0 20195.41 10269.02"
 xmlns:xlink="http://www.w3.org/1999/xlink">
 <defs>
  <style type="text/css">
   <![CDATA[
    .str0 {stroke:#2B2A29;stroke-width:19.61;stroke-miterlimit:22.9256}
    .fil0 {fill:none}
    .fil35 {fill:#FEFEFE}
    .fil22 {fill:#D9DADA}
    .fil28 {fill:#B2B3B3}
    .fil34 {fill:#898989}
    .fil7 {fill:#727271}
    .fil6 {fill:#5B5B5B}
    .fil5 {fill:#434242}
    .fil1 {fill:#2B2A29}
    .fil4 {fill:#EF7F1A}
    .fil36 {fill:#E31E24}
    .fil17 {fill:#9B531E}
    .fil25 {fill:#0A84C5}
    .fil26 {fill:#0D7DBF}
    .fil27 {fill:#009846}
    .fil29 {fill:black}
    .fil24 {fill:#E0BD3D}
    .fil23 {fill:#FEFEFE;fill-rule:nonzero}
    .fil33 {fill:#898989;fill-rule:nonzero}
    .fil19 {fill:#434242;fill-rule:nonzero}
    .fil2 {fill:#2B2A29;fill-rule:nonzero}
    .fil18 {fill:#9B531E;fill-rule:nonzero}
    .fil30 {fill:black;fill-rule:nonzero}
    .fil31 {fill:#75A928;fill-rule:nonzero}
    .fil32 {fill:#BC1142;fill-rule:nonzero}
    .fil21 {fill:url(#id0)}
    .fil10 {fill:url(#id1)}
    .fil20 {fill:url(#id2)}
    .fil14 {fill:url(#id3)}
    .fil16 {fill:url(#id4)}
    .fil12 {fill:url(#id5)}
    .fil9 {fill:url(#id6)}
    .fil15 {fill:url(#id7)}
    .fil13 {fill:url(#id8)}
    .fil3 {fill:url(#id9)}
    .fil8 {fill:url(#id10)}
    .fil11 {fill:url(#id11)}
   ]]>
  </style>
  <linearGradient id="id0" gradientUnits="userSpaceOnUse" x1="19529.18" y1="4459.87" x2="19245.57" y2="4459.87">
   <stop offset="0" style="stop-opacity:1; stop-color:#9B531E"/>
   <stop offset="1" style="stop-opacity:1; stop-color:#EF7F1A"/>
  </linearGradient>
  <linearGradient id="id1" gradientUnits="userSpaceOnUse" x1="15794.91" y1="3998.05" x2="15794.91" y2="3861.23">
   <stop offset="0" style="stop-opacity:1; stop-color:#C5C6C6"/>
   <stop offset="0.501961" style="stop-opacity:1; stop-color:#FEFEFE"/>
   <stop offset="1" style="stop-opacity:1; stop-color:#C3C4C4"/>
  </linearGradient>
  <linearGradient id="id2" gradientUnits="userSpaceOnUse" xlink:href="#id0" x1="10766.25" y1="4459.87" x2="11049.86" y2="4459.87">
  </linearGradient>
  <linearGradient id="id3" gradientUnits="userSpaceOnUse" xlink:href="#id1" x1="18852.67" y1="6031.33" x2="18989.5" y2="6031.33">
  </linearGradient>
  <linearGradient id="id4" gradientUnits="userSpaceOnUse" xlink:href="#id1" x1="18852.67" y1="2348.55" x2="18989.5" y2="2348.55">
  </linearGradient>
  <linearGradient id="id5" gradientUnits="userSpaceOnUse" xlink:href="#id1" x1="11326.03" y1="6031.33" x2="11462.85" y2="6031.33">
  </linearGradient>
  <linearGradient id="id6" gradientUnits="userSpaceOnUse" xlink:href="#id1" x1="11326.03" y1="2348.55" x2="11462.85" y2="2348.55">
  </linearGradient>
  <linearGradient id="id7" gradientUnits="userSpaceOnUse" xlink:href="#id1" x1="19197.25" y1="2442.7" x2="19334.08" y2="2442.7">
  </linearGradient>
  <linearGradient id="id8" gradientUnits="userSpaceOnUse" xlink:href="#id1" x1="19197.25" y1="6602.92" x2="19334.08" y2="6602.92">
  </linearGradient>
  <linearGradient id="id9" gradientUnits="userSpaceOnUse" xlink:href="#id1" x1="15794.91" y1="5028.64" x2="15794.91" y2="4891.82">
  </linearGradient>
  <linearGradient id="id10" gradientUnits="userSpaceOnUse" xlink:href="#id1" x1="10981.44" y1="2442.7" x2="11118.27" y2="2442.7">
  </linearGradient>
  <linearGradient id="id11" gradientUnits="userSpaceOnUse" xlink:href="#id1" x1="10981.44" y1="6602.92" x2="11118.27" y2="6602.92">
  </linearGradient>
 </defs>
 <g id="Layer_x0020_1">
  <metadata id="CorelCorpID_0Corel-Layer"/>
  <polygon class="fil0" points="-0,0 20195.41,0 20195.41,10269.02 -0,10269.02 "/>
  <g id="_1739180690656">
   <path class="fil1" d="M19312.17 8916.78l161.71 0 0 -685.48 -161.71 0 0 -7363.87 -8281.6 0 0 7363.87 -161.71 0 0 685.48 161.71 0 0 345.72 98.06 98.06 8085.48 0 98.06 -98.06 0 -345.72zm-1231.13 -7136.09l159.05 159.04 0 6296.03 -6137.43 0 0 -6296.04 159.46 -159.04 5818.92 0.01z"/>
   <polygon class="fil2" points="12973.9,4603.29 18615.92,4603.29 18615.92,4636.49 12973.9,4636.49 "/>
   <polygon class="fil2" points="12973.9,4346.81 18615.92,4346.81 18615.92,4380.01 12973.9,4380.01 "/>
   <polygon class="fil3" points="12973.9,5028.64 12973.9,4891.82 18615.92,4891.82 18615.92,5028.64 "/>
   <polygon class="fil4" points="11808.12,5193.34 12972.41,5193.34 12972.41,5611.1 11808.12,5611.1 "/>
   <polygon class="fil4" points="10818.11,1250.54 11916.45,1250.54 11916.45,867.42 10818.11,867.42 "/>
   <polygon class="fil4" points="18399.07,1250.54 19497.41,1250.54 19497.41,867.42 18399.07,867.42 "/>
   <polygon class="fil4" points="9806.29,4234.21 9806.29,4069.9 10074.4,3801.8 11622.44,3801.8 11622.44,3974.76 11272.18,3974.76 11215.86,4072.32 11215.86,5117.94 10766.25,5117.94 10766.25,4977.97 10493.84,4977.97 10493.84,4779.06 10670.02,4473.9 10477.46,4140.38 10108.99,4140.38 10054.23,4235.26 "/>
   <polygon class="fil1" points="9867.9,4234.48 9867.92,4901.85 9926.76,4960.68 10493.84,4960.68 10493.84,4779.06 10670.02,4473.9 10477.46,4140.38 10108.99,4140.38 10054.23,4235.26 "/>
   <polygon class="fil0" points="11714.37,3194.35 12752.17,3194.35 12752.17,4214.85 11714.37,4214.85 "/>
   <polygon class="fil1" points="12752.17,3619.35 12865.8,3619.35 12973.9,3727.45 12973.9,5193.34 11577.2,5193.34 11577.2,4393.37 11713.42,4393.37 11713.42,4214.85 11713.42,3194.35 12703.15,3194.35 12752.17,3243.38 "/>
   <path class="fil5" d="M12142.47 4853.7c0,-203.14 263.25,-367.82 588.04,-367.82 324.89,0 588.14,164.68 588.14,367.82l0 186.8 -1176.18 0 0 -186.8z"/>
   <path class="fil6" d="M12730.56 5408.31l-588.09 0 0 -367.81c0,-203.14 263.3,-367.82 588.09,-367.82 324.79,0 588.09,164.68 588.09,367.82 0,64.88 -26.9,125.81 -74.03,178.73 33,14.71 54.52,38.84 54.52,66.12 0,44.8 -58.08,81.13 -129.72,81.13 -38.31,0 -72.74,-10.39 -96.49,-26.92 -96.43,43.26 -214.64,68.74 -342.36,68.74z"/>
   <path class="fil1" d="M12730.56 4805.21c207.77,0 376.19,105.35 376.19,235.29 0,129.94 -168.43,235.28 -376.19,235.28 -207.77,0 -376.19,-105.35 -376.19,-235.28 0,-129.95 168.43,-235.29 376.19,-235.29zm0 59.5c155.23,0 281.07,78.7 281.07,175.79 0,97.08 -125.84,175.78 -281.07,175.78 -155.23,0 -281.07,-78.7 -281.07,-175.78 0,-97.09 125.84,-175.79 281.07,-175.79z"/>
   <path class="fil7" d="M10289.53 4303.4c97.91,0 177.29,79.38 177.29,177.29 0,97.91 -79.38,177.29 -177.29,177.29 -97.91,0 -177.29,-79.38 -177.29,-177.29 0,-97.91 79.38,-177.29 177.29,-177.29z"/>
   <path class="fil1" d="M10289.53 4424.48c31.05,0 56.21,25.16 56.21,56.21 0,31.05 -25.16,56.21 -56.21,56.21 -31.05,0 -56.21,-25.16 -56.21,-56.21 0,-31.05 25.16,-56.21 56.21,-56.21z"/>
   <polygon class="fil8" points="10981.44,1083.58 11118.27,1083.58 11118.27,3801.8 10981.44,3801.8 "/>
   <polygon class="fil9" points="11326.03,1018.72 11462.85,1018.72 11462.85,3678.37 11326.03,3678.37 "/>
   <polygon class="fil10" points="12973.9,3998.05 12973.9,3861.23 18615.92,3861.23 18615.92,3998.05 "/>
   <polygon class="fil6" points="11118.27,3667.55 11689.84,3667.55 11689.84,3801.8 11118.27,3801.8 "/>
   <polygon class="fil6" points="18625.69,3667.55 19197.25,3667.55 19197.25,3801.8 18625.69,3801.8 "/>
   <polygon class="fil11" points="10981.44,8087.9 11118.27,8087.9 11118.27,5117.94 10981.44,5117.94 "/>
   <polygon class="fil12" points="11326.03,8087.9 11462.85,8087.9 11462.85,3974.76 11326.03,3974.76 "/>
   <polygon class="fil4" points="12020.66,8231.29 10818.11,8231.29 10818.11,8087.9 12020.66,8087.9 "/>
   <polygon class="fil6" points="12165.96,7966.65 18185.18,7966.65 18185.18,8070.44 12165.96,8070.44 "/>
   <polygon class="fil4" points="19529.18,5117.94 18615.92,5117.94 18615.92,3801.8 19529.18,3801.8 "/>
   <polygon class="fil13" points="19334.08,8087.9 19197.25,8087.9 19197.25,5117.94 19334.08,5117.94 "/>
   <polygon class="fil14" points="18989.5,8087.9 18852.67,8087.9 18852.67,3974.76 18989.5,3974.76 "/>
   <polygon class="fil15" points="19334.08,1083.58 19197.25,1083.58 19197.25,3801.8 19334.08,3801.8 "/>
   <polygon class="fil16" points="18989.5,1018.72 18852.67,1018.72 18852.67,3678.37 18989.5,3678.37 "/>
   <path class="fil1" d="M12825.17 9413.47l-179.03 -179.02 0 -640.85 260.99 -452.05c1520.38,0.41 3039.22,0 4559.6,0l260.99 452.05 0 640.85 -179.03 179.02 -4723.54 0z"/>
   <polygon class="fil4" points="13208.85,8211.13 13208.85,9487.62 13264.51,9584.03 17230.31,9584.03 17286.33,9487 17286.33,8226.69 17201.25,8141.61 13277.6,8141.61 "/>
   <polygon class="fil4" points="19538.78,8231.29 18336.23,8231.29 18336.23,8087.9 19538.78,8087.9 "/>
   <polygon class="fil17" points="13277.6,8141.61 13277.6,9360.55 13312.75,9421.43 17216.25,9421.43 17289.51,9348.17 17286.33,9487 17230.31,9584.03 13264.51,9584.03 13208.85,9487.62 13208.85,8211.13 "/>
   <path class="fil18" d="M13663.18 9254.72c0,-32.4 13.73,-63.49 50.27,-63.49 36.54,0 50.28,31.09 50.28,63.49 0,30.83 -13.74,61.92 -50.28,61.92 -36.54,0 -50.27,-31.09 -50.27,-61.92zm-40.68 0c0,53.37 33.95,96.13 90.95,96.13 57.01,0 90.96,-42.75 90.96,-96.13 0,-54.94 -33.95,-97.7 -90.96,-97.7 -57,0 -90.95,42.75 -90.95,97.7zm250.32 -61.68l44.57 0c18.4,0 27.99,7.78 27.99,25.65 0,18.66 -9.59,26.44 -27.99,26.44l-44.57 0 0 -52.09zm-40.68 153.4l40.68 0 0 -72.3 40.68 0c20.46,0 27.99,8.55 30.83,27.99 2.08,14.78 1.81,32.65 6.48,44.31l40.68 0c-7.52,-10.11 -7,-32.13 -7.78,-43.79 -1.29,-18.92 -7,-37.83 -26.95,-43.27l0 -0.52c20.73,-8.29 29.28,-24.61 29.28,-46.38 0,-27.99 -20.99,-51.04 -54.16,-51.04l-99.77 0 0 185.01zm187.09 0l40.68 0 0 -185.01 -40.68 0 0 185.01zm214.29 0l25.92 0 0 -100.02 -77.74 0 0 30.32 40.95 0c-2.33,25.91 -17.37,39.9 -44.06,39.9 -36.54,0 -50.27,-31.09 -50.27,-61.92 0,-32.4 13.73,-63.49 50.27,-63.49 19.44,0 34.2,10.36 39.14,31.09l38.86 0c-4.15,-42.23 -40.17,-65.3 -78,-65.3 -57,0 -90.95,42.75 -90.95,97.7 0,53.37 33.95,96.13 90.95,96.13 17.89,0 36.28,-6.74 50.79,-25.39l4.14 20.98zm58.83 0l40.68 0 0 -185.01 -40.68 0 0 185.01zm76.44 0l38.1 0 0 -123.86 0.52 0 76.96 123.86 40.68 0 0 -185.01 -38.1 0 0 124.11 -0.52 0 -77.21 -124.11 -40.43 0 0 185.01zm262.75 -139.41l0.52 0 23.32 67.9 -47.93 0 24.09 -67.9zm-90.43 139.41l41.2 0 14.5 -41.2 69.19 0 13.99 41.2 42.23 0 -69.18 -185.01 -41.72 0 -70.22 185.01zm197.19 0l130.86 0 0 -34.2 -90.18 0 0 -150.81 -40.68 0 0 185.01z"/>
   <path class="fil18" d="M15009.91 9140.6l42.42 0c25.03,0 47.98,5.57 47.98,37.2 0,31.64 -22.95,37.2 -47.98,37.2l-42.42 0 0 -74.41zm-54.59 205.85l54.59 0 0 -89.02 57.36 0c62.25,0 85.89,-39.28 85.89,-79.62 0,-40.33 -23.64,-79.62 -85.89,-79.62l-111.95 0 0 248.27zm286.51 -205.85l59.81 0c24.68,0 37.55,10.43 37.55,34.43 0,25.03 -12.87,35.47 -37.55,35.47l-59.81 0 0 -69.9zm-54.59 205.85l54.59 0 0 -97.01 54.59 0c27.47,0 37.55,11.47 41.37,37.56 2.78,19.82 2.44,43.8 8.7,59.45l54.59 0c-10.08,-13.56 -9.38,-43.12 -10.43,-58.77 -1.74,-25.38 -9.38,-50.77 -36.16,-58.06l0 -0.7c27.82,-11.13 39.29,-33.04 39.29,-62.24 0,-37.56 -28.16,-68.5 -72.67,-68.5l-133.86 0 0 248.27zm461.75 -248.27l-54.59 0 0 154.38c0,37.2 -12.52,53.89 -51.46,53.89 -44.16,0 -51.12,-26.77 -51.12,-53.89l0 -154.38 -54.59 0 0 154.38c0,67.81 38.6,99.79 105.71,99.79 66.41,0 106.05,-32.68 106.05,-99.79l0 -154.38zm31.29 165.86c-1.04,61.2 50.77,88.32 105.71,88.32 67.8,0 103.27,-34.08 103.27,-79.62 0,-55.98 -55.29,-68.15 -73.71,-72.33 -62.25,-15.64 -74.06,-18.43 -74.06,-37.55 0,-20.87 20.16,-28.17 37.55,-28.17 26.43,0 47.29,8 49.03,37.56l52.85 0c0,-57.37 -47.64,-79.98 -99.44,-79.98 -44.86,0 -92.84,24 -92.84,75.11 0,45.89 37.2,61.54 74.06,70.58 36.16,10.08 73.71,13.9 73.71,41.03 0,25.38 -29.2,30.95 -48.33,30.95 -29.2,0 -54.93,-12.87 -54.93,-45.9l-52.85 0zm336.24 -104.66l0.7 0 31.29 91.1 -64.33 0 32.34 -91.1zm-121.35 187.07l55.29 0 19.46 -55.29 92.84 0 18.78 55.29 56.68 0 -92.84 -248.27 -55.98 0 -94.23 248.27z"/>
   <path class="fil19" d="M12388.53 1162.8l82.99 0c48.98,0 93.87,10.89 93.87,72.78 0,61.91 -44.89,72.79 -93.87,72.79l-82.99 0 0 -145.57zm-106.8 402.71l106.8 0 0 -174.15 112.23 0c121.78,0 168.03,-76.85 168.03,-155.78 0,-78.9 -46.25,-155.77 -168.03,-155.77l-219.03 0 0 485.7zm560.52 -402.71l117 0c48.28,0 73.46,20.42 73.46,67.36 0,48.97 -25.17,69.39 -73.46,69.39l-117 0 0 -136.74zm-106.8 402.71l106.8 0 0 -189.78 106.8 0c53.74,0 73.46,22.45 80.94,73.48 5.45,38.76 4.78,85.69 17.02,116.31l106.8 0c-19.72,-26.53 -18.37,-84.35 -20.42,-114.96 -3.39,-49.66 -18.36,-99.32 -70.75,-113.59l0 -1.36c54.42,-21.77 76.87,-64.63 76.87,-121.76 0,-73.48 -55.09,-134.02 -142.17,-134.02l-261.89 0 0 485.7zm903.36 -485.7l-106.8 0 0 302.03c0,72.78 -24.51,105.43 -100.68,105.43 -86.39,0 -100.01,-52.37 -100.01,-105.43l0 -302.03 -106.8 0 0 302.03c0,132.65 75.51,195.24 206.81,195.24 129.91,0 207.47,-63.94 207.47,-195.24l0 -302.03zm61.21 324.48c-2.03,119.72 99.32,172.79 206.81,172.79 132.64,0 202.03,-66.67 202.03,-155.78 0,-109.52 -108.16,-133.33 -144.21,-141.5 -121.78,-30.6 -144.9,-36.05 -144.9,-73.46 0,-40.82 39.44,-55.12 73.46,-55.12 51.71,0 92.53,15.66 95.92,73.48l103.4 0c0,-112.25 -93.2,-156.46 -194.55,-156.46 -87.76,0 -181.64,46.94 -181.64,146.95 0,89.78 72.79,120.4 144.9,138.09 70.75,19.72 144.21,27.2 144.21,80.26 0,49.65 -57.13,60.55 -94.56,60.55 -57.13,0 -107.47,-25.17 -107.47,-89.8l-103.4 0zm657.8 -204.76l1.36 0 61.22 178.22 -125.85 0 63.27 -178.22zm-237.4 365.98l108.16 0 38.09 -108.16 181.64 0 36.73 108.16 110.89 0 -181.64 -485.7 -109.52 0 -184.34 485.7z"/>
   <polygon class="fil20" points="10766.25,5117.94 11049.86,5117.94 11049.86,3801.8 10766.25,3801.8 "/>
   <polygon class="fil21" points="19529.18,5117.94 19245.57,5117.94 19245.57,3801.8 19529.18,3801.8 "/>
   <path class="fil1 str0" d="M16738.01 8817.18c123.54,0 223.68,-100.15 223.68,-223.68 0,-123.54 -100.15,-223.68 -223.68,-223.68 -123.54,0 -223.69,100.15 -223.69,223.68 0,123.54 100.16,223.68 223.69,223.68z"/>
   <path class="fil5" d="M16414.23 8637.54l190.35 -26.25 0.46 -0.07c17.66,61.02 73.94,105.62 140.65,105.62 26.41,0 51.18,-7 72.57,-19.23l124.17 146.33 39.65 -31.52 -123.52 -148.76c20.94,-25.32 33.53,-57.82 33.53,-93.23 0,-80.86 -65.54,-146.41 -146.4,-146.41 -76.82,0 -139.82,59.17 -145.92,134.41l-0.01 0 -185.53 24.2 0 54.9z"/>
   <polygon class="fil1" points="16414.23,8582.64 16322.73,8627.37 16322.73,8679.23 16414.23,8637.54 "/>
   <polygon class="fil1" points="16322.73,8679.23 16514.89,8652.79 16605.19,8611.75 16414.23,8637.54 "/>
   <polygon class="fil6" points="16942.44,8843.95 16995.3,8947.66 17034.2,8916.35 16982.09,8812.43 "/>
   <polygon class="fil1" points="16995.3,8947.66 16855.25,8784.02 16818.27,8697.61 16942.44,8843.95 "/>
   <polygon class="fil5" points="16837.2,8239.46 16756.88,8448.92 16800.6,8470.26 16883.97,8258.79 "/>
   <polygon class="fil5" points="16837.2,8239.46 16869.77,8189.66 16915.62,8208.19 16883.97,8258.79 "/>
   <polygon class="fil6" points="16915.62,8208.19 16843.4,8396.15 16812.47,8440.12 16883.97,8258.79 "/>
   <path class="fil22" d="M12277.92 3668.6c24.81,24.82 24.81,65.06 0,89.88 -24.82,24.81 -65.06,24.81 -89.88,0 -24.81,-24.82 -24.81,-65.06 0,-89.88 24.82,-24.81 65.06,-24.81 89.88,0zm-386.19 -399.04c28.38,28.37 28.38,74.37 0,102.74 -28.37,28.38 -74.37,28.38 -102.74,0 -28.38,-28.37 -28.38,-74.37 0,-102.74 28.37,-28.38 74.37,-28.38 102.74,0zm-102.74 887.97c-28.38,-28.37 -28.38,-74.37 0,-102.74 28.37,-28.38 74.37,-28.38 102.74,0 28.38,28.37 28.38,74.37 0,102.74 -28.37,28.38 -74.37,28.38 -102.74,0zm785.23 0c-28.38,-28.37 -28.38,-74.37 0,-102.74 28.37,-28.38 74.37,-28.38 102.74,0 28.38,28.37 28.38,74.37 0,102.74 -28.37,28.38 -74.37,28.38 -102.74,0zm102.74 -887.97c28.38,28.37 28.38,74.37 0,102.74 -28.37,28.38 -74.37,28.38 -102.74,0 -28.38,-28.37 -28.38,-74.37 0,-102.74 28.37,-28.38 74.37,-28.38 102.74,0zm-363.27 363.27c44.58,44.58 44.58,116.85 0,161.43 -44.58,44.58 -116.85,44.58 -161.43,0 -44.58,-44.58 -44.58,-116.85 0,-161.43 44.58,-44.58 116.85,-44.58 161.43,0zm-30.04 30.04c27.99,27.99 27.99,73.37 0,101.35 -27.99,27.99 -73.37,27.99 -101.35,0 -27.99,-27.99 -27.99,-73.37 0,-101.35 27.99,-27.99 73.37,-27.99 101.35,0z"/>
   <path class="fil23" d="M12024.5 3405.24l32.17 0c2.68,0 5.08,0.43 7.23,1.29 2.15,0.87 3.98,2.05 5.52,3.56 1.53,1.5 2.7,3.25 3.5,5.22 0.81,1.98 1.22,4.11 1.22,6.39 0,3.51 -0.74,6.55 -2.22,9.11 -1.47,2.56 -3.88,4.51 -7.23,5.84l0 0.17c1.62,0.45 2.95,1.13 4.01,2.05 1.06,0.92 1.92,2.01 2.59,3.26 0.68,1.26 1.16,2.64 1.46,4.14 0.3,1.51 0.52,3.01 0.63,4.51 0.06,0.95 0.12,2.07 0.17,3.34 0.06,1.28 0.16,2.59 0.29,3.93 0.14,1.33 0.36,2.61 0.68,3.79 0.3,1.21 0.76,2.22 1.37,3.06l-13.12 0c-0.73,-1.9 -1.17,-4.15 -1.33,-6.78 -0.17,-2.62 -0.42,-5.12 -0.76,-7.52 -0.44,-3.12 -1.39,-5.4 -2.84,-6.84 -1.44,-1.45 -3.81,-2.18 -7.1,-2.18l-13.12 0 0 23.32 -13.12 0 0 -59.67zm60.17 0l44.62 0 0 11.03 -31.51 0 0 12.79 28.92 0 0 10.2 -28.92 0 0 14.62 32.17 0 0 11.03 -45.28 0 0 -59.67zm86.18 39.53c-1.03,-1 -2.37,-1.84 -4.05,-2.51 -1.67,-0.67 -3.56,-1.26 -5.68,-1.76 -2.12,-0.5 -4.27,-1.06 -6.43,-1.67 -2.24,-0.56 -4.4,-1.24 -6.52,-2.05 -2.12,-0.8 -4.01,-1.85 -5.69,-3.13 -1.67,-1.28 -3.02,-2.88 -4.05,-4.8 -1.03,-1.93 -1.55,-4.26 -1.55,-6.98 0,-3.06 0.66,-5.73 1.97,-7.98 1.3,-2.26 3.02,-4.14 5.14,-5.64 2.12,-1.5 4.51,-2.62 7.19,-3.34 2.67,-0.73 5.34,-1.09 8.02,-1.09 3.12,0 6.11,0.35 8.98,1.05 2.86,0.7 5.41,1.82 7.65,3.38 2.23,1.56 3.99,3.55 5.31,5.97 1.3,2.43 1.96,5.36 1.96,8.82l-12.7 0c-0.12,-1.77 -0.49,-3.26 -1.13,-4.42 -0.65,-1.18 -1.5,-2.09 -2.55,-2.76 -1.06,-0.68 -2.27,-1.15 -3.64,-1.42 -1.36,-0.28 -2.85,-0.42 -4.47,-0.42 -1.06,0 -2.12,0.11 -3.18,0.33 -1.06,0.23 -2.02,0.62 -2.88,1.17 -0.86,0.56 -1.57,1.26 -2.13,2.09 -0.56,0.84 -0.83,1.9 -0.83,3.18 0,1.18 0.22,2.12 0.67,2.84 0.44,0.73 1.32,1.39 2.63,2 1.31,0.62 3.12,1.24 5.43,1.84 2.31,0.61 5.33,1.39 9.07,2.34 1.11,0.22 2.66,0.62 4.64,1.21 1.97,0.59 3.94,1.52 5.89,2.8 1.94,1.27 3.63,2.99 5.05,5.14 1.42,2.14 2.13,4.88 2.13,8.23 0,2.73 -0.53,5.27 -1.59,7.6 -1.06,2.34 -2.63,4.36 -4.72,6.06 -2.09,1.71 -4.68,3.02 -7.78,3.97 -3.09,0.95 -6.67,1.42 -10.74,1.42 -3.28,0 -6.47,-0.4 -9.56,-1.22 -3.09,-0.8 -5.82,-2.07 -8.19,-3.79 -2.37,-1.73 -4.26,-3.93 -5.65,-6.61 -1.39,-2.67 -2.06,-5.84 -2,-9.52l12.7 0c0,2.01 0.36,3.71 1.09,5.1 0.73,1.39 1.69,2.52 2.88,3.38 1.2,0.86 2.6,1.5 4.22,1.92 1.62,0.41 3.29,0.63 5.02,0.63 1.17,0 2.42,-0.1 3.76,-0.29 1.33,-0.2 2.59,-0.57 3.77,-1.13 1.17,-0.56 2.14,-1.32 2.92,-2.29 0.77,-0.98 1.17,-2.22 1.17,-3.73 0,-1.61 -0.52,-2.92 -1.55,-3.92zm21.86 -39.53l44.62 0 0 11.03 -31.51 0 0 12.79 28.92 0 0 10.2 -28.92 0 0 14.62 32.17 0 0 11.03 -45.28 0 0 -59.67zm70.27 0l13.45 0 22.31 59.67 -13.61 0 -4.52 -13.29 -22.31 0 -4.68 13.29 -13.21 0 22.56 -59.67zm40.78 0l32.16 0c2.68,0 5.09,0.43 7.23,1.29 2.15,0.87 3.99,2.05 5.52,3.56 1.53,1.5 2.7,3.25 3.51,5.22 0.8,1.98 1.21,4.11 1.21,6.39 0,3.51 -0.74,6.55 -2.21,9.11 -1.48,2.56 -3.89,4.51 -7.24,5.84l0 0.17c1.62,0.45 2.96,1.13 4.01,2.05 1.06,0.92 1.93,2.01 2.6,3.26 0.67,1.26 1.16,2.64 1.46,4.14 0.3,1.51 0.51,3.01 0.63,4.51 0.05,0.95 0.11,2.07 0.17,3.34 0.05,1.28 0.15,2.59 0.29,3.93 0.14,1.33 0.35,2.61 0.67,3.79 0.3,1.21 0.76,2.22 1.37,3.06l-13.12 0c-0.72,-1.9 -1.17,-4.15 -1.33,-6.78 -0.17,-2.62 -0.42,-5.12 -0.76,-7.52 -0.44,-3.12 -1.39,-5.4 -2.83,-6.84 -1.45,-1.45 -3.81,-2.18 -7.1,-2.18l-13.13 0 0 23.32 -13.11 0 0 -59.67zm59.57 17.68c1.34,-3.81 3.27,-7.15 5.77,-9.99 2.51,-2.83 5.59,-5.07 9.24,-6.68 3.65,-1.62 7.76,-2.43 12.33,-2.43 3.28,0 6.39,0.48 9.32,1.42 2.92,0.95 5.54,2.33 7.85,4.14 2.31,1.81 4.22,4.05 5.73,6.73 1.5,2.68 2.45,5.74 2.83,9.19l-12.7 0c-0.23,-1.5 -0.73,-2.87 -1.5,-4.13 -0.78,-1.26 -1.76,-2.35 -2.93,-3.3 -1.17,-0.95 -2.49,-1.69 -3.96,-2.22 -1.48,-0.53 -3.02,-0.79 -4.64,-0.79 -2.95,0 -5.46,0.58 -7.52,1.72 -2.06,1.14 -3.74,2.68 -5.02,4.6 -1.27,1.92 -2.21,4.11 -2.79,6.56 -0.58,2.45 -0.87,4.98 -0.87,7.6 0,2.51 0.29,4.94 0.87,7.32 0.59,2.36 1.52,4.5 2.79,6.38 1.28,1.9 2.96,3.42 5.02,4.56 2.06,1.14 4.57,1.72 7.52,1.72 4.01,0 7.14,-1.23 9.39,-3.68 2.27,-2.45 3.64,-5.69 4.14,-9.7l12.7 0c-0.32,3.74 -1.2,7.1 -2.58,10.11 -1.4,3.01 -3.24,5.57 -5.52,7.69 -2.28,2.12 -4.96,3.74 -8.02,4.85 -3.07,1.11 -6.43,1.67 -10.11,1.67 -4.57,0 -8.68,-0.79 -12.33,-2.38 -3.65,-1.59 -6.73,-3.78 -9.24,-6.56 -2.5,-2.78 -4.42,-6.06 -5.77,-9.82 -1.33,-3.77 -2,-7.82 -2,-12.16 0,-4.45 0.67,-8.59 2,-12.4zm62.34 -17.68l13.12 0 0 22.9 24.15 0 0 -22.9 13.12 0 0 59.67 -13.12 0 0 -25.74 -24.15 0 0 25.74 -13.12 0 0 -59.67zm-427.36 89.37l503.84 0 0 -120.07 -503.84 0 0 120.07z"/>
   <path class="fil23" d="M12021.98 3274.21l18.11 0c2.69,-0.01 5.26,0.2 7.74,0.59 2.47,0.39 4.65,1.18 6.54,2.31 1.87,1.14 3.38,2.75 4.53,4.82 1.14,2.08 1.7,4.8 1.7,8.17 0,3.36 -0.57,6.09 -1.71,8.16 -1.14,2.1 -2.65,3.71 -4.52,4.84 -1.89,1.14 -4.06,1.89 -6.54,2.29 -2.48,0.4 -5.05,0.6 -7.73,0.6l-18.12 -0.01 0 -31.78zm448.78 262.24l5.89 -17.87 5.74 17.87 -11.63 0zm0.62 -28.26l-16.22 45.43 9.93 0 3.08 -9.35 16.74 0 2.99 9.35 10.31 0 -16.08 -45.43 -10.75 0zm-23.72 22.87c-1.75,-1.37 -4.35,-2.47 -7.85,-3.29l-7.96 -1.89c-3.08,-0.72 -5.1,-1.33 -6.05,-1.87 -1.47,-0.79 -2.21,-2.02 -2.21,-3.64 0,-1.76 0.75,-3.15 2.25,-4.13 1.49,-0.99 3.5,-1.48 5.99,-1.48 2.27,0 4.15,0.37 5.67,1.15 2.27,1.15 3.49,3.09 3.66,5.81l9.14 0c-0.18,-4.81 -1.96,-8.51 -5.39,-11.05 -3.41,-2.54 -7.55,-3.79 -12.4,-3.79 -5.81,-0.01 -10.2,1.33 -13.19,4.04 -3.01,2.68 -4.5,6.07 -4.5,10.14 0,4.45 1.54,7.73 4.59,9.84 1.81,1.25 5.13,2.41 9.97,3.47l4.91 1.09c2.88,0.61 4.98,1.32 6.31,2.12 1.33,0.83 1.99,1.98 1.99,3.49 0.01,2.57 -1.34,4.32 -4.06,5.27 -1.41,0.5 -3.28,0.75 -5.57,0.75 -3.81,0 -6.51,-0.95 -8.09,-2.81 -0.86,-1.01 -1.44,-2.58 -1.73,-4.65l-9.07 0c0.02,4.73 1.73,8.45 5.15,11.13 3.43,2.72 8.13,4.07 14.11,4.07 5.86,-0.01 10.39,-1.37 13.62,-4.12 3.19,-2.75 4.8,-6.2 4.8,-10.34 -0.01,-4.04 -1.35,-7.16 -4.08,-9.29zm-50.16 5.04c0,3.13 -0.37,5.39 -1.12,6.82 -1.14,2.55 -3.62,3.82 -7.45,3.83 -3.83,-0.01 -6.34,-1.28 -7.48,-3.82 -0.75,-1.45 -1.12,-3.72 -1.12,-6.83l0 -27.92 -9.64 -0.01 0 27.95c0,4.82 0.74,8.58 2.25,11.28 2.8,4.93 8.15,7.39 16,7.4 7.84,0 13.17,-2.47 15.96,-7.39 1.51,-2.71 2.25,-6.46 2.26,-11.28l-0.01 -27.94 -9.65 -0.01 0 27.92zm-48.13 -8.55c-1.02,0.49 -2.54,0.73 -4.57,0.75l-10.22 -0.02 0.01 -12.2 10.47 0.01c1.95,-0.01 3.42,0.25 4.38,0.79 1.74,0.94 2.61,2.79 2.62,5.55 0,2.55 -0.9,4.25 -2.7,5.12zm11.21 22.34c-0.17,-0.74 -0.27,-2.14 -0.25,-4.22l0 -3.06c0,-3.18 -0.45,-5.54 -1.31,-7.1 -0.87,-1.56 -2.35,-2.76 -4.45,-3.6 2.51,-0.85 4.3,-2.32 5.39,-4.4 1.09,-2.1 1.63,-4.23 1.64,-6.37 0,-1.78 -0.28,-3.38 -0.83,-4.78 -0.57,-1.4 -1.32,-2.68 -2.29,-3.82 -1.17,-1.4 -2.59,-2.46 -4.25,-3.19 -1.69,-0.71 -4.07,-1.09 -7.18,-1.17l-21.73 0 0 45.44 9.29 0.01 -0.02 -17.84 9.28 0.02c2.65,0 4.45,0.47 5.42,1.43 0.96,0.96 1.46,2.9 1.49,5.81l0.06 4.23c0.04,1.33 0.16,2.64 0.4,3.9 0.13,0.63 0.33,1.43 0.63,2.44l10.48 0 0 -1.14c-0.92,-0.56 -1.5,-1.42 -1.76,-2.6zm-54.34 -22.07c-1.21,1.1 -2.89,1.65 -5.05,1.64l-8.56 0 0.01 -13.38 8.54 0c2.18,0 3.87,0.51 5.06,1.51 1.21,1 1.81,2.7 1.8,5.06 0,2.35 -0.62,4.08 -1.8,5.17zm7.23 -16.11c-2.67,-2.35 -6.26,-3.51 -10.76,-3.51l-19.51 -0.01 0.01 45.44 9.42 0 0 -16.34 9.46 0c4.94,0 8.74,-1.1 11.39,-3.32 2.66,-2.24 4,-6.02 4.01,-11.37 -0.01,-4.91 -1.36,-8.55 -4.03,-10.88zm-86.59 41.92l9.42 0 0.02 -19.05 20.13 0.01 -0.01 -7.9 -20.14 0 0 -10.44 22.97 0 0 -7.98 -32.4 -0.01 0.01 45.38zm-32.55 -19.84l22.06 -0.02 0 -7.89 -22.07 0.01 0 -9.65 24.04 0 0 -8.04 -33.33 -0.01 0 45.44 34.44 0 0 -8.17 -25.16 0 0.02 -11.67zm-20.29 -2.73c-1.75,-1.37 -4.36,-2.47 -7.85,-3.29l-7.98 -1.88c-3.08,-0.72 -5.09,-1.34 -6.04,-1.87 -1.48,-0.8 -2.21,-2.02 -2.21,-3.65 0,-1.77 0.76,-3.14 2.24,-4.14 1.5,-0.98 3.51,-1.47 6.01,-1.47 2.26,0 4.15,0.38 5.66,1.14 2.27,1.16 3.49,3.1 3.67,5.83l9.12 0c-0.17,-4.84 -1.95,-8.52 -5.37,-11.06 -3.44,-2.52 -7.56,-3.8 -12.4,-3.8 -5.81,0 -10.22,1.35 -13.2,4.05 -3.01,2.69 -4.5,6.07 -4.49,10.14 0,4.45 1.51,7.74 4.59,9.83 1.8,1.26 5.13,2.41 9.95,3.48l4.93 1.08c2.87,0.62 4.98,1.33 6.31,2.13 1.31,0.83 1.99,1.98 1.99,3.49 0,2.56 -1.35,4.32 -4.07,5.27 -1.43,0.49 -3.28,0.74 -5.56,0.75 -3.83,0 -6.52,-0.93 -8.1,-2.81 -0.86,-1.02 -1.43,-2.57 -1.73,-4.67l-9.07 0.02c0,4.73 1.72,8.43 5.15,11.15 3.42,2.69 8.13,4.04 14.12,4.06 5.85,-0.02 10.38,-1.38 13.59,-4.13 3.22,-2.75 4.81,-6.2 4.82,-10.34 0,-4.06 -1.36,-7.14 -4.07,-9.29zm-51.45 11.62c-2.21,2.78 -5.19,4.15 -8.95,4.16 -3.76,0.01 -6.76,-1.38 -8.99,-4.16 -2.25,-2.77 -3.35,-6.72 -3.37,-11.84 0.01,-5.11 1.13,-9.07 3.37,-11.84 2.24,-2.78 5.24,-4.17 9,-4.17 3.77,0 6.74,1.4 8.95,4.19 2.21,2.78 3.31,6.72 3.31,11.82 0,5.12 -1.12,9.07 -3.32,11.84zm-8.94 -35.88c-6.49,-0.01 -11.47,1.77 -14.89,5.3 -4.61,4.18 -6.91,10.42 -6.91,18.74 0.01,8.16 2.29,14.4 6.9,18.76 3.42,3.53 8.4,5.3 14.89,5.29 6.5,0.02 11.46,-1.76 14.89,-5.31 4.59,-4.32 6.89,-10.58 6.89,-18.73 -0.02,-8.32 -2.29,-14.57 -6.87,-18.75 -3.44,-3.52 -8.4,-5.31 -14.9,-5.3zm-39.65 33.17c-0.01,2.2 -0.21,3.76 -0.61,4.69 -0.68,1.56 -2.07,2.33 -4.18,2.33 -2.13,0 -3.51,-0.72 -4.15,-2.14 -0.66,-1.44 -1.02,-3.9 -1.09,-7.42l0 -1.04 -8.96 0 -0.01 1.05c0,5.33 0.98,9.56 2.96,12.65 1.96,3.1 5.82,4.64 11.59,4.64 5.78,0.01 9.77,-1.91 11.96,-5.73 1.31,-2.27 1.96,-5.32 1.96,-9.19l0 -31.62 -9.49 -0.01 0.01 31.79zm-42.97 7.94l-4.74 -16.03 -6.34 0 8 22.7c0.05,0.15 -0.08,0.6 -0.37,1.31 -0.29,0.73 -0.6,1.2 -0.93,1.41 -0.34,0.25 -0.76,0.4 -1.27,0.45 -0.5,0.09 -1.04,0.1 -1.59,0.07l-0.73 -0.04 0 4.56c0.63,0.03 1.08,0.06 1.38,0.07 0.29,0 0.72,0 1.21,0.01 2.52,0 4.21,-0.5 5.04,-1.49 0.83,-1 1.98,-3.55 3.42,-7.67l7.45 -21.4 -6.04 0.02 -4.49 16.02zm-19.97 -0.18c-0.81,1.17 -1.95,1.77 -3.43,1.78 -1.7,-0.01 -2.98,-0.63 -3.79,-1.83 -0.83,-1.24 -1.26,-2.78 -1.26,-4.63 0.01,-1.59 0.2,-2.88 0.61,-3.86 0.76,-1.89 2.21,-2.83 4.28,-2.82 2.06,0.01 3.47,0.96 4.23,2.86 0.4,1.02 0.61,2.28 0.61,3.82 0,1.94 -0.4,3.5 -1.24,4.68zm-2 -16.35c-1.6,0.02 -2.9,0.35 -3.93,1.02 -0.87,0.52 -1.67,1.29 -2.39,2.29l0 -10.45 -5.69 0.01 0.01 29.36 5.59 0 0.01 -2.74c0.76,1.07 1.47,1.81 2.15,2.24 1.07,0.72 2.53,1.08 4.32,1.08 2.87,0 5.14,-1.11 6.73,-3.32 1.6,-2.23 2.41,-5.03 2.39,-8.4 0,-3.26 -0.8,-5.91 -2.43,-7.99 -1.63,-2.05 -3.87,-3.09 -6.76,-3.09zm260.62 -111.44l-0.19 0 -7.76 21.89 15.45 0 -7.51 -21.89zm68.35 10.29c1.5,-1.34 2.25,-3.52 2.25,-6.53 0,-2.88 -0.74,-5 -2.25,-6.3 -1.51,-1.31 -3.77,-1.97 -6.77,-1.96l-14.38 -0.01 0 16.8 14.38 -0.01c3,0 5.26,-0.67 6.77,-1.99zm-279.26 -0.01c1.5,-1.34 2.26,-3.5 2.26,-6.52 0,-2.89 -0.75,-5 -2.26,-6.31 -1.5,-1.3 -3.77,-1.95 -6.78,-1.96l-14.36 0 -0.02 16.79 14.38 0c3.02,0 5.27,-0.66 6.78,-2zm392.09 -147.99l0.28 0 13.38 38.92 -27.47 0 13.81 -38.92zm-19.92 56.31l39.66 0 8.02 23.62 24.21 0 -39.65 -106.07 -23.94 0 -40.11 106.06 23.49 0 8.31 -23.61zm-64.03 5.49c-2.08,1 -4.29,1.67 -6.68,2.01 -2.37,0.34 -4.6,0.52 -6.67,0.53 -3.08,-0.02 -6.05,-0.38 -8.92,-1.14 -2.88,-0.73 -5.37,-1.87 -7.51,-3.4 -2.13,-1.55 -3.83,-3.53 -5.12,-6.02 -1.28,-2.47 -1.93,-5.49 -1.93,-9.06l-22.58 0c-0.1,6.54 1.09,12.19 3.57,16.93 2.49,4.76 5.81,8.69 10.04,11.74 4.2,3.07 9.04,5.33 14.54,6.78 5.51,1.42 11.17,2.16 17.01,2.15 7.22,-0.01 13.59,-0.84 19.09,-2.52 5.49,-1.69 10.09,-4.04 13.82,-7.07 3.72,-3.01 6.51,-6.6 8.37,-10.76 1.88,-4.17 2.84,-8.67 2.84,-13.51 -0.01,-5.95 -1.27,-10.84 -3.79,-14.64 -2.53,-3.81 -5.53,-6.86 -9,-9.14 -3.46,-2.27 -6.94,-3.93 -10.46,-4.98 -3.52,-1.04 -6.26,-1.76 -8.24,-2.15 -6.64,-1.69 -12.02,-3.08 -16.12,-4.16 -4.12,-1.1 -7.33,-2.19 -9.66,-3.27 -2.31,-1.1 -3.89,-2.28 -4.67,-3.57 -0.8,-1.29 -1.21,-2.97 -1.2,-5.06 0,-2.27 0.49,-4.15 1.47,-5.63 1,-1.5 2.27,-2.74 3.8,-3.72 1.53,-1.01 3.25,-1.69 5.12,-2.09 1.87,-0.4 3.76,-0.61 5.65,-0.59 2.86,0 5.51,0.25 7.94,0.75 2.43,0.48 4.57,1.33 6.46,2.52 1.88,1.19 3.39,2.81 4.54,4.9 1.14,2.08 1.8,4.71 2,7.85l22.58 0.02c-0.01,-6.14 -1.19,-11.37 -3.5,-15.67 -2.32,-4.3 -5.46,-7.85 -9.43,-10.63 -3.95,-2.77 -8.48,-4.78 -13.59,-6.01 -5.1,-1.24 -10.43,-1.86 -15.96,-1.85 -4.76,0 -9.51,0.64 -14.26,1.92 -4.76,1.28 -9.02,3.28 -12.78,5.95 -3.78,2.67 -6.81,6.01 -9.15,10.01 -2.31,4.02 -3.48,8.75 -3.48,14.2 -0.01,4.84 0.91,8.98 2.75,12.4 1.84,3.41 4.24,6.26 7.2,8.54 2.98,2.28 6.34,4.13 10.11,5.56 3.77,1.45 7.63,2.66 11.59,3.66 3.85,1.08 7.67,2.06 11.42,2.96 3.78,0.89 7.14,1.92 10.11,3.11 2.98,1.21 5.37,2.68 7.21,4.47 1.83,1.77 2.74,4.1 2.75,6.98 0.01,2.67 -0.71,4.87 -2.06,6.6 -1.4,1.74 -3.13,3.1 -5.23,4.09zm-117.8 20.5c14.18,0 25.26,-3.5 33.29,-10.47 8.02,-6.98 12.02,-17.65 12.02,-32.02l0 -65.95 -23.32 0 0 65.95c0,7.92 -1.59,13.75 -4.75,17.44 -3.18,3.72 -8.92,5.57 -17.25,5.59 -4.76,-0.02 -8.53,-0.67 -11.35,-2.02 -2.83,-1.32 -5.03,-3.07 -6.62,-5.2 -1.58,-2.13 -2.63,-4.57 -3.13,-7.34 -0.49,-2.78 -0.74,-5.6 -0.74,-8.47l0 -65.95 -23.33 -0.01 0.01 65.96c0,14.44 3.92,25.15 11.81,32.09 7.86,6.92 18.99,10.39 33.34,10.39zm-128.33 -90.33l25.54 0c5.34,0.01 9.35,1.17 12.02,3.5 2.69,2.32 4.03,6.06 4.01,11.21 0,5.35 -1.32,9.22 -4.01,11.59 -2.68,2.39 -6.68,3.57 -12.02,3.58l-25.54 -0.02 0 -29.86zm0 46.52l23.32 -0.01c5.82,-0.01 10.05,1.27 12.63,3.85 2.57,2.57 4.25,6.64 5.05,12.19 0.59,4.27 1.03,8.72 1.32,13.37 0.31,4.66 1.1,8.67 2.38,12.03l23.32 0c-1.09,-1.48 -1.9,-3.29 -2.45,-5.42 -0.54,-2.13 -0.92,-4.38 -1.18,-6.76 -0.26,-2.38 -0.43,-4.71 -0.53,-6.98 -0.11,-2.27 -0.2,-4.26 -0.29,-5.94 -0.2,-2.67 -0.57,-5.35 -1.12,-8.01 -0.54,-2.69 -1.4,-5.14 -2.6,-7.37 -1.2,-2.21 -2.72,-4.16 -4.6,-5.79 -1.89,-1.63 -4.26,-2.84 -7.14,-3.64l0 -0.3c5.95,-2.36 10.24,-5.83 12.86,-10.39 2.61,-4.54 3.94,-9.94 3.94,-16.2 -0.01,-4.06 -0.74,-7.83 -2.16,-11.36 -1.44,-3.51 -3.51,-6.6 -6.25,-9.29 -2.73,-2.67 -6,-4.78 -9.8,-6.32 -3.81,-1.54 -8.09,-2.29 -12.87,-2.29l-57.18 0 -0.01 106.07 23.34 -0.01 0 -41.43zm-98.79 3.4l24.51 0.01c6.65,-0.01 12.29,-0.98 16.94,-2.9 4.65,-1.93 8.43,-4.49 11.37,-7.65 2.91,-3.17 5.05,-6.81 6.39,-10.91 1.32,-4.12 2,-8.3 1.99,-12.56 0,-4.35 -0.67,-8.56 -2.01,-12.62 -1.32,-4.07 -3.46,-7.69 -6.37,-10.85 -2.93,-3.17 -6.72,-5.73 -11.37,-7.66 -4.65,-1.92 -10.31,-2.89 -16.93,-2.9l-47.84 0.01 0.01 106.06 23.32 0 0 -38.03z"/>
   <polygon class="fil24" points="12455.29,5611.1 12571.92,5611.1 12513.6,5669.42 "/>
   <polygon class="fil25" points="13816.27,8398.95 16042.34,8398.95 16042.34,9006.05 13816.27,9006.05 "/>
   <path class="fil26" d="M13855.72 8436.99l94.25 0 0 125.4 -94.25 0 0 -125.4zm2052.93 405.61l94.25 0 0 125.4 -94.25 0 0 -125.4zm0 -135.2l94.25 0 0 125.4 -94.25 0 0 -125.4zm0 -135.2l94.25 0 0 125.4 -94.25 0 0 -125.4zm0 -135.2l94.25 0 0 125.4 -94.25 0 0 -125.4zm-108.05 405.61l94.25 0 0 125.4 -94.25 0 0 -125.4zm0 -135.2l94.25 0 0 125.4 -94.25 0 0 -125.4zm0 -135.2l94.25 0 0 125.4 -94.25 0 0 -125.4zm0 -135.2l94.25 0 0 125.4 -94.25 0 0 -125.4zm-108.05 405.61l94.26 0 0 125.4 -94.26 0 0 -125.4zm0 -135.2l94.26 0 0 125.4 -94.26 0 0 -125.4zm0 -135.2l94.26 0 0 125.4 -94.26 0 0 -125.4zm0 -135.2l94.26 0 0 125.4 -94.26 0 0 -125.4zm-108.05 405.61l94.26 0 0 125.4 -94.26 0 0 -125.4zm0 -135.2l94.26 0 0 125.4 -94.26 0 0 -125.4zm0 -135.2l94.26 0 0 125.4 -94.26 0 0 -125.4zm0 -135.2l94.26 0 0 125.4 -94.26 0 0 -125.4zm-108.04 405.61l94.25 0 0 125.4 -94.25 0 0 -125.4zm0 -135.2l94.25 0 0 125.4 -94.25 0 0 -125.4zm0 -135.2l94.25 0 0 125.4 -94.25 0 0 -125.4zm0 -135.2l94.25 0 0 125.4 -94.25 0 0 -125.4zm-108.05 405.61l94.25 0 0 125.4 -94.25 0 0 -125.4zm0 -135.2l94.25 0 0 125.4 -94.25 0 0 -125.4zm0 -135.2l94.25 0 0 125.4 -94.25 0 0 -125.4zm0 -135.2l94.25 0 0 125.4 -94.25 0 0 -125.4zm-108.05 405.61l94.26 0 0 125.4 -94.26 0 0 -125.4zm0 -135.2l94.26 0 0 125.4 -94.26 0 0 -125.4zm0 -135.2l94.26 0 0 125.4 -94.26 0 0 -125.4zm0 -135.2l94.26 0 0 125.4 -94.26 0 0 -125.4zm-108.04 405.61l94.25 0 0 125.4 -94.25 0 0 -125.4zm0 -135.2l94.25 0 0 125.4 -94.25 0 0 -125.4zm0 -135.2l94.25 0 0 125.4 -94.25 0 0 -125.4zm0 -135.2l94.25 0 0 125.4 -94.25 0 0 -125.4zm-108.05 405.61l94.25 0 0 125.4 -94.25 0 0 -125.4zm0 -135.2l94.25 0 0 125.4 -94.25 0 0 -125.4zm0 -135.2l94.25 0 0 125.4 -94.25 0 0 -125.4zm0 -135.2l94.25 0 0 125.4 -94.25 0 0 -125.4zm-108.05 405.61l94.26 0 0 125.4 -94.26 0 0 -125.4zm0 -135.2l94.26 0 0 125.4 -94.26 0 0 -125.4zm0 -135.2l94.26 0 0 125.4 -94.26 0 0 -125.4zm0 -135.2l94.26 0 0 125.4 -94.26 0 0 -125.4zm-108.05 405.61l94.26 0 0 125.4 -94.26 0 0 -125.4zm0 -135.2l94.26 0 0 125.4 -94.26 0 0 -125.4zm0 -135.2l94.26 0 0 125.4 -94.26 0 0 -125.4zm0 -135.2l94.26 0 0 125.4 -94.26 0 0 -125.4zm-108.04 405.61l94.25 0 0 125.4 -94.25 0 0 -125.4zm0 -135.2l94.25 0 0 125.4 -94.25 0 0 -125.4zm0 -135.2l94.25 0 0 125.4 -94.25 0 0 -125.4zm0 -135.2l94.25 0 0 125.4 -94.25 0 0 -125.4zm-108.05 405.61l94.25 0 0 125.4 -94.25 0 0 -125.4zm0 -135.2l94.25 0 0 125.4 -94.25 0 0 -125.4zm0 -135.2l94.25 0 0 125.4 -94.25 0 0 -125.4zm0 -135.2l94.25 0 0 125.4 -94.25 0 0 -125.4zm-108.05 405.61l94.26 0 0 125.4 -94.26 0 0 -125.4zm0 -135.2l94.26 0 0 125.4 -94.26 0 0 -125.4zm0 -135.2l94.26 0 0 125.4 -94.26 0 0 -125.4zm0 -135.2l94.26 0 0 125.4 -94.26 0 0 -125.4zm-108.04 405.61l94.25 0 0 125.4 -94.25 0 0 -125.4zm0 -135.2l94.25 0 0 125.4 -94.25 0 0 -125.4zm0 -135.2l94.25 0 0 125.4 -94.25 0 0 -125.4zm0 -135.2l94.25 0 0 125.4 -94.25 0 0 -125.4zm-108.05 405.61l94.25 0 0 125.4 -94.25 0 0 -125.4zm0 -135.2l94.25 0 0 125.4 -94.25 0 0 -125.4zm0 -135.2l94.25 0 0 125.4 -94.25 0 0 -125.4zm0 -135.2l94.25 0 0 125.4 -94.25 0 0 -125.4zm-108.05 405.61l94.26 0 0 125.4 -94.26 0 0 -125.4zm0 -135.2l94.26 0 0 125.4 -94.26 0 0 -125.4zm0 -135.2l94.26 0 0 125.4 -94.26 0 0 -125.4zm0 -135.2l94.26 0 0 125.4 -94.26 0 0 -125.4zm-108.05 405.61l94.26 0 0 125.4 -94.26 0 0 -125.4zm0 -135.2l94.26 0 0 125.4 -94.26 0 0 -125.4zm0 -135.2l94.26 0 0 125.4 -94.26 0 0 -125.4zm0 -135.2l94.26 0 0 125.4 -94.26 0 0 -125.4zm-108.04 405.61l94.25 0 0 125.4 -94.25 0 0 -125.4zm0 -135.2l94.25 0 0 125.4 -94.25 0 0 -125.4zm0 -135.2l94.25 0 0 125.4 -94.25 0 0 -125.4zm0 -135.2l94.25 0 0 125.4 -94.25 0 0 -125.4zm-108.05 405.61l94.25 0 0 125.4 -94.25 0 0 -125.4zm0 -135.2l94.25 0 0 125.4 -94.25 0 0 -125.4zm0 -135.2l94.25 0 0 125.4 -94.25 0 0 -125.4z"/>
   <path class="fil23" d="M13989.4 8687.91l0 -12.34 12.35 0 0 12.34 -12.35 0zm15.33 0l0 -12.34 12.34 0 0 12.34 -12.34 0zm15.32 0l0 -12.34 12.35 0 0 12.34 -12.35 0zm-45.96 -15.32l0 -12.35 12.34 0 0 12.35 -12.34 0zm61.29 0l0 -12.35 12.34 0 0 12.35 -12.34 0zm-61.29 -15.33l0 -12.34 12.34 0 0 12.34 -12.34 0zm61.29 0l0 -12.34 12.34 0 0 12.34 -12.34 0zm-61.29 -15.32l0 -12.35 12.34 0 0 12.35 -12.34 0zm61.29 0l0 -12.35 12.34 0 0 12.35 -12.34 0zm-61.29 -15.33l0 -12.34 12.34 0 0 12.34 -12.34 0zm61.29 0l0 -12.34 12.34 0 0 12.34 -12.34 0zm-61.29 -15.32l0 -12.35 12.34 0 0 12.35 -12.34 0zm61.29 0l0 -12.35 12.34 0 0 12.35 -12.34 0zm-45.97 -15.33l0 -12.34 12.35 0 0 12.34 -12.35 0zm15.33 0l0 -12.34 12.34 0 0 12.34 -12.34 0zm15.32 0l0 -12.34 12.35 0 0 12.34 -12.35 0zm62.13 91.93l0 -12.34 12.34 0 0 12.34 -12.34 0zm0 -15.32l0 -12.35 12.34 0 0 12.35 -12.34 0zm0 -15.33l0 -12.34 12.34 0 0 12.34 -12.34 0zm0 -15.32l0 -12.35 12.34 0 0 12.35 -12.34 0zm61.29 0l0 -12.35 12.34 0 0 12.35 -12.34 0zm-61.29 -15.33l0 -12.34 12.34 0 0 12.34 -12.34 0zm15.32 0l0 -12.34 12.35 0 0 12.34 -12.35 0zm15.33 0l0 -12.34 12.34 0 0 12.34 -12.34 0zm15.32 0l0 -12.34 12.35 0 0 12.34 -12.35 0zm77.45 61.29l0 -12.34 12.35 0 0 12.34 -12.35 0zm15.33 0l0 -12.34 12.34 0 0 12.34 -12.34 0zm15.32 0l0 -12.34 12.35 0 0 12.34 -12.35 0zm-15.32 -15.32l0 -12.35 12.34 0 0 12.35 -12.34 0zm0 -15.33l0 -12.34 12.34 0 0 12.34 -12.34 0zm-15.33 -15.32l0 -12.35 12.35 0 0 12.35 -12.35 0zm15.33 0l0 -12.35 12.34 0 0 12.35 -12.34 0zm0 -30.64l0 -12.35 12.34 0 0 12.35 -12.34 0zm77.45 76.6l0 -12.34 12.34 0 0 12.34 -12.34 0zm15.32 0l0 -12.34 12.35 0 0 12.34 -12.35 0zm15.33 0l0 -12.34 12.34 0 0 12.34 -12.34 0zm15.32 0l0 -12.34 12.35 0 0 12.34 -12.35 0zm15.33 -15.32l0 -12.35 12.34 0 0 12.35 -12.34 0zm-45.97 -15.33l0 -12.34 12.35 0 0 12.34 -12.35 0zm15.33 0l0 -12.34 12.34 0 0 12.34 -12.34 0zm15.32 0l0 -12.34 12.35 0 0 12.34 -12.35 0zm15.33 0l0 -12.34 12.34 0 0 12.34 -12.34 0zm-61.29 -15.32l0 -12.35 12.34 0 0 12.35 -12.34 0zm61.29 0l0 -12.35 12.34 0 0 12.35 -12.34 0zm-45.97 -15.33l0 -12.34 12.35 0 0 12.34 -12.35 0zm15.33 0l0 -12.34 12.34 0 0 12.34 -12.34 0zm15.32 0l0 -12.34 12.35 0 0 12.34 -12.35 0zm77.45 61.29l0 -12.34 12.35 0 0 12.34 -12.35 0zm15.33 0l0 -12.34 12.34 0 0 12.34 -12.34 0zm15.32 0l0 -12.34 12.35 0 0 12.34 -12.35 0zm-15.32 -15.32l0 -12.35 12.34 0 0 12.35 -12.34 0zm0 -15.33l0 -12.34 12.34 0 0 12.34 -12.34 0zm-15.33 -15.32l0 -12.35 12.35 0 0 12.35 -12.35 0zm15.33 0l0 -12.35 12.34 0 0 12.35 -12.34 0zm0 -30.64l0 -12.35 12.34 0 0 12.35 -12.34 0zm77.45 76.6l0 -12.34 12.34 0 0 12.34 -12.34 0zm61.29 0l0 -12.34 12.34 0 0 12.34 -12.34 0zm-61.29 -15.32l0 -12.35 12.34 0 0 12.35 -12.34 0zm61.29 0l0 -12.35 12.34 0 0 12.35 -12.34 0zm-61.29 -15.33l0 -12.34 12.34 0 0 12.34 -12.34 0zm61.29 0l0 -12.34 12.34 0 0 12.34 -12.34 0zm-61.29 -15.32l0 -12.35 12.34 0 0 12.35 -12.34 0zm61.29 0l0 -12.35 12.34 0 0 12.35 -12.34 0zm-61.29 -15.33l0 -12.34 12.34 0 0 12.34 -12.34 0zm15.32 0l0 -12.34 12.35 0 0 12.34 -12.35 0zm15.33 0l0 -12.34 12.34 0 0 12.34 -12.34 0zm15.32 0l0 -12.34 12.35 0 0 12.34 -12.35 0zm77.45 61.29l0 -12.34 12.35 0 0 12.34 -12.35 0zm15.33 0l0 -12.34 12.34 0 0 12.34 -12.34 0zm15.32 0l0 -12.34 12.35 0 0 12.34 -12.35 0zm15.33 0l0 -12.34 12.34 0 0 12.34 -12.34 0zm-61.29 -15.32l0 -12.35 12.34 0 0 12.35 -12.34 0zm61.29 0l0 -12.35 12.34 0 0 12.35 -12.34 0zm-45.97 -15.33l0 -12.34 12.35 0 0 12.34 -12.35 0zm15.33 0l0 -12.34 12.34 0 0 12.34 -12.34 0zm15.32 0l0 -12.34 12.35 0 0 12.34 -12.35 0zm15.33 0l0 -12.34 12.34 0 0 12.34 -12.34 0zm0 -15.32l0 -12.35 12.34 0 0 12.35 -12.34 0zm-45.97 -15.33l0 -12.34 12.35 0 0 12.34 -12.35 0zm15.33 0l0 -12.34 12.34 0 0 12.34 -12.34 0zm15.32 0l0 -12.34 12.35 0 0 12.34 -12.35 0zm77.45 61.29l0 -12.34 12.35 0 0 12.34 -12.35 0zm15.33 0l0 -12.34 12.34 0 0 12.34 -12.34 0zm-30.64 -15.32l0 -12.35 12.34 0 0 12.35 -12.34 0zm0 -15.33l0 -12.34 12.34 0 0 12.34 -12.34 0zm0 -15.32l0 -12.35 12.34 0 0 12.35 -12.34 0zm0 -15.33l0 -12.34 12.34 0 0 12.34 -12.34 0zm0 -15.32l0 -12.35 12.34 0 0 12.35 -12.34 0zm0 -15.33l0 -12.34 12.34 0 0 12.34 -12.34 0zm216.18 91.93l0 -12.34 12.34 0 0 12.34 -12.34 0zm0 -15.32l0 -12.35 12.34 0 0 12.35 -12.34 0zm0 -15.33l0 -12.34 12.34 0 0 12.34 -12.34 0zm0 -15.32l0 -12.35 12.34 0 0 12.35 -12.34 0zm15.32 0l0 -12.35 12.35 0 0 12.35 -12.35 0zm15.33 0l0 -12.35 12.34 0 0 12.35 -12.34 0zm15.32 0l0 -12.35 12.35 0 0 12.35 -12.35 0zm-45.96 -15.33l0 -12.34 12.34 0 0 12.34 -12.34 0zm61.29 0l0 -12.34 12.34 0 0 12.34 -12.34 0zm-61.29 -15.32l0 -12.35 12.34 0 0 12.35 -12.34 0zm61.29 0l0 -12.35 12.34 0 0 12.35 -12.34 0zm-61.29 -15.33l0 -12.34 12.34 0 0 12.34 -12.34 0zm15.32 0l0 -12.34 12.35 0 0 12.34 -12.35 0zm15.33 0l0 -12.34 12.34 0 0 12.34 -12.34 0zm15.32 0l0 -12.34 12.35 0 0 12.34 -12.35 0zm62.13 91.93l0 -12.34 12.34 0 0 12.34 -12.34 0zm0 -15.32l0 -12.35 12.34 0 0 12.35 -12.34 0zm0 -15.33l0 -12.34 12.34 0 0 12.34 -12.34 0zm0 -15.32l0 -12.35 12.34 0 0 12.35 -12.34 0zm61.29 0l0 -12.35 12.34 0 0 12.35 -12.34 0zm-61.29 -15.33l0 -12.34 12.34 0 0 12.34 -12.34 0zm15.32 0l0 -12.34 12.35 0 0 12.34 -12.35 0zm15.33 0l0 -12.34 12.34 0 0 12.34 -12.34 0zm15.32 0l0 -12.34 12.35 0 0 12.34 -12.35 0zm77.45 61.29l0 -12.34 12.35 0 0 12.34 -12.35 0zm15.33 0l0 -12.34 12.34 0 0 12.34 -12.34 0zm15.32 0l0 -12.34 12.35 0 0 12.34 -12.35 0zm15.33 0l0 -12.34 12.34 0 0 12.34 -12.34 0zm-61.29 -15.32l0 -12.35 12.34 0 0 12.35 -12.34 0zm61.29 0l0 -12.35 12.34 0 0 12.35 -12.34 0zm-61.29 -15.33l0 -12.34 12.34 0 0 12.34 -12.34 0zm61.29 0l0 -12.34 12.34 0 0 12.34 -12.34 0zm-61.29 -15.32l0 -12.35 12.34 0 0 12.35 -12.34 0zm61.29 0l0 -12.35 12.34 0 0 12.35 -12.34 0zm-61.29 -15.33l0 -12.34 12.34 0 0 12.34 -12.34 0zm61.29 0l0 -12.34 12.34 0 0 12.34 -12.34 0zm46.8 61.29l0 -12.34 12.34 0 0 12.34 -12.34 0zm15.32 0l0 -12.34 12.35 0 0 12.34 -12.35 0zm15.33 0l0 -12.34 12.34 0 0 12.34 -12.34 0zm15.32 0l0 -12.34 12.35 0 0 12.34 -12.35 0zm15.33 -15.32l0 -12.35 12.34 0 0 12.35 -12.34 0zm-45.97 -15.33l0 -12.34 12.35 0 0 12.34 -12.35 0zm15.33 0l0 -12.34 12.34 0 0 12.34 -12.34 0zm15.32 0l0 -12.34 12.35 0 0 12.34 -12.35 0zm-45.96 -15.32l0 -12.35 12.34 0 0 12.35 -12.34 0zm15.32 -15.33l0 -12.34 12.35 0 0 12.34 -12.35 0zm15.33 0l0 -12.34 12.34 0 0 12.34 -12.34 0zm15.32 0l0 -12.34 12.35 0 0 12.34 -12.35 0zm15.33 0l0 -12.34 12.34 0 0 12.34 -12.34 0zm62.12 61.29l0 -12.34 12.35 0 0 12.34 -12.35 0zm15.33 0l0 -12.34 12.34 0 0 12.34 -12.34 0zm15.32 0l0 -12.34 12.35 0 0 12.34 -12.35 0zm15.33 0l0 -12.34 12.34 0 0 12.34 -12.34 0zm-61.29 -15.32l0 -12.35 12.34 0 0 12.35 -12.34 0zm61.29 0l0 -12.35 12.34 0 0 12.35 -12.34 0zm-45.97 -15.33l0 -12.34 12.35 0 0 12.34 -12.35 0zm15.33 0l0 -12.34 12.34 0 0 12.34 -12.34 0zm15.32 0l0 -12.34 12.35 0 0 12.34 -12.35 0zm15.33 0l0 -12.34 12.34 0 0 12.34 -12.34 0zm0 -15.32l0 -12.35 12.34 0 0 12.35 -12.34 0zm-45.97 -15.33l0 -12.34 12.35 0 0 12.34 -12.35 0zm15.33 0l0 -12.34 12.34 0 0 12.34 -12.34 0zm15.32 0l0 -12.34 12.35 0 0 12.34 -12.35 0zm185.54 61.29l0 -12.34 12.35 0 0 12.34 -12.35 0zm15.33 0l0 -12.34 12.34 0 0 12.34 -12.34 0zm15.32 0l0 -12.34 12.35 0 0 12.34 -12.35 0zm-15.32 -15.32l0 -12.35 12.34 0 0 12.35 -12.34 0zm0 -15.33l0 -12.34 12.34 0 0 12.34 -12.34 0zm-15.33 -15.32l0 -12.35 12.35 0 0 12.35 -12.35 0zm15.33 0l0 -12.35 12.34 0 0 12.35 -12.34 0zm0 -30.64l0 -12.35 12.34 0 0 12.35 -12.34 0zm92.76 76.6l0 -12.34 12.35 0 0 12.34 -12.35 0zm15.33 0l0 -12.34 12.34 0 0 12.34 -12.34 0zm15.32 0l0 -12.34 12.35 0 0 12.34 -12.35 0zm-45.96 -15.32l0 -12.35 12.34 0 0 12.35 -12.34 0zm61.29 0l0 -12.35 12.34 0 0 12.35 -12.34 0zm0 -15.33l0 -12.34 12.34 0 0 12.34 -12.34 0zm-30.64 -15.32l0 -12.35 12.34 0 0 12.35 -12.34 0zm15.32 0l0 -12.35 12.35 0 0 12.35 -12.35 0zm15.33 -15.33l0 -12.34 12.34 0 0 12.34 -12.34 0zm-61.29 -15.32l0 -12.35 12.34 0 0 12.35 -12.34 0zm61.29 0l0 -12.35 12.34 0 0 12.35 -12.34 0zm-45.97 -15.33l0 -12.34 12.35 0 0 12.34 -12.35 0zm15.33 0l0 -12.34 12.34 0 0 12.34 -12.34 0zm15.32 0l0 -12.34 12.35 0 0 12.34 -12.35 0z"/>
   <path class="fil23" d="M14190.07 8822.57l0 -12.34 12.34 0 0 12.34 -12.34 0zm0 -15.32l0 -12.35 12.34 0 0 12.35 -12.34 0zm0 -15.33l0 -12.34 12.34 0 0 12.34 -12.34 0zm0 -15.32l0 -12.35 12.34 0 0 12.35 -12.34 0zm15.32 0l0 -12.35 12.35 0 0 12.35 -12.35 0zm15.33 0l0 -12.35 12.34 0 0 12.35 -12.34 0zm15.32 0l0 -12.35 12.35 0 0 12.35 -12.35 0zm-45.96 -15.33l0 -12.34 12.34 0 0 12.34 -12.34 0zm61.29 0l0 -12.34 12.34 0 0 12.34 -12.34 0zm-61.29 -15.32l0 -12.35 12.34 0 0 12.35 -12.34 0zm61.29 0l0 -12.35 12.34 0 0 12.35 -12.34 0zm-61.29 -15.33l0 -12.34 12.34 0 0 12.34 -12.34 0zm15.32 0l0 -12.34 12.35 0 0 12.34 -12.35 0zm15.33 0l0 -12.34 12.34 0 0 12.34 -12.34 0zm15.32 0l0 -12.34 12.35 0 0 12.34 -12.35 0zm62.13 91.93l0 -12.34 12.34 0 0 12.34 -12.34 0zm0 -15.32l0 -12.35 12.34 0 0 12.35 -12.34 0zm0 -15.33l0 -12.34 12.34 0 0 12.34 -12.34 0zm0 -15.32l0 -12.35 12.34 0 0 12.35 -12.34 0zm61.29 0l0 -12.35 12.34 0 0 12.35 -12.34 0zm-61.29 -15.33l0 -12.34 12.34 0 0 12.34 -12.34 0zm15.32 0l0 -12.34 12.35 0 0 12.34 -12.35 0zm15.33 0l0 -12.34 12.34 0 0 12.34 -12.34 0zm15.32 0l0 -12.34 12.35 0 0 12.34 -12.35 0zm77.45 61.29l0 -12.34 12.35 0 0 12.34 -12.35 0zm15.33 0l0 -12.34 12.34 0 0 12.34 -12.34 0zm15.32 0l0 -12.34 12.35 0 0 12.34 -12.35 0zm15.33 0l0 -12.34 12.34 0 0 12.34 -12.34 0zm-61.29 -15.32l0 -12.35 12.34 0 0 12.35 -12.34 0zm61.29 0l0 -12.35 12.34 0 0 12.35 -12.34 0zm-61.29 -15.33l0 -12.34 12.34 0 0 12.34 -12.34 0zm61.29 0l0 -12.34 12.34 0 0 12.34 -12.34 0zm-61.29 -15.32l0 -12.35 12.34 0 0 12.35 -12.34 0zm61.29 0l0 -12.35 12.34 0 0 12.35 -12.34 0zm-61.29 -15.33l0 -12.34 12.34 0 0 12.34 -12.34 0zm61.29 0l0 -12.34 12.34 0 0 12.34 -12.34 0zm46.8 61.29l0 -12.34 12.34 0 0 12.34 -12.34 0zm15.32 0l0 -12.34 12.35 0 0 12.34 -12.35 0zm15.33 0l0 -12.34 12.34 0 0 12.34 -12.34 0zm15.32 0l0 -12.34 12.35 0 0 12.34 -12.35 0zm15.33 -15.32l0 -12.35 12.34 0 0 12.35 -12.34 0zm-45.97 -15.33l0 -12.34 12.35 0 0 12.34 -12.35 0zm15.33 0l0 -12.34 12.34 0 0 12.34 -12.34 0zm15.32 0l0 -12.34 12.35 0 0 12.34 -12.35 0zm-45.96 -15.32l0 -12.35 12.34 0 0 12.35 -12.34 0zm15.32 -15.33l0 -12.34 12.35 0 0 12.34 -12.35 0zm15.33 0l0 -12.34 12.34 0 0 12.34 -12.34 0zm15.32 0l0 -12.34 12.35 0 0 12.34 -12.35 0zm15.33 0l0 -12.34 12.34 0 0 12.34 -12.34 0zm62.12 61.29l0 -12.34 12.35 0 0 12.34 -12.35 0zm15.33 0l0 -12.34 12.34 0 0 12.34 -12.34 0zm15.32 0l0 -12.34 12.35 0 0 12.34 -12.35 0zm15.33 0l0 -12.34 12.34 0 0 12.34 -12.34 0zm-61.29 -15.32l0 -12.35 12.34 0 0 12.35 -12.34 0zm61.29 0l0 -12.35 12.34 0 0 12.35 -12.34 0zm-45.97 -15.33l0 -12.34 12.35 0 0 12.34 -12.35 0zm15.33 0l0 -12.34 12.34 0 0 12.34 -12.34 0zm15.32 0l0 -12.34 12.35 0 0 12.34 -12.35 0zm15.33 0l0 -12.34 12.34 0 0 12.34 -12.34 0zm0 -15.32l0 -12.35 12.34 0 0 12.35 -12.34 0zm-45.97 -15.33l0 -12.34 12.35 0 0 12.34 -12.35 0zm15.33 0l0 -12.34 12.34 0 0 12.34 -12.34 0zm15.32 0l0 -12.34 12.35 0 0 12.34 -12.35 0zm170.22 61.29l0 -12.34 12.34 0 0 12.34 -12.34 0zm61.29 0l0 -12.34 12.34 0 0 12.34 -12.34 0zm-61.29 -15.32l0 -12.35 12.34 0 0 12.35 -12.34 0zm61.29 0l0 -12.35 12.34 0 0 12.35 -12.34 0zm-61.29 -15.33l0 -12.34 12.34 0 0 12.34 -12.34 0zm61.29 0l0 -12.34 12.34 0 0 12.34 -12.34 0zm-61.29 -15.32l0 -12.35 12.34 0 0 12.35 -12.34 0zm15.32 0l0 -12.35 12.35 0 0 12.35 -12.35 0zm15.33 0l0 -12.35 12.34 0 0 12.35 -12.34 0zm15.32 0l0 -12.35 12.35 0 0 12.35 -12.35 0zm-45.96 -15.33l0 -12.34 12.34 0 0 12.34 -12.34 0zm61.29 0l0 -12.34 12.34 0 0 12.34 -12.34 0zm-61.29 -15.32l0 -12.35 12.34 0 0 12.35 -12.34 0zm61.29 0l0 -12.35 12.34 0 0 12.35 -12.34 0zm-61.29 -15.33l0 -12.34 12.34 0 0 12.34 -12.34 0zm15.32 0l0 -12.34 12.35 0 0 12.34 -12.35 0zm15.33 0l0 -12.34 12.34 0 0 12.34 -12.34 0zm15.32 0l0 -12.34 12.35 0 0 12.34 -12.35 0zm77.45 91.93l0 -12.34 12.35 0 0 12.34 -12.35 0zm15.33 0l0 -12.34 12.34 0 0 12.34 -12.34 0zm15.32 0l0 -12.34 12.35 0 0 12.34 -12.35 0zm-45.96 -15.32l0 -12.35 12.34 0 0 12.35 -12.34 0zm0 -15.33l0 -12.34 12.34 0 0 12.34 -12.34 0zm15.32 0l0 -12.34 12.35 0 0 12.34 -12.35 0zm15.33 0l0 -12.34 12.34 0 0 12.34 -12.34 0zm15.32 0l0 -12.34 12.35 0 0 12.34 -12.35 0zm15.33 0l0 -12.34 12.34 0 0 12.34 -12.34 0zm-61.29 -15.32l0 -12.35 12.34 0 0 12.35 -12.34 0zm61.29 0l0 -12.35 12.34 0 0 12.35 -12.34 0zm-45.97 -15.33l0 -12.34 12.35 0 0 12.34 -12.35 0zm15.33 0l0 -12.34 12.34 0 0 12.34 -12.34 0zm15.32 0l0 -12.34 12.35 0 0 12.34 -12.35 0zm62.13 61.29l0 -12.34 12.34 0 0 12.34 -12.34 0zm15.32 0l0 -12.34 12.35 0 0 12.34 -12.35 0zm15.33 0l0 -12.34 12.34 0 0 12.34 -12.34 0zm15.32 0l0 -12.34 12.35 0 0 12.34 -12.35 0zm15.33 -15.32l0 -12.35 12.34 0 0 12.35 -12.34 0zm-45.97 -15.33l0 -12.34 12.35 0 0 12.34 -12.35 0zm15.33 0l0 -12.34 12.34 0 0 12.34 -12.34 0zm15.32 0l0 -12.34 12.35 0 0 12.34 -12.35 0zm-45.96 -15.32l0 -12.35 12.34 0 0 12.35 -12.34 0zm15.32 -15.33l0 -12.34 12.35 0 0 12.34 -12.35 0zm15.33 0l0 -12.34 12.34 0 0 12.34 -12.34 0zm15.32 0l0 -12.34 12.35 0 0 12.34 -12.35 0zm15.33 0l0 -12.34 12.34 0 0 12.34 -12.34 0zm62.12 61.29l0 -12.34 12.35 0 0 12.34 -12.35 0zm15.33 0l0 -12.34 12.34 0 0 12.34 -12.34 0zm15.32 0l0 -12.34 12.35 0 0 12.34 -12.35 0zm-45.96 -15.32l0 -12.35 12.34 0 0 12.35 -12.34 0zm0 -15.33l0 -12.34 12.34 0 0 12.34 -12.34 0zm15.32 0l0 -12.34 12.35 0 0 12.34 -12.35 0zm15.33 0l0 -12.34 12.34 0 0 12.34 -12.34 0zm15.32 0l0 -12.34 12.35 0 0 12.34 -12.35 0zm15.33 0l0 -12.34 12.34 0 0 12.34 -12.34 0zm-61.29 -15.32l0 -12.35 12.34 0 0 12.35 -12.34 0zm61.29 0l0 -12.35 12.34 0 0 12.35 -12.34 0zm-45.97 -15.33l0 -12.34 12.35 0 0 12.34 -12.35 0zm15.33 0l0 -12.34 12.34 0 0 12.34 -12.34 0zm15.32 0l0 -12.34 12.35 0 0 12.34 -12.35 0zm77.45 61.29l0 -12.34 12.35 0 0 12.34 -12.35 0zm15.33 0l0 -12.34 12.34 0 0 12.34 -12.34 0zm15.32 0l0 -12.34 12.35 0 0 12.34 -12.35 0zm15.33 0l0 -12.34 12.34 0 0 12.34 -12.34 0zm-61.29 -15.32l0 -12.35 12.34 0 0 12.35 -12.34 0zm61.29 0l0 -12.35 12.34 0 0 12.35 -12.34 0zm-45.97 -15.33l0 -12.34 12.35 0 0 12.34 -12.35 0zm15.33 0l0 -12.34 12.34 0 0 12.34 -12.34 0zm15.32 0l0 -12.34 12.35 0 0 12.34 -12.35 0zm15.33 0l0 -12.34 12.34 0 0 12.34 -12.34 0zm0 -15.32l0 -12.35 12.34 0 0 12.35 -12.34 0zm-45.97 -15.33l0 -12.34 12.35 0 0 12.34 -12.35 0zm15.33 0l0 -12.34 12.34 0 0 12.34 -12.34 0zm15.32 0l0 -12.34 12.35 0 0 12.34 -12.35 0zm62.13 61.29l0 -12.34 12.34 0 0 12.34 -12.34 0zm0 -15.32l0 -12.35 12.34 0 0 12.35 -12.34 0zm0 -15.33l0 -12.34 12.34 0 0 12.34 -12.34 0zm0 -15.32l0 -12.35 12.34 0 0 12.35 -12.34 0zm61.29 0l0 -12.35 12.34 0 0 12.35 -12.34 0zm-61.29 -15.33l0 -12.34 12.34 0 0 12.34 -12.34 0zm15.32 0l0 -12.34 12.35 0 0 12.34 -12.35 0zm15.33 0l0 -12.34 12.34 0 0 12.34 -12.34 0zm15.32 0l0 -12.34 12.35 0 0 12.34 -12.35 0zm77.45 61.29l0 -12.34 12.35 0 0 12.34 -12.35 0zm15.33 0l0 -12.34 12.34 0 0 12.34 -12.34 0zm15.32 0l0 -12.34 12.35 0 0 12.34 -12.35 0zm-45.96 -15.32l0 -12.35 12.34 0 0 12.35 -12.34 0zm0 -15.33l0 -12.34 12.34 0 0 12.34 -12.34 0zm0 -15.32l0 -12.35 12.34 0 0 12.35 -12.34 0zm61.29 0l0 -12.35 12.34 0 0 12.35 -12.34 0zm-45.97 -15.33l0 -12.34 12.35 0 0 12.34 -12.35 0zm15.33 0l0 -12.34 12.34 0 0 12.34 -12.34 0zm15.32 0l0 -12.34 12.35 0 0 12.34 -12.35 0zm62.13 61.29l0 -12.34 12.34 0 0 12.34 -12.34 0zm61.29 0l0 -12.34 12.34 0 0 12.34 -12.34 0zm-61.29 -15.32l0 -12.35 12.34 0 0 12.35 -12.34 0zm61.29 0l0 -12.35 12.34 0 0 12.35 -12.34 0zm-61.29 -15.33l0 -12.34 12.34 0 0 12.34 -12.34 0zm61.29 0l0 -12.34 12.34 0 0 12.34 -12.34 0zm-61.29 -15.32l0 -12.35 12.34 0 0 12.35 -12.34 0zm15.32 0l0 -12.35 12.35 0 0 12.35 -12.35 0zm15.33 0l0 -12.35 12.34 0 0 12.35 -12.34 0zm15.32 0l0 -12.35 12.35 0 0 12.35 -12.35 0zm-45.96 -15.33l0 -12.34 12.34 0 0 12.34 -12.34 0zm0 -15.32l0 -12.35 12.34 0 0 12.35 -12.34 0zm0 -15.33l0 -12.34 12.34 0 0 12.34 -12.34 0z"/>
   <polygon class="fil1" points="12165.96,7934.97 18185.18,7934.97 18185.18,7904.7 12165.96,7904.7 "/>
   <g>
    <polygon class="fil5" points="11031.26,8896.92 11802.89,8896.92 11802.89,8418.17 11031.26,8418.17 "/>
    <path class="fil1" d="M10995.81 8231.29l842.53 0 0 186.88 0 45.3 -35.45 0 0 -45.3 -771.63 0 0 45.3 -35.45 0 0 -45.3 0 -186.88zm0 852.51l842.53 0 0 -186.88 0 -45.3 -35.45 0 0 45.3 -771.63 0 0 -45.3 -35.45 0 0 45.3 0 186.88z"/>
    <path class="fil5" d="M11965.28 9083.8l-126.95 0 0 -232.18 126.95 0 0 232.18zm0 -852.51l-126.95 0 0 232.18 126.95 0 0 -232.18z"/>
    <path class="fil5" d="M11965.28 8231.29l-126.95 0 0 232.18 126.95 0 0 -232.18zm0 852.51l-126.95 0 0 -232.18 126.95 0 0 232.18zm-1096.42 0l126.95 0 0 -232.18 -126.95 0 0 232.18zm0 -852.51l126.95 0 0 232.18 -126.95 0 0 -232.18z"/>
    <path class="fil6" d="M11031.26 8463.48l-162.4 0 0 388.14 162.4 0 0 -388.14zm771.63 0l162.4 0 0 388.14 -162.4 0 0 -388.14z"/>
   </g>
   <g>
    <polygon class="fil5" points="18539.86,8896.92 19311.48,8896.92 19311.48,8418.17 18539.86,8418.17 "/>
    <path class="fil1" d="M18504.41 8231.29l842.53 0 0 186.88 0 45.3 -35.45 0 0 -45.3 -771.63 0 0 45.3 -35.45 0 0 -45.3 0 -186.88zm0 852.51l842.53 0 0 -186.88 0 -45.3 -35.45 0 0 45.3 -771.63 0 0 -45.3 -35.45 0 0 45.3 0 186.88z"/>
    <path class="fil5" d="M19473.88 9083.8l-126.95 0 0 -232.18 126.95 0 0 232.18zm0 -852.51l-126.95 0 0 232.18 126.95 0 0 -232.18z"/>
    <path class="fil5" d="M19473.88 8231.29l-126.95 0 0 232.18 126.95 0 0 -232.18zm0 852.51l-126.95 0 0 -232.18 126.95 0 0 232.18zm-1096.42 0l126.95 0 0 -232.18 -126.95 0 0 232.18zm0 -852.51l126.95 0 0 232.18 -126.95 0 0 -232.18z"/>
    <path class="fil6" d="M18539.86 8463.48l-162.4 0 0 388.14 162.4 0 0 -388.14zm771.63 0l162.4 0 0 388.14 -162.4 0 0 -388.14z"/>
   </g>
   <circle class="fil5" cx="9995.4" cy="4833.21" r="72.65"/>
  </g>
  <g id="_1739180689056">
   <path class="fil27" d="M1077.6 5431.96l3667.16 0c167.19,0 303.98,136.79 303.98,303.98l0 2447.46c0,167.19 -136.79,303.98 -303.98,303.98l-3667.16 0c-167.19,0 -303.98,-136.79 -303.98,-303.98l0 -2447.46c0,-167.19 136.79,-303.98 303.98,-303.98z"/>
   <path class="fil28" d="M4495.04 7740.61l553.71 0 0 432.51 -553.71 0 0 -432.51zm0 -839.81l553.71 0 0 432.51 -553.71 0 0 -432.51z"/>
   <path class="fil29" d="M3025.66 8487.4l56.99 0 0 132.01 462.08 0 0 -132.01c394.45,0 788.9,0.01 1183.34,0.01 176.04,0 314.35,-138.31 314.35,-314.36l-125.7 0c0,100.6 -81.74,188.62 -188.62,188.62 -394.44,0 -788.89,0 -1183.33,0l0 -441.86 -462.08 0 0 441.86c-117.95,0 -235.89,0 -353.84,0l0 -441.86 -462.08 0 0 441.86 -387.54 0 0 -509.23 -572.15 0 0 509.23 -219.09 0c-103.63,0 -188.62,-84.98 -188.62,-188.62l-0.04 -2426.77c0,-100.6 81.74,-188.62 188.62,-188.62l3646.44 0c100.6,0 188.62,81.74 188.62,188.62l-704.12 0 -0.05 760.69c1041.43,0 637.57,0.01 761.4,0.01l-57.22 0 0 268.11 125.77 0 0 -268.11 125.72 0 0 -760.69 -125.74 -0.02c0,-176.04 -138.31,-314.35 -314.35,-314.35l-3646.44 0c-176.04,0 -314.35,138.31 -314.35,314.35l0 2426.77c0,177.67 140.13,314.37 314.4,314.37l219.05 0 0 125.72 572.11 0 0 -125.73 387.54 0 0 132.01 462.08 0 0 -132.01 296.85 0zm1897.35 -1028.37l125.77 0 0 155.82 -125.77 0 0 -155.82zm-3490.16 1028.36l0 -509.23 320.64 0 0 509.23 -320.64 0zm1170.28 6.28l-210.62 0 0 -448.15 210.62 0 0 448.15zm2445.63 -2112.42l-704.12 0 0 -509.23 704.12 0 0 509.23zm-1629.71 2112.42l-210.62 0 0 -448.15 210.62 0 0 448.15z"/>
   <path class="fil29" d="M3961.12 5626.83c-69.15,0 -125.72,56.58 -125.72,125.73 0,69.16 56.57,125.73 125.72,125.73 69.16,0 125.73,-62.89 125.73,-125.73 0.05,-69.11 -56.57,-125.73 -125.73,-125.73zm-1119.09 56.58l125.73 0 0 125.73 -125.73 0 0 -125.73zm502.96 0l125.73 0 0 125.73 -125.73 0 0 -125.73zm0 251.48l125.73 0 0 125.72 -125.73 0 0 -125.72zm-251.47 -251.48l125.72 0 0 125.73 -125.72 0 0 -125.73zm0 251.48l125.72 0 0 125.72 -125.72 0 0 -125.72zm-502.96 0l125.72 0 0 125.72 -125.72 0 0 -125.72zm-251.48 -251.48l125.73 0 0 125.73 -125.73 0 0 -125.73zm0 251.48l125.73 0 0 125.72 -125.73 0 0 -125.72zm-251.47 -251.48l125.72 0 0 125.73 -125.72 0 0 -125.73zm0 251.48l125.72 0 0 125.72 -125.72 0 0 -125.72zm-251.48 -251.48l125.72 0 0 125.73 -125.72 0 0 -125.73zm0 251.48l125.72 0 0 125.72 -125.72 0 0 -125.72zm-251.48 0l125.73 0 0 125.72 -125.73 0 0 -125.72zm0 -251.48l125.73 0 0 125.73 -125.73 0 0 -125.73zm1005.92 0l125.72 0 0 125.73 -125.72 0 0 -125.73zm251.47 251.48l125.73 0 0 125.72 -125.73 0 0 -125.72zm1033.22 1294.26l-251.46 0 0 132.06 125.73 0 0 125.72 -125.73 0 0 132.06 125.73 -0.01 0 125.73 -125.73 0 0 119.47 251.46 0 0 -635.02zm211.59 943.91c0,69.43 -56.32,125.73 -125.77,125.73 -69.43,0 -125.73,-56.31 -125.73,-125.73 0,-69.47 56.31,-125.77 125.73,-125.77 69.46,0 125.77,56.31 125.77,125.77zm-1371.97 -1657.13l-50.3 0 -201.16 201.16 0 622.42 823.58 0 0 -823.58 -572.12 0zm446.4 697.85l-572.13 0 0 -446.4 125.73 -125.72 446.4 0 0 572.12zm-1885.03 195.4l-125.73 0 0 -119.45 125.73 0 0 -138.28 -125.73 0 0 -125.77 125.73 0 0 -132.01 -125.73 0 0 -125.73 125.73 0.01 0 -125.78 -125.73 0 0 -125.73 125.73 0.01 0 -125.78 -251.46 0c0,383.52 0,767.04 0,1150.56l251.46 0.01 0 -132.06zm-19.41 727.07c0,69.42 -56.32,125.72 -125.73,125.72 -69.47,0 -125.78,-56.31 -125.78,-125.72 0,-69.47 56.32,-125.78 125.78,-125.78 69.42,0 125.73,56.32 125.73,125.78zm-125.64 -2472.48c-69.16,0 -125.73,56.57 -125.73,125.73 0,69.15 56.58,125.72 125.73,125.72 69.16,0 125.73,-62.89 125.73,-125.72 0,-69.12 -56.57,-125.73 -125.73,-125.73z"/>
   <path class="fil30" d="M1701.66 6492.55c-4.79,-0.23 -11.11,1.28 -16.97,5.91 -14.36,-5.54 -28.28,-7.46 -40.72,3.8 -19.22,-2.49 -25.47,2.65 -30.19,8.66 -4.23,-0.09 -31.57,-4.33 -44.12,14.38 -31.53,-3.73 -41.48,18.53 -30.19,39.3 -6.43,9.97 -13.11,19.82 1.95,38.81 -5.33,10.59 -2.03,22.06 10.51,35.96 -3.3,14.88 3.2,25.37 14.87,33.56 -2.18,20.35 18.67,32.18 24.9,36.4 2.39,11.87 7.37,23.05 31.19,29.24 3.93,17.68 18.24,20.73 32.09,24.44 -45.8,26.63 -85.09,61.66 -84.82,147.63l-6.72 11.97c-52.53,31.95 -99.79,134.62 -25.88,218.07 4.82,26.11 12.92,44.88 20.13,65.64 10.78,83.67 81.13,122.87 99.7,127.5 27.19,20.71 56.16,40.36 95.34,54.13 36.95,38.12 76.99,52.64 117.23,52.62 47.89,0 85.84,-18.42 118.99,-52.62 39.2,-13.77 68.16,-33.42 95.35,-54.13 18.56,-4.63 88.92,-43.82 99.7,-127.5 7.21,-20.76 15.31,-39.53 20.13,-65.64 73.91,-83.47 26.65,-186.15 -25.88,-218.08l-6.73 -11.97c0.26,-85.96 -39.02,-120.99 -84.82,-147.62 13.86,-3.73 28.17,-6.77 32.09,-24.45 23.81,-6.19 28.79,-17.38 31.18,-29.24 6.24,-4.22 27.08,-16.05 24.9,-36.41 11.67,-8.19 18.18,-18.67 14.88,-33.55 12.54,-13.9 15.84,-25.38 10.51,-35.96 15.06,-18.99 8.38,-28.84 1.95,-38.8 11.28,-20.77 1.33,-43.04 -30.2,-39.3 -12.53,-18.72 -39.88,-14.46 -44.12,-14.39 -4.73,-6 -10.97,-11.14 -30.19,-8.65 -12.44,-11.28 -26.36,-9.35 -40.72,-3.8 -17.04,-13.45 -28.32,-2.68 -41.2,1.4 -20.64,-6.74 -25.36,2.49 -35.49,6.26 -22.51,-4.77 -29.35,5.59 -40.15,16.52l-12.54 -0.25c-33.95,20 -50.81,60.74 -56.79,81.68 -5.99,-20.95 -22.82,-61.68 -56.75,-81.68l-12.55 0.25c-10.81,-10.93 -17.64,-21.29 -40.15,-16.52 -10.14,-3.77 -14.85,-12.99 -35.5,-6.26 -10.74,-3.4 -10.46,-6.67 -24.22,-7.32z"/>
   <path class="fil31" d="M1632.92 6579.92c90.06,46.43 142.42,84 171.1,115.98 -14.69,58.87 -91.32,61.56 -119.34,59.9 5.74,-2.67 10.52,-5.86 12.23,-10.78 -7.04,-5 -31.97,-0.52 -49.37,-10.31 6.69,-1.38 9.81,-2.74 12.94,-7.67 -16.44,-5.25 -34.16,-9.76 -44.57,-18.44 5.61,0.06 10.86,1.25 18.2,-3.83 -14.72,-7.94 -30.44,-14.24 -42.66,-26.36 7.62,-0.19 15.83,-0.08 18.22,-2.88 -13.48,-8.34 -24.86,-17.64 -34.27,-27.79 10.65,1.28 15.16,0.17 17.73,-1.68 -10.19,-10.44 -23.08,-19.26 -29.23,-32.11 7.91,2.73 15.15,3.78 20.37,-0.25 -3.46,-7.81 -18.3,-12.42 -26.84,-30.67 8.33,0.81 17.17,1.81 18.94,0 -3.87,-15.75 -10.5,-24.6 -17,-33.78 17.82,-0.26 44.83,0.07 43.62,-1.44l-11.03 -11.27c17.41,-4.68 35.23,0.76 48.17,4.8 5.81,-4.59 -0.1,-10.37 -7.19,-16.3 14.8,1.97 28.17,5.37 40.26,10.06 6.45,-5.82 -4.2,-11.66 -9.35,-17.49 22.86,4.34 32.55,10.43 42.17,16.54 6.99,-6.7 0.4,-12.38 -4.3,-18.22 17.23,6.38 26.11,14.63 35.47,22.77 3.17,-4.28 8.04,-7.41 2.16,-17.74 12.24,7.06 21.46,15.38 28.27,24.68 7.58,-4.81 4.51,-11.41 4.56,-17.49 12.72,10.36 20.79,21.37 30.66,32.11 1.99,-1.44 3.74,-6.36 5.29,-14.14 30.34,29.45 73.22,103.6 11.01,133 -52.94,-43.66 -116.16,-75.4 -186.22,-99.2l0.02 -0.02zm477.86 0c-90.05,46.44 -142.4,83.99 -171.08,115.98 14.69,58.87 91.31,61.56 119.34,59.9 -5.74,-2.67 -10.53,-5.86 -12.23,-10.78 7.03,-5 31.97,-0.52 49.37,-10.31 -6.69,-1.38 -9.82,-2.74 -12.94,-7.67 16.44,-5.25 34.15,-9.76 44.58,-18.44 -5.63,0.06 -10.87,1.25 -18.22,-3.83 14.73,-7.94 30.45,-14.24 42.66,-26.36 -7.61,-0.19 -15.83,-0.08 -18.21,-2.88 13.48,-8.34 24.85,-17.64 34.27,-27.79 -10.66,1.28 -15.16,0.17 -17.73,-1.68 10.18,-10.44 23.08,-19.26 29.22,-32.11 -7.9,2.73 -15.14,3.78 -20.36,-0.25 3.45,-7.81 18.3,-12.42 26.84,-30.67 -8.34,0.81 -17.17,1.81 -18.94,0 3.86,-15.76 10.5,-24.61 17.01,-33.78 -17.83,-0.27 -44.84,0.06 -43.62,-1.45l11.02 -11.26c-17.42,-4.68 -35.22,0.76 -48.17,4.8 -5.81,-4.59 0.11,-10.37 7.19,-16.3 -14.8,1.97 -28.17,5.38 -40.25,10.07 -6.46,-5.83 4.2,-11.66 9.35,-17.5 -22.87,4.34 -32.56,10.43 -42.18,16.54 -6.99,-6.7 -0.4,-12.38 4.31,-18.22 -17.24,6.39 -26.11,14.63 -35.47,22.78 -3.18,-4.29 -8.06,-7.42 -2.16,-17.75 -12.24,7.06 -21.47,15.38 -28.28,24.69 -7.57,-4.82 -4.51,-11.42 -4.55,-17.49 -12.72,10.35 -20.79,21.36 -30.67,32.1 -1.99,-1.44 -3.74,-6.35 -5.28,-14.14 -30.35,29.45 -73.22,103.6 -11.02,133 52.91,-43.67 116.13,-75.4 186.2,-99.21l-0.02 0z"/>
   <path class="fil32" d="M1980.93 7179.42c0.4,88.61 -116.45,133.49 -184.33,70.63 -67.36,-62.38 -19.92,-170.53 76.46,-170.53 57.52,0 108.14,42.83 107.88,99.9zm164 -238.93c-48.26,-12.93 -16.3,199.67 22.98,182.22 43.2,-34.74 57.11,-136.49 -22.98,-182.22zm-163.97 -158.32c83.28,-14.06 152.59,35.42 149.8,125.73 -2.75,34.62 -180.47,-120.57 -149.79,-125.73l-0.01 0zm-230.11 -2.65c-83.29,-14.06 -152.59,35.43 -149.8,125.73 2.75,34.62 180.48,-120.57 149.8,-125.73zm119.64 -21.06c-49.72,-1.29 -97.42,36.89 -97.54,59.04 -0.14,26.92 39.3,54.47 97.87,55.16 59.81,0.44 97.97,-22.04 98.16,-49.82 0.23,-31.47 -54.38,-64.87 -98.5,-64.38l0.01 0zm3.03 551.87c43.33,-1.89 101.48,13.96 101.61,35 0.72,20.41 -52.75,66.54 -104.48,65.65 -53.59,2.31 -106.13,-43.89 -105.44,-59.91 -0.8,-23.48 65.24,-41.8 108.32,-40.73zm-160.08 -124.62c30.86,37.17 44.92,102.49 19.18,121.74 -24.37,14.7 -83.52,8.65 -125.56,-51.77 -28.37,-50.69 -24.71,-102.27 -4.8,-117.42 29.77,-18.14 75.77,6.36 111.19,47.44l-0.01 0zm313.98 -11.78c-33.38,39.1 -51.97,110.42 -27.61,133.39 23.28,17.85 85.79,15.35 131.97,-48.73 33.53,-43.02 22.29,-114.89 3.14,-133.97 -36.31,-31.92 -107.49,45.57 -107.49,49.3zm-96.15 -283.98c-44.7,29.29 -52.76,95.68 -17.99,148.28 55.93,84.64 171.39,69.81 182.66,-23.18 11.32,-93.23 -92.9,-172.1 -164.67,-125.09zm-344.05 53.19c48.26,-12.93 16.29,199.66 -22.97,182.21 -43.2,-34.74 -57.11,-136.48 22.97,-182.21zm223.4 -47.87c71.96,46.87 40.54,173.68 -50.15,200.21 -90.13,26.36 -149.99,-73.2 -93.87,-158.09 32.15,-48.64 96.08,-73.69 144.02,-42.12z"/>
   <g>
    <path class="fil1" d="M4369.31 7614.85l0 683.93 805.19 0 0 -683.92 -805.19 -0.01zm679.45 558.2l-553.72 0 0 -432.47 553.72 0 0 432.47z"/>
   </g>
   <path id="path1334" class="fil29" d="M5021.53 7117.08l-55.5 -32.06 0 22.87 -283.7 0 55.24 -58.36c4.7,-3.77 10.86,-6.41 17.18,-6.56 25.59,0 40.79,0 46.39,-0.01 3.79,10.8 13.98,18.6 26.09,18.6 15.32,0 27.75,-12.43 27.75,-27.76 0,-15.34 -12.43,-27.76 -27.75,-27.76 -12.11,0 -22.3,7.8 -26.09,18.59l-45.85 -0.01c-12.42,0 -25.45,6.82 -33.73,14.81 0.23,-0.24 0.46,-0.49 -0.01,0.01 -0.18,0.2 -58.61,61.91 -58.61,61.91 -4.69,3.76 -10.84,6.38 -17.16,6.53l-32.09 0c-4.26,-21.2 -22.98,-37.17 -45.43,-37.17 -25.6,0 -46.36,20.76 -46.36,46.35 0,25.61 20.76,46.36 46.36,46.36 22.47,0 41.18,-15.98 45.44,-37.2l31.53 0c0.08,0 0.17,0.01 0.25,0l69.74 0c6.32,0.17 12.45,2.79 17.14,6.56 0,0 58.41,61.71 58.6,61.91 0.46,0.49 0.24,0.24 0,0 8.29,7.99 21.32,14.81 33.74,14.81l44.19 -0.01 0 18.61 55.52 0 0 -55.52 -55.52 0 0 18.59c0,0 -11.64,-0.02 -44.72,-0.02 -6.32,-0.15 -12.48,-2.78 -17.19,-6.56l-55.25 -58.36 214.32 0 0 22.9 55.5 -32.05z"/>
   <path id="path1334_0" class="fil29" d="M5021.53 7956.83l-55.5 -32.05 0 22.86 -283.7 0 55.24 -58.36c4.7,-3.77 10.86,-6.41 17.18,-6.56 25.59,0 40.79,-0.01 46.39,-0.02 3.79,10.81 13.98,18.61 26.09,18.61 15.32,0 27.75,-12.43 27.75,-27.76 0,-15.34 -12.43,-27.76 -27.75,-27.76 -12.11,0 -22.3,7.79 -26.09,18.58l-45.85 0c-12.42,0 -25.45,6.82 -33.73,14.81 0.23,-0.24 0.46,-0.49 -0.01,0 -0.18,0.21 -58.61,61.91 -58.61,61.91 -4.69,3.77 -10.84,6.39 -17.16,6.54l-32.09 0c-4.26,-21.2 -22.98,-37.17 -45.43,-37.17 -25.6,0 -46.36,20.76 -46.36,46.35 0,25.6 20.76,46.36 46.36,46.36 22.47,0 41.18,-15.98 45.44,-37.2l31.53 0c0.08,0 0.17,0 0.25,0l69.74 0c6.32,0.16 12.45,2.79 17.14,6.56 0,0 58.41,61.71 58.6,61.9 0.46,0.5 0.24,0.24 0,0.01 8.29,7.99 21.32,14.8 33.74,14.8l44.19 -0.01 0 18.61 55.52 0 0 -55.51 -55.52 0 0 18.58c0,0 -11.64,-0.02 -44.72,-0.02 -6.32,-0.15 -12.48,-2.78 -17.19,-6.55l-55.25 -58.37 214.32 0 0 22.91 55.5 -32.06z"/>
   <g>
    <path class="fil1" d="M4369.31 6775.1l0 683.93 805.19 0 0 -683.93 -805.19 0zm679.45 558.19l-553.72 0 0 -432.46 553.72 0 0 432.46z"/>
   </g>
   <rect class="fil6 str0" x="4344.61" y="5872.03" width="704.14" height="509.19"/>
   <polygon class="fil6" points="3161.25,7213.77 2589.13,7213.77 2589.13,6767.41 2714.88,6641.66 3161.25,6641.66 "/>
   <rect class="fil6" x="1432.87" y="7978.18" width="320.61" height="509.2"/>
   <rect class="fil6" x="2392.52" y="8045.48" width="210.61" height="448.18"/>
   <rect class="fil6" x="3208.41" y="8045.48" width="210.61" height="448.18"/>
  </g>
  <path class="fil33" d="M10981.44 3585.58c-372.1,-1005.9 -1669.18,-1296.4 -2433.54,-532.04 -444.43,444.43 -562.63,1138.81 -282.19,1698.78 601.56,1201.17 -272.42,2462.84 -1478.69,2462.84l-1612.52 0 0 -196.12 1612.52 0c1079.12,0 1835.34,-1129.41 1304.36,-2178.72 -320.32,-633.01 -185.27,-1422.29 317.87,-1925.43 589.97,-589.97 1526.02,-657.43 2194.98,-151.75 145.76,110.18 273.54,244.17 377.21,397.33l0 425.12z"/>
  <path class="fil34" d="M5174.5 6826.51l358.01 0c108.02,0 196.12,88.1 196.12,196.12l0 188.93c0,108.02 -88.1,196.12 -196.12,196.12l-358.01 0 0 -581.17z"/>
  <g>
   <polygon class="fil35" points="6469.17,7716.8 6287.74,7535.37 6706.02,7117.08 6287.74,6698.8 6503.83,6482.71 6922.11,6900.99 7340.41,6482.7 7556.5,6698.79 7138.21,7117.08 7556.5,7535.38 7340.41,7751.47 6922.11,7333.18 6503.83,7751.46 "/>
   <polygon class="fil36" points="6503.83,7682.13 6357.07,7535.37 6775.35,7117.08 6357.07,6698.8 6503.83,6552.04 6922.11,6970.32 7340.41,6552.03 7487.17,6698.79 7068.88,7117.08 7487.17,7535.38 7340.41,7682.14 6922.11,7263.85 "/>
  </g>
 </g>
</svg>
