<?xml version="1.0" encoding="UTF-8"?>
<!DOCTYPE svg PUBLIC "-//W3C//DTD SVG 1.1//EN" "http://www.w3.org/Graphics/SVG/1.1/DTD/svg11.dtd">
<!-- Creator: CorelDRAW 2017 -->
<svg xmlns="http://www.w3.org/2000/svg" xml:space="preserve" width="76.1823mm" height="18.3444mm" version="1.1" style="shape-rendering:geometricPrecision; text-rendering:geometricPrecision; image-rendering:optimizeQuality; fill-rule:evenodd; clip-rule:evenodd"
viewBox="0 0 5483.86 1320.49"
 xmlns:xlink="http://www.w3.org/1999/xlink">
 <defs>
  <style type="text/css">
   <![CDATA[
    .fil0 {fill:#FEFEFE}
    .fil2 {fill:#FA6831}
    .fil3 {fill:#FEFEFE;fill-rule:nonzero}
    .fil1 {fill:#2B2A29;fill-rule:nonzero}
   ]]>
  </style>
 </defs>
 <g id="Layer_x0020_1">
  <metadata id="CorelCorpID_0Corel-Layer"/>
  <path class="fil0" d="M-0 385.77l3064.43 0 0 934.72 -3064.43 0 0 -934.72zm5417.22 0l-2227.07 0 0 934.72 2227.07 0 0 -934.72z"/>
  <path class="fil1" d="M3381.47 1144.22l426.16 0 0 -131.38 -273.43 0 0 -454.89 -152.73 0 0 586.27zm-3073.6 -463.92l102.63 0c46.8,0 82.11,21.34 82.11,77.18 0,53.37 -33.66,73.08 -82.11,73.08l-102.63 0 0 -150.26zm-152.73 463.92l152.73 0 0 -195.42 125.63 0c128.92,0 211.85,-56.66 211.85,-201.99 0,-138.76 -102.64,-188.86 -211.85,-188.86l-278.35 0 0 586.27zm689.32 -463.92l121.52 0c42.7,0 77.18,19.7 77.18,63.22 0,45.16 -24.63,68.97 -70.61,68.97l-128.09 0 0 -132.2zm-152.73 463.92l152.73 0 0 -213.49 115.78 0c72.26,0 81.28,60.76 85.39,119.88 2.46,17.25 4.1,73.08 17.24,93.61l151.09 0c-20.53,-22.99 -22.17,-106.74 -24.63,-132.2 -4.11,-55.84 -23.81,-124.8 -85.4,-140.41l0 -1.64c62.41,-23.81 91.97,-83.75 91.97,-146.98 0,-118.24 -102.63,-165.04 -205.27,-165.04l-298.88 0 0 586.27zm1073.59 -586.27l-152.72 0 0 353.08c0,75.54 -27.1,114.13 -102.64,114.13 -75.54,0 -102.63,-38.59 -102.63,-114.13l0 -353.08 -152.73 0 0 344.04c0,169.97 78,254.54 255.36,254.54 177.36,0 255.36,-84.57 255.36,-254.54l0 -344.04zm42.29 389.21c0,150.26 120.7,209.38 254.54,209.38 128.91,0 255.36,-47.62 255.36,-196.24 0,-105.92 -85.39,-145.33 -169.97,-169.15 -85.39,-23.81 -169.97,-31.2 -169.97,-77.19 0,-38.59 41.05,-50.09 73.9,-50.09 45.98,0 96.89,18.07 94.43,70.62l152.72 0c0,-131.38 -119.06,-188.86 -234.83,-188.86 -110.03,0 -238.94,50.09 -238.94,178.18 0,108.39 88.68,145.33 171.61,169.15 84.57,23.81 168.33,32.85 168.33,85.39 0,43.52 -47.62,59.94 -93.61,59.94 -65.68,0 -107.56,-22.17 -110.85,-91.14l-152.72 0zm495.53 197.06l156.83 0 36.95 -105.1 204.45 0 36.13 105.1 159.3 0 -219.24 -586.27 -155.18 0 -219.24 586.27zm295.6 -423.69l1.64 0 64.86 205.27 -133.02 0 66.51 -205.27zm1258.56 423.69l152.73 0 0 -586.27 -152.73 0 0 586.27zm231.14 0l143.69 0 0 -365.39 1.64 0 203.63 365.39 156.83 0 0 -586.27 -143.69 0 0 361.28 -1.64 0 -203.63 -361.28 -156.83 0 0 586.27zm584.21 0l152.73 0 0 -180.64 62.4 -65.68 157.65 246.33 189.68 0 -243.87 -355.53 216.77 -230.74 -189.68 0 -192.96 224.98 0 -224.98 -152.73 0 0 586.27z"/>
  <polygon class="fil2" points="5483.86,0 4170.36,0 4170.36,486.71 5483.86,486.71 "/>
  <path class="fil3" d="M4377.66 154.79l62.68 0c16.97,0 33.08,7.4 33.08,30.03 0,22.2 -19.15,29.6 -33.08,29.6l-62.68 0 0 -59.63zm-80.96 248.1l149.29 0c66.6,0 121,-22.63 121,-96.63 0,-35.26 -20.46,-63.55 -53.54,-73.56 24.38,-12.19 40.92,-34.82 40.92,-62.68 0,-64.42 -58.76,-79.22 -112.29,-77.91l-145.38 0 0 310.77zm80.96 -136.24l64.85 0c24.37,0 43.53,9.14 43.53,36.56 0,25.68 -17.84,34.82 -43.53,34.82l-64.85 0 0 -71.38zm219.59 136.24l252.01 0 0 -69.64 -171.05 0 0 -59.19 152.34 0 0 -62.68 -152.34 0 0 -54.41 166.71 0 0 -64.85 -247.67 0 0 310.77zm530.8 -310.77l-266.38 0 0 69.64 92.71 0 0 241.14 80.96 0 0 -241.14 92.71 0 0 -69.64zm-49.83 310.77l83.13 0 19.59 -55.72 108.38 0 19.15 55.72 84.44 0 -116.21 -310.77 -82.27 0 -116.21 310.77zm156.69 -224.6l0.87 0 34.39 108.82 -70.51 0 35.26 -108.82z"/>
 </g>
</svg>
