<svg xmlns="http://www.w3.org/2000/svg" width="64" height="64" fill-rule="evenodd" clip-rule="evenodd" image-rendering="optimizeQuality" shape-rendering="geometricPrecision" text-rendering="geometricPrecision" viewBox="0 0 800 800"><path fill="#FA6831" d="M518.59 310.05c0-16.67-13.81-30.5-30.5-30.5-16.67 0-30.5 13.81-30.5 30.5v270.21c0 16.67 13.81 30.5 30.5 30.5 16.67 0 30.5-13.81 30.5-30.5V310.05zm-179.74 0c0-16.67-13.81-30.5-30.5-30.5-16.67 0-30.5 13.81-30.5 30.5v270.21c0 16.67 13.81 30.5 30.5 30.5 16.67 0 30.5-13.81 30.5-30.5V310.05z"/><path fill="#fff" d="M608.9 760H189.44c-33.36 0-59.97-26.45-59.97-59.97V190.27H99.99v-59.98h179.74V85.15c0-24.6 20.55-45.14 45.14-45.14h150.26c24.59 0 45.14 19.72 45.14 45.14v45.14h179.74v59.98h-29.48v509.76c0 33.35-26.45 59.97-59.97 59.97h-2.02.36zM458.63 99.98H338.85v30.33h119.78V99.98zm150.27 90.28H189.44v495.09c0 7.93 6.91 14.67 14.66 14.67h389.98c7.93 0 14.67-6.91 14.67-14.67V190.26h.15z"/></svg>
