<svg xmlns="http://www.w3.org/2000/svg" xml:space="preserve" width="24" height="24" style="shape-rendering:geometricPrecision;text-rendering:geometricPrecision;image-rendering:optimizeQuality;fill-rule:evenodd;clip-rule:evenodd" viewBox="0 0 158 158"><defs><style>.fil0{fill:#fff}</style></defs><path d="M112 102 88 79l24-24-10-9-23 24-24-24-9 10 24 23-24 24 10 9 23-24 24 24 9-10z" class="fil0"/><path d="M79 0C35 0 0 35 0 79s35 79 79 79 79-35 79-79S123 0 79 0zm0 13c36 0 66 30 66 66s-30 66-66 66-66-30-66-66 30-66 66-66z" class="fil0"/></svg>
