<svg xmlns="http://www.w3.org/2000/svg" width="64" height="64" fill-rule="evenodd" clip-rule="evenodd" image-rendering="optimizeQuality" shape-rendering="geometricPrecision" text-rendering="geometricPrecision" viewBox="0 0 3998.88 3998.88"><path fill="#fff" d="M2665.63 1166.09h-499.45v1666.18h499.45V1166.09zm-832.76 1666.18h-500.01V1166.09h500.01v1666.18z"/><path fill="#fff" d="M1999.53 0C895.34 0 .06 895.26.06 1999.47c0 1104.19 895.28 1999.47 1999.47 1999.47S3999 3103.66 3999 1999.47C3999 895.26 3103.72 0 1999.53 0zm0 333.35c918.42 0 1666.12 747.68 1666.12 1666.12 0 918.42-747.7 1666.12-1666.12 1666.12-918.42 0-1666.12-747.7-1666.12-1666.12 0-918.44 747.7-1666.12 1666.12-1666.12z"/></svg>
