<svg xmlns="http://www.w3.org/2000/svg" xml:space="preserve" width="12.221" height="14.661" style="shape-rendering:geometricPrecision;text-rendering:geometricPrecision;image-rendering:optimizeQuality;fill-rule:evenodd;clip-rule:evenodd" viewBox="0 0 35.63 42.74"><defs><style>.fil0{fill:#fff}</style></defs><path d="M21.28 3.56h-7.11v1.8h7.11zm3.56 12.47c0-.99-.82-1.81-1.81-1.81-.99 0-1.81.82-1.81 1.81v16.04c0 .99.82 1.81 1.81 1.81.99 0 1.81-.82 1.81-1.81V16.03zm-10.67 0c0-.99-.82-1.81-1.81-1.81-.99 0-1.81.82-1.81 1.81v16.04c0 .99.82 1.81 1.81 1.81.99 0 1.81-.82 1.81-1.81V16.03z" class="fil0"/><path d="M30.2 42.74H5.3c-1.98 0-3.56-1.57-3.56-3.56V8.92H-.01V5.36h10.67V2.68c0-1.46 1.22-2.68 2.68-2.68h8.92c1.46 0 2.68 1.17 2.68 2.68v2.68h10.67v3.56h-1.75v30.26c0 1.98-1.57 3.56-3.56 3.56h-.12zm0-33.82H5.3v29.39c0 .47.41.87.87.87h23.15c.47 0 .87-.41.87-.87V8.92z" class="fil0"/></svg>
