<svg xmlns="http://www.w3.org/2000/svg" width="24" height="24"><path d="M14 2v11h2.51L12 18.01 7.49 13H10V2h4zm2-2H8v11H3l9 10 9-10h-5V0zm3 19v3H5v-3H3v5h18v-5h-2z"/><path d="m7.518 15.998-4.46-4.955 2.471-.008 2.472-.007V.015h7.98l.008 5.5.007 5.498 2.469.008c1.357.004 2.464.018 2.459.031-.019.046-8.9 9.9-8.923 9.9-.012 0-2.03-2.23-4.483-4.954zm6.757-.492c1.23-1.367 2.236-2.496 2.236-2.51 0-.013-.563-.024-1.251-.024h-1.252V1.988H9.974v10.984H8.742c-.677 0-1.24.008-1.25.017-.024.025 4.482 5.024 4.517 5.012.016-.005 1.035-1.128 2.266-2.495z" style="fill:#fff;stroke-width:.02944785"/><path d="M3.024 21.497v-2.488h1.973v3.003h14.017V19.01h1.973v4.976H3.024z" style="fill:#fff;stroke-width:.02944785"/></svg>
