<svg xmlns="http://www.w3.org/2000/svg" xml:space="preserve" width="320" height="240" style="shape-rendering:geometricPrecision;text-rendering:geometricPrecision;image-rendering:optimizeQuality;fill-rule:evenodd;clip-rule:evenodd"><defs><clipPath id="id0"><path d="M0 0h320v240H0V0z"/></clipPath><style>.fil1{fill:#fff;fill-rule:nonzero}</style></defs><g id="Layer_x0020_2"><g style="clip-path:url(#id0)"><g id="_1481793439632"><path d="M-41.01-.67H361v241.33H-41.01z" style="fill:#545454"/><path d="M-40.84 43.05 266.1 240.41l-.33.51L-41.17 43.55zm0 88.84 167.27 108.52-.33.51L-41.17 132.4zm0 90.27 27.08 18.26-.34.5-27.07-18.26zM23.5-.92l337.67 213.75-.33.51L23.18-.41zm266.18 0 71.48 43.65-.31.51L289.36-.41z" class="fil1"/><path d="M-41.06 48.08 234.9-.96l.1.59-275.95 49.05zm-.48 49.39 402.49-72.68.11.6-402.49 72.67zm.48 49.86 402.01-73.82.11.59-402.01 73.82zm0 51.2 402.01-74.61.11.59-402.01 74.61zm334.81 41.84 67.2-12.86.11.59-67.19 12.86zm-280.8-.3 347.94-65.23.23 1.19-347.95 65.23z" class="fil1"/><path d="m157.36-1.18 203.96 126.72-.63 1.02L156.72-.15z" class="fil1"/><path d="M147.28 195.75h24.2c.98 0 1.78-.8 1.78-1.78v-22.34c0-.98-.8-1.78-1.78-1.78h-24.2c-.99 0-1.79.8-1.79 1.78v22.34c0 .98.8 1.78 1.79 1.78zM136.19 93.08c.47-17.86 8.39-29.14 25.05-29.14 7.26 0 20.32 6.21 20.32 23 0 13.89-8.09 18.86-16.79 26.53-10.71 9.09-15.9 17.59-16.16 40.27-.01.49.17.92.52 1.27.34.36.77.54 1.27.54h18.82a1.8 1.8 0 0 0 1.79-1.75c.43-18.52 8.05-24.52 18.21-33.28 9.01-7.77 18.24-14.72 18.24-34.41 0-26.73-19.89-41.86-45.18-41.86-30.06 0-48.97 19.3-49.72 48.74-.01.5.16.93.51 1.29s.78.54 1.28.54h20.05c.97 0 1.76-.77 1.79-1.74z" style="fill:#fa6831;fill-rule:nonzero;fill-opacity:.501961"/></g></g><path d="M0 0h320v240H0z" style="fill:none"/></g></svg>
