<svg xmlns="http://www.w3.org/2000/svg" width="24" height="24" fill-rule="evenodd" clip-rule="evenodd" image-rendering="optimizeQuality" shape-rendering="geometricPrecision" text-rendering="geometricPrecision" viewBox="0 0 235.3 235.3"><path fill="#fff" d="M117.65 0C52.68 0 0 52.68 0 117.65S52.68 235.3 117.65 235.3 235.3 182.62 235.3 117.65 182.62 0 117.65 0zm0 19.61c54.04 0 98.03 43.99 98.03 98.03s-43.99 98.03-98.03 98.03-98.03-43.99-98.03-98.03 43.99-98.03 98.03-98.03z"/><path fill="#FA6831" d="M91.94 94.33v19.61h19.58v58.8h19.61v-78.4H91.94zm41.64-29.38c0 6.76-5.49 12.26-12.26 12.26-6.76 0-12.26-5.49-12.26-12.26 0-6.76 5.49-12.26 12.26-12.26 6.76 0 12.26 5.49 12.26 12.26z"/></svg>
