<?xml version="1.0" encoding="UTF-8"?>
<!DOCTYPE svg PUBLIC "-//W3C//DTD SVG 1.1//EN" "http://www.w3.org/Graphics/SVG/1.1/DTD/svg11.dtd">
<!-- Creator: CorelDRAW 2017 -->
<svg xmlns="http://www.w3.org/2000/svg" xml:space="preserve" width="99.251mm" height="93.8912mm" version="1.1" style="shape-rendering:geometricPrecision; text-rendering:geometricPrecision; image-rendering:optimizeQuality; fill-rule:evenodd; clip-rule:evenodd"
viewBox="0 0 9000.9 8514.83"
 xmlns:xlink="http://www.w3.org/1999/xlink">
 <defs>
  <style type="text/css">
   <![CDATA[
    .fil4 {fill:none}
    .fil6 {fill:#727271}
    .fil5 {fill:#5B5B5B}
    .fil16 {fill:#434242}
    .fil0 {fill:#2B2A29}
    .fil23 {fill:#898778}
    .fil3 {fill:#EF7F1A}
    .fil17 {fill:#C0621E}
    .fil18 {fill:#9B531E}
    .fil20 {fill:#434242;fill-rule:nonzero}
    .fil1 {fill:#2B2A29;fill-rule:nonzero}
    .fil19 {fill:#9B531E;fill-rule:nonzero}
    .fil21 {fill:url(#id0)}
    .fil22 {fill:url(#id1)}
    .fil8 {fill:url(#id2)}
    .fil7 {fill:url(#id3)}
    .fil14 {fill:url(#id4)}
    .fil10 {fill:url(#id5)}
    .fil12 {fill:url(#id6)}
    .fil15 {fill:url(#id7)}
    .fil9 {fill:url(#id8)}
    .fil13 {fill:url(#id9)}
    .fil11 {fill:url(#id10)}
    .fil2 {fill:url(#id11)}
   ]]>
  </style>
  <linearGradient id="id0" gradientUnits="userSpaceOnUse" x1="887.8" y1="3322.4" x2="1150.09" y2="3322.4">
   <stop offset="0" style="stop-opacity:1; stop-color:#9B531E"/>
   <stop offset="1" style="stop-opacity:1; stop-color:#EF7F1A"/>
  </linearGradient>
  <linearGradient id="id1" gradientUnits="userSpaceOnUse" xlink:href="#id0" x1="8992.02" y1="3322.4" x2="8729.73" y2="3322.4">
  </linearGradient>
  <linearGradient id="id2" gradientUnits="userSpaceOnUse" x1="1405.5" y1="1369.79" x2="1532.03" y2="1369.79">
   <stop offset="0" style="stop-opacity:1; stop-color:#C5C6C6"/>
   <stop offset="0.501961" style="stop-opacity:1; stop-color:#FEFEFE"/>
   <stop offset="1" style="stop-opacity:1; stop-color:#C3C4C4"/>
  </linearGradient>
  <linearGradient id="id3" gradientUnits="userSpaceOnUse" xlink:href="#id2" x1="1086.82" y1="1456.86" x2="1213.35" y2="1456.86">
  </linearGradient>
  <linearGradient id="id4" gradientUnits="userSpaceOnUse" xlink:href="#id2" x1="8685.05" y1="1456.86" x2="8811.58" y2="1456.86">
  </linearGradient>
  <linearGradient id="id5" gradientUnits="userSpaceOnUse" xlink:href="#id2" x1="1086.82" y1="5304.36" x2="1213.35" y2="5304.36">
  </linearGradient>
  <linearGradient id="id6" gradientUnits="userSpaceOnUse" xlink:href="#id2" x1="8685.05" y1="5304.36" x2="8811.58" y2="5304.36">
  </linearGradient>
  <linearGradient id="id7" gradientUnits="userSpaceOnUse" xlink:href="#id2" x1="8366.37" y1="1369.79" x2="8492.91" y2="1369.79">
  </linearGradient>
  <linearGradient id="id8" gradientUnits="userSpaceOnUse" xlink:href="#id2" x1="5538.46" y1="2895.3" x2="5538.46" y2="2768.77">
  </linearGradient>
  <linearGradient id="id9" gradientUnits="userSpaceOnUse" xlink:href="#id2" x1="8366.37" y1="4775.74" x2="8492.91" y2="4775.74">
  </linearGradient>
  <linearGradient id="id10" gradientUnits="userSpaceOnUse" xlink:href="#id2" x1="1405.5" y1="4775.74" x2="1532.03" y2="4775.74">
  </linearGradient>
  <linearGradient id="id11" gradientUnits="userSpaceOnUse" xlink:href="#id2" x1="5538.46" y1="3848.42" x2="5538.46" y2="3721.88">
  </linearGradient>
 </defs>
 <g id="Layer_x0020_2">
  <metadata id="CorelCorpID_0Corel-Layer"/>
  <path class="fil0" d="M8791.32 7444.29l149.55 0 0 -633.96 -149.55 0 0 -6810.33 -7659.07 0 0 6810.33 -149.55 0 0 633.96 149.55 0 0 214.79 7659.07 0 0 -214.79zm-1232.08 -6599.68l240.59 241.19 0 5728.67 -5676.08 0 0 -5822.77 147.48 -147.09 5288.02 0z"/>
  <polygon class="fil1" points="2929.5,3455.04 8147.41,3455.04 8147.41,3485.75 2929.5,3485.75 "/>
  <polygon class="fil1" points="2929.5,3217.84 8147.41,3217.84 8147.41,3248.55 2929.5,3248.55 "/>
  <polygon class="fil2" points="2929.5,3848.42 2929.5,3721.88 8147.41,3721.88 8147.41,3848.42 "/>
  <polygon class="fil3" points="1851.35,4000.74 2928.12,4000.74 2928.12,4387.1 1851.35,4387.1 "/>
  <polygon class="fil3" points="935.76,354.32 1951.54,354.32 1951.54,0 935.76,0 "/>
  <polygon class="fil3" points="7946.86,354.32 8962.64,354.32 8962.64,0 7946.86,0 "/>
  <polygon class="fil3" points="-0,3113.71 -0,2961.75 247.95,2713.8 1679.63,2713.8 1679.63,2873.76 1355.7,2873.76 1303.61,2963.99 1303.61,3931.01 887.8,3931.01 887.8,3801.56 635.86,3801.56 635.86,3617.6 798.8,3335.38 620.72,3026.93 279.95,3026.93 229.3,3114.68 "/>
  <polygon class="fil0" points="56.98,3113.95 57,3785.57 635.86,3785.57 635.86,3617.6 798.8,3335.38 620.72,3026.93 279.95,3026.93 229.3,3114.68 "/>
  <polygon class="fil4" points="1764.65,2152.01 2724.44,2152.01 2724.44,3095.81 1764.65,3095.81 "/>
  <polygon class="fil0" points="2724.44,2545.07 2829.53,2545.07 2929.5,2645.04 2929.5,4000.74 1637.79,4000.74 1637.79,3260.9 1763.77,3260.9 1763.77,3095.81 1763.77,2152.01 2724.44,2152.01 "/>
  <path class="fil5" d="M2704.45 4199.55l-543.88 0 0 -543.88c0,-300.38 243.51,-543.88 543.88,-543.88 300.38,0 543.88,243.51 543.88,543.88 0,95.94 -24.88,186.05 -68.47,264.3 30.52,21.75 50.42,57.43 50.42,97.76 0,66.26 -53.71,119.97 -119.97,119.97 -35.43,0 -67.27,-15.36 -89.24,-39.79 -89.18,63.97 -198.51,101.64 -316.63,101.64z"/>
  <path class="fil0" d="M2704.45 3307.75c192.15,0 347.92,155.77 347.92,347.92 0,192.15 -155.77,347.92 -347.92,347.92 -192.15,0 -347.92,-155.77 -347.92,-347.92 0,-192.15 155.77,-347.92 347.92,-347.92zm0 87.98c143.56,0 259.94,116.38 259.94,259.94 0,143.56 -116.38,259.94 -259.94,259.94 -143.56,0 -259.94,-116.38 -259.94,-259.94 0,-143.56 116.38,-259.94 259.94,-259.94z"/>
  <path class="fil6" d="M446.91 3177.7c90.55,0 163.96,73.41 163.96,163.96 0,90.55 -73.41,163.96 -163.96,163.96 -90.55,0 -163.96,-73.41 -163.96,-163.96 0,-90.55 73.41,-163.96 163.96,-163.96z"/>
  <path class="fil0" d="M446.91 3289.68c28.71,0 51.98,23.27 51.98,51.98 0,28.71 -23.27,51.98 -51.98,51.98 -28.71,0 -51.98,-23.27 -51.98,-51.98 0,-28.71 23.27,-51.98 51.98,-51.98z"/>
  <polygon class="fil7" points="1086.82,199.91 1213.35,199.91 1213.35,2713.8 1086.82,2713.8 "/>
  <polygon class="fil8" points="1405.5,139.92 1532.03,139.92 1532.03,2599.65 1405.5,2599.65 "/>
  <polygon class="fil9" points="2929.5,2895.3 2929.5,2768.77 8147.41,2768.77 8147.41,2895.3 "/>
  <polygon class="fil5" points="1213.35,2589.64 1741.96,2589.64 1741.96,2713.8 1213.35,2713.8 "/>
  <polygon class="fil5" points="8156.44,2589.64 8685.05,2589.64 8685.05,2713.8 8156.44,2713.8 "/>
  <polygon class="fil10" points="1086.82,6677.72 1213.35,6677.72 1213.35,3931.01 1086.82,3931.01 "/>
  <polygon class="fil11" points="1405.5,6677.72 1532.03,6677.72 1532.03,2873.76 1405.5,2873.76 "/>
  <polygon class="fil3" points="2047.91,6810.33 935.76,6810.33 935.76,6677.72 2047.91,6677.72 "/>
  <polygon class="fil5" points="2182.29,6565.58 7749.05,6565.58 7749.05,6661.57 2182.29,6661.57 "/>
  <polygon class="fil3" points="8992.02,3931.01 8147.41,3931.01 8147.41,2713.8 8992.02,2713.8 "/>
  <polygon class="fil12" points="8811.58,6677.72 8685.05,6677.72 8685.05,3931.01 8811.58,3931.01 "/>
  <polygon class="fil13" points="8492.91,6677.72 8366.37,6677.72 8366.37,2873.76 8492.91,2873.76 "/>
  <polygon class="fil14" points="8811.58,199.91 8685.05,199.91 8685.05,2713.8 8811.58,2713.8 "/>
  <polygon class="fil15" points="8492.91,139.92 8366.37,139.92 8366.37,2599.65 8492.91,2599.65 "/>
  <path class="fil0" d="M2791.95 8258.63l-165.57 -165.56 0 -592.67 241.38 -418.07c1406.09,0.38 2810.76,0 4216.86,0l241.38 418.07 0 592.67 -165.57 165.56 -4368.47 0z"/>
  <polygon class="fil3" points="3146.79,7245.13 3146.79,8425.66 3198.27,8514.83 6865.96,8514.83 6917.77,8425.09 6917.77,7259.52 6839.08,7180.83 3210.37,7180.83 "/>
  <polygon class="fil16" points="3708.55,7418.82 5767.29,7418.82 5767.29,7980.29 3708.55,7980.29 "/>
  <polygon class="fil3" points="9000.9,6810.33 7888.74,6810.33 7888.74,6677.72 9000.9,6677.72 "/>
  <polygon class="fil0" points="2449.87,4387.1 2503.99,4441.22 2557.98,4387.23 "/>
  <path class="fil17" d="M6425.85 7367.87c131.01,0 237.21,106.2 237.21,237.21 0,131.01 -106.2,237.21 -237.21,237.21 -131.01,0 -237.21,-106.2 -237.21,-237.21 0,-131.01 106.2,-237.21 237.21,-237.21z"/>
  <path class="fil18" d="M6425.85 7489.91c63.61,0 115.17,51.57 115.17,115.17 0,17.78 -4.03,34.62 -11.23,49.66l170.92 170.91 -54.3 54.3 -170.92 -170.91c-15.04,7.19 -31.88,11.22 -49.65,11.22 -63.61,0 -115.17,-51.57 -115.17,-115.17 0,-63.61 51.57,-115.17 115.17,-115.17z"/>
  <polygon class="fil18" points="3210.37,7180.83 3210.37,8308.15 3242.87,8364.45 6852.95,8364.45 6920.71,8296.69 6917.77,8425.09 6865.96,8514.83 3198.27,8514.83 3146.79,8425.66 3146.79,7245.13 "/>
  <path class="fil19" d="M3566.97 8210.27c0,-29.96 12.7,-58.72 46.49,-58.72 33.79,0 46.5,28.76 46.5,58.72 0,28.51 -12.71,57.27 -46.5,57.27 -33.79,0 -46.49,-28.76 -46.49,-57.27zm-37.63 0c0,49.36 31.4,88.9 84.11,88.9 52.73,0 84.12,-39.54 84.12,-88.9 0,-50.81 -31.4,-90.35 -84.12,-90.35 -52.72,0 -84.11,39.54 -84.11,90.35zm231.5 -57.04l41.22 0c17.01,0 25.88,7.19 25.88,23.72 0,17.26 -8.87,24.45 -25.88,24.45l-41.22 0 0 -48.17zm-37.63 141.87l37.63 0 0 -66.86 37.63 0c18.93,0 25.88,7.91 28.51,25.88 1.92,13.67 1.68,30.2 5.99,40.98l37.63 0c-6.96,-9.35 -6.48,-29.72 -7.19,-40.5 -1.2,-17.49 -6.48,-34.99 -24.92,-40.02l0 -0.48c19.17,-7.66 27.08,-22.76 27.08,-42.9 0,-25.88 -19.42,-47.2 -50.09,-47.2l-92.27 0 0 171.1zm173.02 0l37.63 0 0 -171.1 -37.63 0 0 171.1zm198.18 0l23.97 0 0 -92.5 -71.9 0 0 28.04 37.87 0c-2.16,23.96 -16.06,36.9 -40.75,36.9 -33.79,0 -46.49,-28.76 -46.49,-57.27 0,-29.96 12.7,-58.72 46.49,-58.72 17.97,0 31.63,9.59 36.19,28.76l35.94 0c-3.84,-39.06 -37.15,-60.39 -72.13,-60.39 -52.72,0 -84.11,39.54 -84.11,90.35 0,49.36 31.4,88.9 84.11,88.9 16.54,0 33.55,-6.23 46.98,-23.48l3.83 19.41zm54.4 0l37.63 0 0 -171.1 -37.63 0 0 171.1zm70.69 0l35.23 0 0 -114.55 0.48 0 71.17 114.55 37.63 0 0 -171.1 -35.23 0 0 114.78 -0.48 0 -71.41 -114.78 -37.39 0 0 171.1zm243 -128.93l0.48 0 21.57 62.79 -44.33 0 22.28 -62.79zm-83.63 128.93l38.11 0 13.41 -38.11 63.99 0 12.94 38.11 39.06 0 -63.98 -171.1 -38.59 0 -64.94 171.1zm182.36 0l121.02 0 0 -31.63 -83.4 0 0 -139.47 -37.63 0 0 171.1z"/>
  <path class="fil19" d="M4812.46 8104.72l39.23 0c23.15,0 44.37,5.15 44.37,34.41 0,29.27 -21.22,34.41 -44.37,34.41l-39.23 0 0 -68.81zm-50.49 190.37l50.49 0 0 -82.33 53.05 0c57.57,0 79.43,-36.33 79.43,-73.64 0,-37.3 -21.86,-73.64 -79.43,-73.64l-103.54 0 0 229.6zm264.97 -190.37l55.31 0c22.83,0 34.72,9.65 34.72,31.84 0,23.15 -11.9,32.8 -34.72,32.8l-55.31 0 0 -64.64zm-50.49 190.37l50.49 0 0 -89.72 50.49 0c25.4,0 34.72,10.61 38.26,34.73 2.58,18.33 2.26,40.51 8.04,54.98l50.49 0c-9.32,-12.54 -8.68,-39.88 -9.65,-54.35 -1.61,-23.47 -8.68,-46.95 -33.45,-53.7l0 -0.64c25.73,-10.29 36.34,-30.55 36.34,-57.56 0,-34.73 -26.05,-63.35 -67.21,-63.35l-123.8 0 0 229.6zm427.04 -229.6l-50.49 0 0 142.78c0,34.41 -11.58,49.84 -47.59,49.84 -40.84,0 -47.28,-24.76 -47.28,-49.84l0 -142.78 -50.49 0 0 142.78c0,62.71 35.69,92.29 97.76,92.29 61.41,0 98.08,-30.23 98.08,-92.29l0 -142.78zm28.94 153.39c-0.96,56.6 46.95,81.68 97.76,81.68 62.7,0 95.5,-31.51 95.5,-73.64 0,-51.77 -51.13,-63.03 -68.17,-66.89 -57.57,-14.46 -68.5,-17.04 -68.5,-34.72 0,-19.3 18.65,-26.05 34.72,-26.05 24.44,0 43.74,7.4 45.34,34.73l48.88 0c0,-53.06 -44.06,-73.97 -91.97,-73.97 -41.49,0 -85.86,22.19 -85.86,69.47 0,42.44 34.41,56.92 68.5,65.28 33.45,9.32 68.17,12.86 68.17,37.94 0,23.47 -27.01,28.62 -44.7,28.62 -27.01,0 -50.8,-11.9 -50.8,-42.45l-48.88 0zm310.96 -96.79l0.64 0 28.94 84.25 -59.49 0 29.91 -84.25zm-112.23 173.01l51.13 0 18 -51.13 85.86 0 17.37 51.13 52.42 0 -85.86 -229.6 -51.77 0 -87.14 229.6z"/>
  <path class="fil20" d="M2388.13 273.17l76.75 0c45.3,0 86.82,10.08 86.82,67.31 0,57.26 -41.52,67.32 -86.82,67.32l-76.75 0 0 -134.63zm-98.77 372.44l98.77 0 0 -161.06 103.79 0c112.63,0 155.4,-71.07 155.4,-144.07 0,-72.97 -42.78,-144.06 -155.4,-144.06l-202.56 0 0 449.19zm518.38 -372.44l108.21 0c44.65,0 67.93,18.88 67.93,62.29 0,45.29 -23.28,64.17 -67.93,64.17l-108.21 0 0 -126.46zm-98.77 372.44l98.77 0 0 -175.52 98.77 0c49.7,0 67.93,20.76 74.85,67.95 5.04,35.85 4.42,79.25 15.74,107.57l98.77 0c-18.24,-24.54 -16.99,-78.01 -18.88,-106.32 -3.14,-45.92 -16.98,-91.86 -65.43,-105.05l0 -1.26c50.33,-20.13 71.09,-59.77 71.09,-112.61 0,-67.95 -50.95,-123.94 -131.48,-123.94l-242.2 0 0 449.19zm835.46 -449.19l-98.77 0 0 279.33c0,67.31 -22.66,97.51 -93.11,97.51 -79.9,0 -92.49,-48.44 -92.49,-97.51l0 -279.33 -98.77 0 0 279.33c0,122.68 69.83,180.56 191.26,180.56 120.14,0 191.88,-59.14 191.88,-180.56l0 -279.33zm56.61 300.09c-1.88,110.72 91.86,159.8 191.26,159.8 122.66,0 186.84,-61.66 186.84,-144.07 0,-101.29 -100.03,-123.31 -133.37,-130.86 -112.63,-28.3 -134.01,-33.34 -134.01,-67.93 0,-37.75 36.47,-50.98 67.93,-50.98 47.82,0 85.57,14.48 88.71,67.95l95.63 0c0,-103.81 -86.19,-144.7 -179.93,-144.7 -81.17,0 -167.98,43.41 -167.98,135.91 0,83.03 67.32,111.35 134.01,127.71 65.43,18.24 133.37,25.16 133.37,74.23 0,45.92 -52.83,56 -87.45,56 -52.83,0 -99.39,-23.28 -99.39,-83.05l-95.63 0zm608.35 -189.37l1.26 0 56.62 164.83 -116.39 0 58.51 -164.83zm-219.56 338.47l100.03 0 35.22 -100.03 167.98 0 33.97 100.03 102.55 0 -167.98 -449.19 -101.29 0 -170.48 449.19z"/>
  <polygon class="fil21" points="887.8,3931.01 1150.09,3931.01 1150.09,2713.8 887.8,2713.8 "/>
  <polygon class="fil22" points="8992.02,3931.01 8729.73,3931.01 8729.73,2713.8 8992.02,2713.8 "/>
  <polygon class="fil23" points="1637.79,4147.5 1857.95,4147.5 1857.95,3260.47 1637.79,3260.47 "/>
 </g>
</svg>
