<svg xmlns="http://www.w3.org/2000/svg" xml:space="preserve" width="102.831" height="102.831" style="shape-rendering:geometricPrecision;text-rendering:geometricPrecision;image-rendering:optimizeQuality;fill-rule:evenodd;clip-rule:evenodd" viewBox="0 0 756.91 756.91"><defs><style>.fil1{fill:#2b2a29}</style></defs><g id="Layer_x0020_1"><g id="Layer_x0020_1.pdf"><path d="M614.07 316.59c0 129.72-105.47 234.94-235.5 234.94s-235.5-105.23-235.5-234.94c0-129.72 105.47-234.95 235.5-234.95 130.02 0 235.5 105.23 235.5 234.95zm-418.66 0c0 100.74 82.19 182.73 183.17 182.73 100.97 0 183.16-82 183.16-182.73 0-100.74-82.19-182.74-183.16-182.74-100.98 0-183.17 82-183.17 182.74z" style="fill:#ef7f1a"/><path d="m470.04 587.4 46.08 69.65H240.77l46.08-69.65c-16.59-6.27-32.49-14.16-47.35-23.57l-76.04 114.92c-4.15 6.27-4.49 13.82-1.04 20.43 3.57 6.62 9.91 10.56 17.4 10.56h396.89c7.49 0 13.94-3.83 17.4-10.56 3.57-6.62 3.22-14.16-.92-20.43l-76.04-114.92c-14.86 9.4-30.64 17.3-47.35 23.57h.23zM431.15 317.25c0-29.02-23.68-52.7-52.7-52.7-29.14 0-52.7 23.68-52.7 52.7 0 29.02 23.68 52.7 52.7 52.7 29.02 0 52.7-23.68 52.7-52.7z" class="fil1"/></g><path d="M0 0h756.91v756.91H0z" style="fill:none"/></g></svg>
