<svg xmlns="http://www.w3.org/2000/svg" viewBox="0 0 24 24"><path fill="#ef7f1a" d="M19.59 9.672a7.006 7.006 0 00-.273-2.006.485.485 0 00-.272-.288c-.193-.08-1.011.45-1.14.192h-.433c-.096-.048-.353-.385-.466-.352-.242.08.353.738.53.818.16-.113.642-.353.754-.032.208.606-.561 1.284-.947 1.637-.578.53-.485-.337-.866-.642-.209-.16-.209-.499-.417-.626a2.393 2.393 0 01-.53-.625l-.017.13c-.064.048-.224-.209-.242-.243 0 .224.363.578.485.754a8.677 8.677 0 00.56 1.011c.13.129.659.69.787.69l.69-.321c.485.112-1.155 2.44-1.316 2.728-.128.242.113.835.08 1.124-.016.32-.288.433-.53.606-.24.172-.208.56-.417.706-.4.243-.673 1.028-1.236 1.028-.16 0-.866.273-.963 0a2.771 2.771 0 00-.273-.53c-.096-.192-.016-.385-.128-.545a2.862 2.862 0 01-.386-.514c0-.113.096-.485.209-.545.177-.096.031-.353.015-.498a.97.97 0 00-.4-.643c-.29-.224-.145-.401-.08-.738 0-.16-.096-.353-.306-.305-.434.128-.306-.337-.606-.322a2.909 2.909 0 00-.626.225c-.257.08-.53-.065-.786-.096a1.659 1.659 0 01-1.142-2.24c.031-.143-.08-.416-.032-.529a3.03 3.03 0 01.578-.77c.113-.113.273-.08.417-.178.225-.144.225-.417.434-.594a2.168 2.168 0 011.121-.293c.209-.031 1.011-.208 1.14-.048 0 .031.143.465-.016.434.32.015.802.578 1.108.433.16-.064.095-.56.433-.32a1.863 1.863 0 001.284.048c.113-.096.177-.707.032-.771.08.08-.465.096-.514.08-.096-.032-.177.08-.321.016.096.048-.498-.273-.16-.514l-.417.08c-.096.08.048.144-.096.208-.224.113-.401-.401-.498-.465s-.77-.53-.578-.224l.594.594c-.032.015-.16-.225-.16-.049.048-.096.016.45-.08.257v-.208c0-.065-.177-.129-.209-.177a2.545 2.545 0 00-.484-.45 4.458 4.458 0 00-.626.08l-.144.242a1.997 1.997 0 00-.321.16l-.113.273a4.651 4.651 0 01-.58.225c.015-.064-.364-.128-.353-.242a2.28 2.28 0 00.128-.658c-.031-.144.818.208.867-.177.016-.177.031-.364-.243-.401a2.474 2.474 0 00.606-.273.985.985 0 01.546-.337c.208 0 .16-.321.273-.465.095.031-.049.288.064.385 0-.08.337.049.363.032.08-.049.514-.016.45-.225-.064-.208.032-.144.144-.192-.015 0 .257-.466.306-.322-.032-.16-.321.065-.417.049-.224-.016-.129-.401-.049-.514.08-.113-.192-.193-.192-.031 0 .257-.243.484-.177.802.08.498-.562-.129-.606-.08-.209.128-.386-.16-.273-.337.113-.177.385-.177.498-.364a2.303 2.303 0 01.3-.406c.402-.336.515-.064.932-.031.417.033.128.096.08.242-.049.147.224.193.305.08a1.854 1.854 0 00.225-.377c.065-.16.69-.144.257-.4a6.632 6.632 0 00-2.36-.509c-.177 0-.305.193-.45.322-.272.224-.962.658-1.346.53-.384-.13-1.236.497-1.381.513-.049 0 0-.485.272-.514-.112.016.947-.53.916-.658a4.874 4.874 0 00-2.04.787c.048.064.224.064-.016.224-.144.08-.289.606-.417.606-.386.16-.401-.337-.835.305l-.674.273a7.619 7.619 0 00-1.96 3.952c-.015.064.258.177.29.209.08.095.08.545.128.69a4.418 4.418 0 00.561.899 1.864 1.864 0 01.257.899c.08-.129.818.625.947.77.32.364.56.819.048 1.189-.16.112.257.848.032 1.044l-.273.064c-.273.16-.144.578.016.754a7.606 7.606 0 0013.1-5.265zm-4.783-4.097c0-.113-.144-.208-.289-.016-.095.129-.08.337-.144.417-.08.129.434.257.434.129.016-.209.561-.049.658-.016.193.048.485-.177.16-.289-.272-.095-.417-.208-.434-.4 0 0 .145-.13.08-.13-.16.016-.465.595-.465.306zm-1.939 1.172c-.032-.048.257-.08.305-.08.049 0-.148.34-.309.084zm-2.025-1.922c.096-.048.224-.048.242-.16l.065-.08c.031-.032-.049-.113-.08-.113l-.113.08-.049.016-.048.064v.032l-.064.08c-.065.064 0 .113.064.08zm.385-.417l.08-.016-.032.092a.284.284 0 010 .257l-.113.065c-.049.048.193.064.193.064.015.031-.289.064-.225.128.08.096.626-.144.546-.128.177-.08.016-.096-.08-.144a1.212 1.212 0 00-.16-.514l.064-.08c-.16-.224-.273.273-.273.273z"/><path fill="#585858" d="M7.41 20.17H3.734V22H7.41zM8.325 22v-1.83h2.76v-1.83h1.83v1.83h2.76V22H8.34zm8.266-1.83V22h3.675v-1.83z"/></svg>
