<svg xmlns="http://www.w3.org/2000/svg" width="287.933" height="69.333" viewBox="0 0 5483.86 1320.49" shape-rendering="geometricPrecision" text-rendering="geometricPrecision" image-rendering="optimizeQuality" fill-rule="evenodd" clip-rule="evenodd"><path d="M0 385.77h3064.43v934.72H0V385.77zm5417.22 0H3190.15v934.72h2227.07V385.77z" fill="#fefefe"/><path d="M3381.47 1144.22h426.16v-131.38H3534.2V557.95h-152.73v586.27zM307.87 680.3H410.5c46.8 0 82.11 21.34 82.11 77.18 0 53.37-33.66 73.08-82.11 73.08H307.87V680.3zm-152.73 463.92h152.73V948.8H433.5c128.92 0 211.85-56.66 211.85-201.99 0-138.76-102.64-188.86-211.85-188.86H155.15v586.27zM844.46 680.3h121.52c42.7 0 77.18 19.7 77.18 63.22 0 45.16-24.63 68.97-70.61 68.97H844.46v-132.2zm-152.73 463.92h152.73V930.73h115.78c72.26 0 81.28 60.76 85.39 119.88 2.46 17.25 4.1 73.08 17.24 93.61h151.09c-20.53-22.99-22.17-106.74-24.63-132.2-4.11-55.84-23.81-124.8-85.4-140.41v-1.64c62.41-23.81 91.97-83.75 91.97-146.98 0-118.24-102.63-165.04-205.27-165.04H691.75v586.27zm1073.59-586.27H1612.6v353.08c0 75.54-27.1 114.13-102.64 114.13-75.54 0-102.63-38.59-102.63-114.13V557.95H1254.6v344.04c0 169.97 78 254.54 255.36 254.54s255.36-84.57 255.36-254.54V557.95zm42.29 389.21c0 150.26 120.7 209.38 254.54 209.38 128.91 0 255.36-47.62 255.36-196.24 0-105.92-85.39-145.33-169.97-169.15-85.39-23.81-169.97-31.2-169.97-77.19 0-38.59 41.05-50.09 73.9-50.09 45.98 0 96.89 18.07 94.43 70.62h152.72c0-131.38-119.06-188.86-234.83-188.86-110.03 0-238.94 50.09-238.94 178.18 0 108.39 88.68 145.33 171.61 169.15 84.57 23.81 168.33 32.85 168.33 85.39 0 43.52-47.62 59.94-93.61 59.94-65.68 0-107.56-22.17-110.85-91.14h-152.72zm495.53 197.06h156.83l36.95-105.1h204.45l36.13 105.1h159.3l-219.24-586.27h-155.18l-219.24 586.27zm295.6-423.69h1.64l64.86 205.27h-133.02l66.51-205.27zm1258.56 423.69h152.73V557.95H3857.3v586.27zm231.14 0h143.69V778.83h1.64l203.63 365.39h156.83V557.95h-143.69v361.28h-1.64l-203.63-361.28h-156.83v586.27zm584.21 0h152.73V963.58l62.4-65.68 157.65 246.33h189.68L4991.24 788.7l216.77-230.74h-189.68l-192.96 224.98V557.96h-152.73v586.27z" fill="#2b2a29" fill-rule="nonzero"/><path fill="#fa6831" d="M5483.86 0h-1313.5v486.71h1313.5z"/><path d="M4377.66 154.79h62.68c16.97 0 33.08 7.4 33.08 30.03 0 22.2-19.15 29.6-33.08 29.6h-62.68v-59.63zm-80.96 248.1h149.29c66.6 0 121-22.63 121-96.63 0-35.26-20.46-63.55-53.54-73.56 24.38-12.19 40.92-34.82 40.92-62.68 0-64.42-58.76-79.22-112.29-77.91H4296.7v310.77zm80.96-136.24h64.85c24.37 0 43.53 9.14 43.53 36.56 0 25.68-17.84 34.82-43.53 34.82h-64.85v-71.38zm219.59 136.24h252.01v-69.64h-171.05v-59.19h152.34v-62.68h-152.34v-54.41h166.71V92.12h-247.67v310.77zm530.8-310.77h-266.38v69.64h92.71V402.9h80.96V161.76h92.71V92.12zm-49.83 310.77h83.13l19.59-55.72h108.38l19.15 55.72h84.44L5276.7 92.12h-82.27l-116.21 310.77zm156.69-224.6h.87l34.39 108.82h-70.51l35.26-108.82z" fill="#fefefe" fill-rule="nonzero"/></svg>
