<svg xmlns="http://www.w3.org/2000/svg" fill-rule="evenodd" clip-rule="evenodd" image-rendering="optimizeQuality" shape-rendering="geometricPrecision" text-rendering="geometricPrecision" viewBox="0 0 24 24"><path d="M20.65 17.68v.651h-3.907v-.651zm0-1.489v.697h-3.907v-.697zm.419-1.489v.697h-4.326v-.697zm-.419-1.489v.697h-3.907v-.697zm.419-1.442v.651h-4.326v-.651zm-.419-1.489v.697h-3.907v-.697zm0-1.489v.697h-3.907v-.697zm0-1.489v.697h-3.907v-.697zm-7.07-2.605h-1.721c-.624 0-.006 1.024-.976 1.024-1.118 0-.842.055-1.385-.477-.245-.24-.358-.547-.663-.547H2.788c-.375 0-.79.341-.79.698v13.12c0 .424.364.79.79.79h18.51c.328 0 .698-.369.698-.697V7.08c0-.327-.371-.616-.669-.68-.225-.047-4.662-.021-5.378-.017-.713.005-.798-.222-1.29-.71l-.652-.698c-.12-.122-.21-.267-.43-.267z"/></svg>
