<svg xmlns="http://www.w3.org/2000/svg" width="24" height="24" viewBox="0 0 158 158" shape-rendering="geometricPrecision" text-rendering="geometricPrecision" image-rendering="optimizeQuality" fill-rule="evenodd" clip-rule="evenodd"><defs><style>.fil0{fill:#fff}</style></defs><g id="Layer_x0020_1"><path id="iconmonstr-x-mark-11.svg" class="fil0" d="M112 102L88 79l24-24-10-9-23 24-24-24-9 10 24 23-24 24 10 9 23-24 24 24 9-10z"/><path id="iconmonstr-x-mark-11.svg_0" class="fil0" d="M79 0C35 0 0 35 0 79s35 79 79 79 79-35 79-79S123 0 79 0zm0 13c36 0 66 30 66 66s-30 66-66 66-66-30-66-66 30-66 66-66z"/></g></svg>
