<svg xmlns="http://www.w3.org/2000/svg" width="284.434" height="49.078" viewBox="0 0 5351.38 923.36" shape-rendering="geometricPrecision" text-rendering="geometricPrecision" image-rendering="optimizeQuality" fill-rule="evenodd" clip-rule="evenodd"><defs><style>.fil0{fill:#fefefe}.fil1{fill:#2b2a29;fill-rule:nonzero}</style></defs><g id="Layer_x0020_1"><g id="_1905460437312"><path class="fil0" d="M0 0h3027.19v923.36H0V0zm304.12 290.95h101.39c46.23 0 81.11 21.08 81.11 76.24 0 52.72-33.25 72.19-81.11 72.19H304.12V290.95zM153.25 749.23h150.87V556.18h124.1c127.35 0 209.27-55.97 209.27-199.54 0-137.08-101.39-186.56-209.27-186.56H153.25v579.14zm680.94-458.28h120.05c42.18 0 76.24 19.46 76.24 62.45 0 44.61-24.33 68.14-69.75 68.14H834.19V290.95zM683.32 749.23h150.87V538.34h114.37c71.38 0 80.3 60.02 84.36 118.42 2.43 17.04 4.05 72.19 17.03 92.47h149.25c-20.28-22.71-21.9-105.45-24.33-130.59-4.06-55.16-23.52-123.29-84.36-138.7v-1.62c61.65-23.52 90.85-82.73 90.85-145.19 0-116.8-101.39-163.04-202.78-163.04H683.33v579.14zm1060.54-579.14H1593v348.79c0 74.62-26.77 112.74-101.39 112.74s-101.39-38.12-101.39-112.74V170.09h-150.87v339.86c0 167.9 77.05 251.45 252.26 251.45 175.2 0 252.26-83.55 252.26-251.45V170.09zm41.78 384.48c0 148.43 119.23 206.83 251.45 206.83 127.34 0 252.26-47.05 252.26-193.86 0-104.64-84.36-143.57-167.9-167.09-84.36-23.52-167.9-30.83-167.9-76.25 0-38.12 40.55-49.48 73-49.48 45.42 0 95.71 17.85 93.28 69.76h150.86c0-129.78-117.61-186.56-231.98-186.56-108.69 0-236.04 49.48-236.04 176.02 0 107.07 87.6 143.57 169.52 167.09 83.55 23.52 166.28 32.45 166.28 84.36 0 42.99-47.05 59.21-92.47 59.21-64.89 0-106.26-21.9-109.5-90.03h-150.86zm489.5 194.67h154.92l36.5-103.83h201.97l35.69 103.83h157.36L2645 170.1h-153.3l-216.58 579.14zm292.01-418.54h1.62l64.08 202.78h-131.4l65.7-202.78z"/><path class="fil1" d="M304.12 290.95h101.39c46.23 0 81.11 21.08 81.11 76.24 0 52.72-33.25 72.19-81.11 72.19H304.12V290.95zM153.25 749.23h150.87V556.18h124.1c127.35 0 209.27-55.97 209.27-199.54 0-137.08-101.39-186.56-209.27-186.56H153.25v579.14zm680.94-458.28h120.05c42.18 0 76.24 19.46 76.24 62.45 0 44.61-24.33 68.14-69.75 68.14H834.19V290.95zM683.32 749.23h150.87V538.34h114.37c71.38 0 80.3 60.02 84.36 118.42 2.43 17.04 4.05 72.19 17.03 92.47h149.25c-20.28-22.71-21.9-105.45-24.33-130.59-4.06-55.16-23.52-123.29-84.36-138.7v-1.62c61.65-23.52 90.85-82.73 90.85-145.19 0-116.8-101.39-163.04-202.78-163.04H683.33v579.14zm1060.54-579.14H1593v348.79c0 74.62-26.77 112.74-101.39 112.74s-101.39-38.12-101.39-112.74V170.09h-150.87v339.86c0 167.9 77.05 251.45 252.26 251.45 175.2 0 252.26-83.55 252.26-251.45V170.09zm41.78 384.48c0 148.43 119.23 206.83 251.45 206.83 127.34 0 252.26-47.05 252.26-193.86 0-104.64-84.36-143.57-167.9-167.09-84.36-23.52-167.9-30.83-167.9-76.25 0-38.12 40.55-49.48 73-49.48 45.42 0 95.71 17.85 93.28 69.76h150.86c0-129.78-117.61-186.56-231.98-186.56-108.69 0-236.04 49.48-236.04 176.02 0 107.07 87.6 143.57 169.52 167.09 83.55 23.52 166.28 32.45 166.28 84.36 0 42.99-47.05 59.21-92.47 59.21-64.89 0-106.26-21.9-109.5-90.03h-150.86zm489.5 194.67h154.92l36.5-103.83h201.97l35.69 103.83h157.36L2645 170.1h-153.3l-216.58 579.14zm292.01-418.54h1.62l64.08 202.78h-131.4l65.7-202.78z"/><path class="fil0" d="M5351.38 0H3151.37v923.36h2200.01V0zM3340.37 749.23h420.98V619.45h-270.11V170.09h-150.87v579.14zm470.05 0h150.87V170.09h-150.87v579.14zm228.33 0h141.95V388.28h1.62l201.16 360.95h154.92V170.09h-141.95v356.89h-1.62l-201.16-356.89h-154.92v579.14zm577.11 0h150.87V570.78l61.64-64.89 155.73 243.33h187.37l-240.9-351.21 214.14-227.93h-187.37l-190.61 222.25V170.08h-150.87v579.14z"/><path class="fil1" d="M3340.38 749.23h420.98V619.45h-270.11V170.09h-150.87v579.14zm470.05 0h150.87V170.09h-150.87v579.14zm228.33 0h141.95V388.28h1.62l201.16 360.95h154.92V170.09h-141.95v356.89h-1.62l-201.16-356.89h-154.92v579.14zm577.11 0h150.87V570.78l61.64-64.89 155.73 243.33h187.37l-240.9-351.21 214.14-227.93h-187.37l-190.61 222.25V170.08h-150.87v579.14z"/></g></g></svg>
