<svg xmlns="http://www.w3.org/2000/svg" width="399.999" height="69.333" viewBox="0 0 10583.32 1834.44" shape-rendering="geometricPrecision" text-rendering="geometricPrecision" image-rendering="optimizeQuality" fill-rule="evenodd" clip-rule="evenodd"><defs><style>.fil0,.fil1,.fil3{fill:#fefefe}.fil1,.fil3{fill-rule:nonzero}.fil1{fill:#2b2a29}</style></defs><g id="Layer_x0020_1"><path class="fil0" d="M0 535.92h4257.14v1298.52H0z"/><path class="fil1" d="M427.69 945.08h142.58c65.02 0 114.07 29.65 114.07 107.22 0 74.14-46.76 101.52-114.07 101.52H427.69V945.08zm-212.17 644.48h212.17v-271.48h174.52c179.09 0 294.3-78.71 294.3-280.61 0-192.77-142.59-262.36-294.3-262.36H215.52v814.45z"/><path id="1" class="fil1" d="M1173.13 945.08h168.82c59.32 0 107.22 27.37 107.22 87.83 0 62.74-34.22 95.82-98.09 95.82h-177.95V945.08zm-212.17 644.48h212.17v-296.58h160.84c100.38 0 112.92 84.41 118.63 166.54 3.42 23.96 5.7 101.52 23.95 130.04h209.89c-28.52-31.94-30.8-148.29-34.22-183.65-5.71-77.57-33.08-173.38-118.64-195.06v-2.28c86.7-33.08 127.76-116.35 127.76-204.18 0-164.26-142.58-229.28-285.17-229.28H960.96v814.45z"/><path id="2" class="fil1" d="M2452.4 775.11h-212.16v490.5c0 104.94-37.65 158.55-142.59 158.55s-142.58-53.61-142.58-158.55v-490.5H1742.9v477.95c0 236.12 108.36 353.61 354.75 353.61s354.75-117.49 354.75-353.61V775.11z"/><path id="3" class="fil1" d="M2511.15 1315.8c0 208.74 167.68 290.87 353.61 290.87 179.08 0 354.75-66.16 354.75-272.62 0-147.15-118.63-201.9-236.12-234.98-118.63-33.08-236.12-43.35-236.12-107.23 0-53.61 57.03-69.58 102.66-69.58 63.88 0 134.6 25.1 131.18 98.1h212.16c0-182.51-165.4-262.36-326.23-262.36-152.85 0-331.94 69.59-331.94 247.53 0 150.57 123.19 201.9 238.4 234.98 117.49 33.08 233.84 45.63 233.84 118.63 0 60.46-66.16 83.27-130.04 83.27-91.25 0-149.43-30.8-153.99-126.61h-212.16z"/><path id="4" class="fil1" d="M3199.54 1589.56h217.87l51.33-146.01h284.03l50.19 146.01h221.3l-304.57-814.45h-215.58l-304.57 814.45zm410.65-588.59h2.28l90.11 285.17h-184.79l92.4-285.17z"/><path class="fil0" d="M4431.78 535.92h6058.96v1298.52H4431.78z"/><path class="fil1" d="M5450.42 1065.99c-5.7-196.2-195.05-307.99-371.86-307.99-247.53 0-406.08 188.22-406.08 424.34 0 236.12 158.55 424.33 406.08 424.33 206.46 0 359.31-122.05 371.86-333.08h-212.16c-7.99 94.68-63.88 150.57-164.26 150.57-136.88 0-189.35-119.77-189.35-241.82 0-122.06 52.47-241.83 189.35-241.83 90.11 0 151.71 43.35 164.26 125.48h212.16z"/><path id="1" class="fil1" d="M5708.79 1182.34c0-122.06 52.47-241.83 189.35-241.83 136.89 0 189.36 119.77 189.36 241.83 0 122.05-52.47 241.82-189.36 241.82-136.88 0-189.35-119.77-189.35-241.82zm-212.16 0c0 236.12 146 424.33 401.51 424.33 255.52 0 401.52-188.21 401.52-424.33 0-236.12-146-424.34-401.52-424.34-255.51 0-401.51 188.22-401.51 424.34z"/><path id="2" class="fil1" d="M6376.66 1589.56h199.62v-507.6h2.28l282.89 507.6h217.87V775.11H6879.7v501.9h-2.28l-282.89-501.9h-217.87z"/><path id="3" class="fil1" d="M7185.97 1589.56h199.62v-507.6h2.28l282.89 507.6h217.87V775.11h-199.62v501.9h-2.28l-282.89-501.9h-217.87z"/><path id="4" class="fil1" d="M7997.56 1589.56h660.46v-182.51h-448.29v-155.13h399.24v-164.26h-399.24V945.08h436.88V775.11h-649.05z"/><path id="5" class="fil1" d="M9495.85 1065.99C9490.15 869.79 9300.8 758 9123.99 758c-247.53 0-406.08 188.22-406.08 424.34 0 236.12 158.55 424.33 406.08 424.33 206.46 0 359.31-122.05 371.86-333.08h-212.16c-7.99 94.68-63.88 150.57-164.26 150.57-136.88 0-189.35-119.77-189.35-241.82 0-122.06 52.47-241.83 189.35-241.83 90.11 0 151.71 43.35 164.26 125.48h212.16z"/><path id="6" class="fil1" d="M10218.48 775.11h-698.1v182.51h242.97v631.94h212.16V957.62h242.97z"/><path fill="#fa6831" d="M8318.67 0h2264.66v676.14H8318.67z"/><path class="fil3" d="M8471.86 559.69h313.82v-96.75h-201.35V127.96h-112.47z"/><path id="1" class="fil3" d="M8918.4 343.82c0-64.7 27.82-128.19 100.38-128.19s100.37 63.49 100.37 128.19c0 64.7-27.81 128.19-100.37 128.19s-100.38-63.49-100.38-128.19zm-112.47 0c0 125.17 77.4 224.94 212.85 224.94 135.44 0 212.84-99.77 212.84-224.94 0-125.16-77.4-224.93-212.84-224.93-135.45 0-212.85 99.77-212.85 224.93z"/><path id="2" class="fil3" d="M9672.72 282.15c-3.02-104.01-103.4-163.26-197.12-163.26-131.21 0-215.26 99.77-215.26 224.93 0 125.17 84.05 224.94 215.26 224.94 109.44 0 190.47-64.7 197.12-176.56h-112.47c-4.23 50.18-33.86 79.81-87.07 79.81-72.56 0-100.38-63.49-100.38-128.19 0-64.7 27.82-128.19 100.38-128.19 47.77 0 80.42 22.98 87.07 66.52h112.47z"/><path id="3" class="fil3" d="M9669.39 559.69h115.49l27.21-77.4h150.56l26.61 77.4h117.3l-161.44-431.73h-114.29l-161.44 431.73zm217.68-312.01h1.21l47.77 151.17h-97.96l48.98-151.17z"/><path id="4" class="fil3" d="M10120.17 559.69h313.82v-96.75h-201.35V127.96h-112.47z"/></g></svg>
